{"glyphs":{"0":{"ha":814,"x_min":56,"x_max":758,"o":"m 407 -21 q 147 103 239 -21 q 56 463 56 228 q 147 822 56 699 q 407 944 239 944 q 667 821 575 944 q 758 461 758 697 q 667 103 758 226 q 407 -21 575 -21 m 407 154 q 519 234 479 154 q 560 460 560 314 q 519 688 560 606 q 407 771 479 771 q 294 691 335 771 q 254 465 254 611 q 294 237 254 319 q 407 154 335 154 z "},"1":{"ha":608,"x_min":56,"x_max":578,"o":"m 56 0 l 69 168 l 229 168 l 229 674 l 67 739 l 67 807 l 317 932 l 424 932 l 424 168 l 578 168 l 564 0 l 56 0 z "},"2":{"ha":718,"x_min":39,"x_max":647,"o":"m 67 0 l 67 146 q 285 384 201 289 q 407 544 368 479 q 446 661 446 610 q 417 736 446 708 q 343 764 389 764 q 258 737 299 764 q 182 660 218 710 l 39 761 q 188 901 104 857 q 364 946 271 946 q 508 915 444 946 q 609 826 572 883 q 646 686 646 768 q 610 533 646 610 q 502 372 574 457 q 324 179 431 286 l 647 179 l 632 0 l 67 0 z "},"3":{"ha":675,"x_min":6,"x_max":613,"o":"m 151 -21 q 6 -8 81 -21 l 31 164 q 103 154 67 158 q 169 150 139 150 q 348 197 282 150 q 414 321 414 244 q 387 397 414 369 q 308 425 360 425 q 232 411 274 425 l 204 544 q 286 584 246 558 q 353 643 326 610 q 381 710 381 676 q 358 759 381 740 q 296 778 335 778 q 215 757 257 778 q 138 696 174 736 l 21 824 q 153 913 78 881 q 313 946 228 946 q 448 918 390 946 q 538 843 506 890 q 569 736 569 796 q 548 642 569 689 q 479 550 526 594 q 578 462 544 519 q 613 331 613 404 q 555 152 613 232 q 394 26 497 72 q 151 -21 290 -21 z "},"4":{"ha":797,"x_min":35,"x_max":742,"o":"m 453 0 l 453 208 l 49 208 l 35 351 l 451 925 l 635 925 l 635 364 l 742 364 l 728 208 l 635 208 l 635 0 l 453 0 m 236 364 l 453 364 l 453 683 l 236 364 z "},"5":{"ha":682,"x_min":14,"x_max":619,"o":"m 160 -21 q 14 -8 89 -21 l 39 164 q 111 154 75 158 q 178 150 147 150 q 355 201 289 150 q 421 333 421 253 q 293 451 421 451 q 171 424 229 451 l 93 481 l 119 925 l 592 925 l 581 761 l 281 761 l 272 604 q 301 608 286 607 q 333 610 317 610 q 540 538 461 610 q 619 338 619 465 q 562 153 619 235 q 401 26 504 72 q 160 -21 299 -21 z "},"6":{"ha":753,"x_min":63,"x_max":690,"o":"m 365 -22 q 206 17 274 -22 q 100 148 138 57 q 63 392 63 239 q 107 679 63 554 q 242 875 151 804 q 475 946 333 946 q 538 942 503 946 q 608 931 572 939 l 601 769 q 542 776 571 774 q 488 779 514 779 q 339 731 394 779 q 264 564 283 683 q 356 588 313 581 q 436 596 399 596 q 625 520 560 596 q 690 311 690 444 q 601 65 690 151 q 365 -22 511 -22 m 385 140 q 469 178 438 140 q 501 296 501 215 q 477 399 501 360 q 396 439 453 439 q 253 404 340 439 q 251 369 251 386 q 250 336 250 351 q 283 195 250 250 q 385 140 317 140 z "},"7":{"ha":657,"x_min":36,"x_max":608,"o":"m 314 -28 l 110 14 l 418 760 l 36 760 l 50 925 l 608 925 l 608 778 l 314 -28 z "},"8":{"ha":779,"x_min":60,"x_max":717,"o":"m 379 -21 q 143 52 226 -21 q 60 253 60 125 q 92 394 60 331 q 185 501 124 458 q 96 697 96 583 q 137 834 96 779 q 247 917 178 889 q 396 946 315 946 q 540 919 475 946 q 644 840 606 892 q 683 713 683 788 q 655 592 683 649 q 579 492 626 536 q 676 401 636 456 q 717 258 717 346 q 628 56 717 133 q 379 -21 539 -21 m 447 560 q 486 617 472 583 q 500 682 500 650 q 463 761 500 738 q 386 785 426 785 q 316 765 347 785 q 285 703 285 746 q 333 620 285 651 q 447 560 382 589 m 393 142 q 493 169 458 142 q 528 243 528 196 q 497 319 528 290 q 416 372 465 349 q 313 419 367 394 q 260 347 276 386 q 243 269 243 307 q 283 176 243 210 q 393 142 322 142 z "},"9":{"ha":753,"x_min":63,"x_max":690,"o":"m 278 -22 q 215 -19 250 -22 q 144 -7 181 -15 l 151 154 q 211 147 183 150 q 265 144 239 144 q 415 193 360 144 q 489 360 471 242 q 397 335 440 343 q 317 328 354 328 q 128 403 194 328 q 63 613 63 479 q 152 860 63 774 q 388 946 242 946 q 548 906 481 946 q 653 776 615 867 q 690 532 690 686 q 646 245 690 371 q 510 49 601 119 q 278 -22 419 -22 m 357 485 q 500 519 413 485 q 502 556 501 539 q 503 588 503 572 q 469 728 503 674 q 368 783 436 783 q 284 746 317 783 q 251 628 251 708 q 276 524 251 564 q 357 485 300 485 z "},"A":{"ha":943,"x_min":10,"x_max":933,"o":"m 10 0 l 349 925 l 590 925 l 933 0 l 725 0 l 650 211 l 286 211 l 215 0 l 10 0 m 344 383 l 590 383 l 465 738 l 344 383 z "},"Á":{"ha":943,"x_min":10,"x_max":933,"o":"m 10 0 l 349 925 l 590 925 l 933 0 l 725 0 l 650 211 l 286 211 l 215 0 l 10 0 m 344 383 l 590 383 l 465 738 l 344 383 m 454 1015 l 429 1069 q 514 1161 483 1113 l 478 1235 q 505 1301 478 1271 q 575 1331 532 1331 q 647 1301 617 1331 q 676 1225 676 1272 q 644 1133 676 1175 q 562 1061 613 1092 q 454 1015 511 1031 z "},"Ă":{"ha":943,"x_min":10,"x_max":933,"o":"m 10 0 l 349 925 l 590 925 l 933 0 l 725 0 l 650 211 l 286 211 l 215 0 l 10 0 m 344 383 l 590 383 l 465 738 l 344 383 m 472 1018 q 320 1072 392 1018 q 217 1231 249 1125 l 313 1263 q 384 1178 342 1207 q 472 1150 426 1150 q 560 1178 517 1150 q 632 1263 603 1207 l 728 1231 q 624 1072 696 1125 q 472 1018 553 1018 z "},"Â":{"ha":943,"x_min":10,"x_max":933,"o":"m 10 0 l 349 925 l 590 925 l 933 0 l 725 0 l 650 211 l 286 211 l 215 0 l 10 0 m 344 383 l 590 383 l 465 738 l 344 383 m 300 1015 l 239 1111 l 472 1294 l 706 1111 l 644 1015 l 472 1108 l 300 1015 z "},"Ä":{"ha":943,"x_min":10,"x_max":933,"o":"m 10 0 l 349 925 l 590 925 l 933 0 l 725 0 l 650 211 l 286 211 l 215 0 l 10 0 m 344 383 l 590 383 l 465 738 l 344 383 m 631 1024 q 555 1056 588 1024 q 522 1133 522 1088 q 557 1211 522 1179 q 635 1243 592 1243 q 711 1211 679 1243 q 743 1133 743 1179 q 711 1056 743 1088 q 631 1024 679 1024 m 310 1024 q 233 1056 265 1024 q 201 1133 201 1088 q 235 1211 201 1179 q 314 1243 269 1243 q 390 1211 358 1243 q 422 1133 422 1179 q 388 1056 422 1088 q 310 1024 354 1024 z "},"À":{"ha":943,"x_min":10,"x_max":933,"o":"m 10 0 l 349 925 l 590 925 l 933 0 l 725 0 l 650 211 l 286 211 l 215 0 l 10 0 m 344 383 l 590 383 l 465 738 l 344 383 m 476 1015 q 405 1044 435 1015 q 375 1121 375 1074 q 407 1213 375 1171 q 490 1285 439 1254 q 597 1331 540 1315 l 622 1276 q 538 1185 568 1233 l 574 1111 q 547 1045 574 1075 q 476 1015 519 1015 z "},"Ā":{"ha":943,"x_min":10,"x_max":933,"o":"m 10 0 l 349 925 l 590 925 l 933 0 l 725 0 l 650 211 l 286 211 l 215 0 l 10 0 m 344 383 l 590 383 l 465 738 l 344 383 m 239 1040 l 239 1164 l 703 1164 l 703 1040 l 239 1040 z "},"Ą":{"ha":944,"x_min":10,"x_max":935,"o":"m 811 -306 q 694 -268 736 -306 q 653 -169 653 -231 q 676 -85 653 -121 q 735 -25 700 -49 l 651 211 l 286 211 l 215 0 l 10 0 l 349 925 l 590 925 l 933 0 l 917 -4 q 818 -53 857 -18 q 779 -129 779 -89 q 801 -175 779 -160 q 854 -190 824 -190 q 935 -167 896 -190 l 928 -274 q 876 -297 907 -289 q 811 -306 844 -306 m 344 383 l 590 383 l 465 738 l 344 383 z "},"Å":{"ha":943,"x_min":10,"x_max":933,"o":"m 10 0 l 349 925 l 590 925 l 933 0 l 725 0 l 650 211 l 286 211 l 215 0 l 10 0 m 344 383 l 590 383 l 465 738 l 344 383 m 472 1007 q 382 1030 422 1007 q 317 1092 342 1053 q 293 1181 293 1132 q 317 1269 293 1231 q 382 1331 342 1308 q 472 1354 422 1354 q 563 1331 522 1354 q 627 1269 603 1308 q 651 1181 651 1231 q 627 1092 651 1132 q 563 1030 603 1053 q 472 1007 522 1007 m 472 1106 q 523 1128 504 1106 q 542 1181 542 1151 q 523 1233 542 1210 q 472 1256 504 1256 q 422 1233 442 1256 q 403 1181 403 1210 q 422 1128 403 1151 q 472 1106 442 1106 z "},"Ã":{"ha":943,"x_min":10,"x_max":933,"o":"m 10 0 l 349 925 l 590 925 l 933 0 l 725 0 l 650 211 l 286 211 l 215 0 l 10 0 m 344 383 l 590 383 l 465 738 l 344 383 m 578 1017 q 489 1038 528 1017 q 417 1082 450 1060 q 353 1104 383 1104 q 312 1085 331 1104 q 275 1019 293 1067 l 200 1076 q 269 1207 224 1167 q 372 1247 315 1247 q 461 1225 422 1247 q 533 1181 500 1203 q 597 1160 567 1160 q 638 1178 619 1160 q 675 1244 657 1197 l 750 1188 q 681 1058 728 1099 q 578 1017 635 1017 z "},"Æ":{"ha":1240,"x_min":0,"x_max":1164,"o":"m 0 0 l 456 925 l 1164 925 l 1164 750 l 800 750 l 800 565 l 1101 565 l 1101 396 l 800 396 l 800 175 l 1164 175 l 1164 0 l 601 0 l 601 211 l 308 211 l 206 0 l 0 0 m 393 383 l 601 383 l 601 761 l 576 761 l 393 383 z "},"B":{"ha":790,"x_min":97,"x_max":735,"o":"m 97 0 l 97 925 l 407 925 q 621 860 543 925 q 699 685 699 796 q 589 490 699 558 q 735 285 735 432 q 692 136 735 200 q 577 36 650 72 q 410 0 504 0 l 97 0 m 290 549 l 360 549 q 467 581 429 549 q 506 669 506 614 q 378 772 506 772 l 290 772 l 290 549 m 290 154 l 379 154 q 497 189 454 154 q 539 282 539 224 q 503 364 539 335 q 399 393 468 393 l 290 393 l 290 154 z "},"C":{"ha":825,"x_min":57,"x_max":760,"o":"m 529 -18 q 183 101 308 -18 q 57 439 57 221 q 116 702 57 590 q 283 876 175 814 q 533 939 390 939 q 649 928 593 939 q 756 897 704 917 l 718 718 q 626 750 672 739 q 535 761 581 761 q 334 678 407 761 q 261 458 261 594 q 339 240 261 318 q 554 163 417 163 q 641 170 596 163 q 729 192 686 178 l 760 21 q 529 -18 658 -18 z "},"Ć":{"ha":825,"x_min":57,"x_max":760,"o":"m 529 -18 q 183 101 308 -18 q 57 439 57 221 q 116 702 57 590 q 283 876 175 814 q 533 939 390 939 q 649 928 593 939 q 756 897 704 917 l 718 718 q 626 750 672 739 q 535 761 581 761 q 334 678 407 761 q 261 458 261 594 q 339 240 261 318 q 554 163 417 163 q 641 170 596 163 q 729 192 686 178 l 760 21 q 529 -18 658 -18 m 471 1015 l 446 1069 q 531 1161 500 1113 l 494 1235 q 522 1301 494 1271 q 592 1331 549 1331 q 663 1301 633 1331 q 693 1225 693 1272 q 661 1133 693 1175 q 578 1061 629 1092 q 471 1015 528 1031 z "},"Č":{"ha":825,"x_min":57,"x_max":760,"o":"m 529 -18 q 183 101 308 -18 q 57 439 57 221 q 116 702 57 590 q 283 876 175 814 q 533 939 390 939 q 649 928 593 939 q 756 897 704 917 l 718 718 q 626 750 672 739 q 535 761 581 761 q 334 678 407 761 q 261 458 261 594 q 339 240 261 318 q 554 163 417 163 q 641 170 596 163 q 729 192 686 178 l 760 21 q 529 -18 658 -18 m 489 1015 l 256 1199 l 317 1294 l 489 1201 l 661 1294 l 722 1199 l 489 1015 z "},"Ç":{"ha":825,"x_min":57,"x_max":760,"o":"m 529 -18 q 183 101 308 -18 q 57 439 57 221 q 116 702 57 590 q 283 876 175 814 q 533 939 390 939 q 649 928 593 939 q 756 897 704 917 l 718 718 q 626 750 672 739 q 535 761 581 761 q 334 678 407 761 q 261 458 261 594 q 339 240 261 318 q 554 163 417 163 q 641 170 596 163 q 729 192 686 178 l 760 21 q 529 -18 658 -18 m 476 -337 q 378 -320 426 -337 q 297 -275 329 -303 l 339 -215 q 400 -247 368 -235 q 458 -260 432 -260 q 494 -249 481 -260 q 508 -217 508 -239 q 474 -181 508 -189 q 404 -175 440 -174 l 375 -156 l 439 31 l 539 24 l 494 -78 q 601 -122 560 -87 q 642 -210 642 -156 q 592 -302 642 -267 q 476 -337 542 -337 z "},"Ċ":{"ha":825,"x_min":57,"x_max":760,"o":"m 529 -18 q 183 101 308 -18 q 57 439 57 221 q 116 702 57 590 q 283 876 175 814 q 533 939 390 939 q 649 928 593 939 q 756 897 704 917 l 718 718 q 626 750 672 739 q 535 761 581 761 q 334 678 407 761 q 261 458 261 594 q 339 240 261 318 q 554 163 417 163 q 641 170 596 163 q 729 192 686 178 l 760 21 q 529 -18 658 -18 m 488 1029 q 413 1060 444 1029 q 382 1135 382 1092 q 415 1210 382 1179 q 490 1240 447 1240 q 565 1210 533 1240 q 596 1135 596 1179 q 563 1060 596 1092 q 488 1029 531 1029 z "},"D":{"ha":951,"x_min":96,"x_max":896,"o":"m 243 -1 q 169 -1 206 -1 q 96 0 132 -1 l 96 925 q 185 926 140 926 q 272 926 229 926 q 361 926 317 926 q 449 925 406 926 q 686 870 586 924 q 841 719 786 817 q 896 488 896 621 q 833 233 896 342 q 656 63 769 124 q 389 0 542 3 q 316 -1 353 -1 q 243 -1 279 -1 m 297 175 l 388 175 q 608 257 528 175 q 689 482 689 339 q 620 681 689 611 q 422 750 551 750 l 297 750 l 297 175 z "},"Ď":{"ha":951,"x_min":96,"x_max":896,"o":"m 243 -1 q 169 -1 206 -1 q 96 0 132 -1 l 96 925 q 185 926 140 926 q 272 926 229 926 q 361 926 317 926 q 449 925 406 926 q 686 870 586 924 q 841 719 786 817 q 896 488 896 621 q 833 233 896 342 q 656 63 769 124 q 389 0 542 3 q 316 -1 353 -1 q 243 -1 279 -1 m 297 175 l 388 175 q 608 257 528 175 q 689 482 689 339 q 620 681 689 611 q 422 750 551 750 l 297 750 l 297 175 m 421 1015 l 188 1199 l 249 1294 l 421 1201 l 593 1294 l 654 1199 l 421 1015 z "},"Đ":{"ha":951,"x_min":-32,"x_max":896,"o":"m 243 -1 q 169 -1 206 -1 q 96 0 132 -1 l 96 392 l -32 392 l -18 510 l 96 510 l 96 925 q 185 926 140 926 q 272 926 229 926 q 361 926 317 926 q 449 925 406 926 q 686 870 586 924 q 841 719 786 817 q 896 488 896 621 q 833 233 896 342 q 656 63 769 124 q 389 0 542 3 q 316 -1 353 -1 q 243 -1 279 -1 m 297 175 l 388 175 q 608 257 528 175 q 689 482 689 339 q 620 681 689 611 q 422 750 551 750 l 297 750 l 297 510 l 479 510 l 465 392 l 297 392 l 297 175 z "},"Ð":{"ha":951,"x_min":-32,"x_max":896,"o":"m 243 -1 q 169 -1 206 -1 q 96 0 132 -1 l 96 392 l -32 392 l -18 510 l 96 510 l 96 925 q 185 926 140 926 q 272 926 229 926 q 361 926 317 926 q 449 925 406 926 q 686 870 586 924 q 841 719 786 817 q 896 488 896 621 q 833 233 896 342 q 656 63 769 124 q 389 0 542 3 q 316 -1 353 -1 q 243 -1 279 -1 m 297 175 l 388 175 q 608 257 528 175 q 689 482 689 339 q 620 681 689 611 q 422 750 551 750 l 297 750 l 297 510 l 479 510 l 465 392 l 297 392 l 297 175 z "},"E":{"ha":736,"x_min":97,"x_max":660,"o":"m 97 0 l 97 925 l 660 925 l 660 750 l 296 750 l 296 565 l 597 565 l 597 396 l 296 396 l 296 175 l 660 175 l 660 0 l 97 0 z "},"É":{"ha":736,"x_min":97,"x_max":660,"o":"m 97 0 l 97 925 l 660 925 l 660 750 l 296 750 l 296 565 l 597 565 l 597 396 l 296 396 l 296 175 l 660 175 l 660 0 l 97 0 m 364 1015 l 339 1069 q 424 1161 393 1113 l 388 1235 q 415 1301 388 1271 q 485 1331 442 1331 q 556 1301 526 1331 q 586 1225 586 1272 q 554 1133 586 1175 q 472 1061 522 1092 q 364 1015 421 1031 z "},"Ě":{"ha":736,"x_min":97,"x_max":660,"o":"m 97 0 l 97 925 l 660 925 l 660 750 l 296 750 l 296 565 l 597 565 l 597 396 l 296 396 l 296 175 l 660 175 l 660 0 l 97 0 m 382 1015 l 149 1199 l 210 1294 l 382 1201 l 554 1294 l 615 1199 l 382 1015 z "},"Ê":{"ha":736,"x_min":97,"x_max":660,"o":"m 97 0 l 97 925 l 660 925 l 660 750 l 296 750 l 296 565 l 597 565 l 597 396 l 296 396 l 296 175 l 660 175 l 660 0 l 97 0 m 210 1015 l 149 1111 l 382 1294 l 615 1111 l 554 1015 l 382 1108 l 210 1015 z "},"Ë":{"ha":736,"x_min":97,"x_max":660,"o":"m 97 0 l 97 925 l 660 925 l 660 750 l 296 750 l 296 565 l 597 565 l 597 396 l 296 396 l 296 175 l 660 175 l 660 0 l 97 0 m 540 1024 q 465 1056 497 1024 q 432 1133 432 1088 q 467 1211 432 1179 q 544 1243 501 1243 q 621 1211 589 1243 q 653 1133 653 1179 q 621 1056 653 1088 q 540 1024 589 1024 m 219 1024 q 143 1056 175 1024 q 111 1133 111 1088 q 145 1211 111 1179 q 224 1243 179 1243 q 300 1211 268 1243 q 332 1133 332 1179 q 298 1056 332 1088 q 219 1024 264 1024 z "},"Ė":{"ha":736,"x_min":97,"x_max":660,"o":"m 97 0 l 97 925 l 660 925 l 660 750 l 296 750 l 296 565 l 597 565 l 597 396 l 296 396 l 296 175 l 660 175 l 660 0 l 97 0 m 381 1029 q 306 1060 338 1029 q 275 1135 275 1092 q 308 1210 275 1179 q 383 1240 340 1240 q 458 1210 426 1240 q 489 1135 489 1179 q 456 1060 489 1092 q 381 1029 424 1029 z "},"È":{"ha":736,"x_min":97,"x_max":660,"o":"m 97 0 l 97 925 l 660 925 l 660 750 l 296 750 l 296 565 l 597 565 l 597 396 l 296 396 l 296 175 l 660 175 l 660 0 l 97 0 m 386 1015 q 315 1044 344 1015 q 285 1121 285 1074 q 317 1213 285 1171 q 399 1285 349 1254 q 507 1331 450 1315 l 532 1276 q 447 1185 478 1233 l 483 1111 q 456 1045 483 1075 q 386 1015 429 1015 z "},"Ē":{"ha":736,"x_min":97,"x_max":660,"o":"m 97 0 l 97 925 l 660 925 l 660 750 l 296 750 l 296 565 l 597 565 l 597 396 l 296 396 l 296 175 l 660 175 l 660 0 l 97 0 m 149 1040 l 149 1164 l 613 1164 l 613 1040 l 149 1040 z "},"Ę":{"ha":736,"x_min":97,"x_max":664,"o":"m 97 0 l 97 925 l 660 925 l 660 750 l 296 750 l 296 565 l 597 565 l 597 396 l 296 396 l 296 175 l 660 175 l 660 0 l 97 0 m 540 -306 q 424 -268 465 -306 q 382 -169 382 -231 q 428 -54 382 -100 q 533 10 475 -8 l 660 0 q 551 -53 594 -19 q 508 -129 508 -86 q 531 -175 508 -160 q 583 -190 553 -190 q 664 -167 625 -190 l 657 -274 q 605 -297 636 -289 q 540 -306 574 -306 z "},"F":{"ha":718,"x_min":97,"x_max":663,"o":"m 97 0 l 97 925 l 663 925 l 663 750 l 299 750 l 299 539 l 600 539 l 600 365 l 299 365 l 299 0 l 97 0 z "},"G":{"ha":956,"x_min":63,"x_max":868,"o":"m 560 -21 q 293 34 404 -21 q 122 191 182 89 q 63 436 63 293 q 126 700 63 588 q 303 875 189 813 q 568 938 417 938 q 731 918 654 938 q 868 863 808 899 l 819 696 q 699 748 765 729 q 568 767 633 767 q 407 727 476 767 q 299 617 338 688 q 260 450 260 546 q 344 231 260 311 q 574 151 428 151 q 682 160 632 151 l 682 351 l 565 351 l 565 514 l 867 514 l 867 33 q 560 -21 724 -21 z "},"Ğ":{"ha":956,"x_min":63,"x_max":868,"o":"m 560 -21 q 293 34 404 -21 q 122 191 182 89 q 63 436 63 293 q 126 700 63 588 q 303 875 189 813 q 568 938 417 938 q 731 918 654 938 q 868 863 808 899 l 819 696 q 699 748 765 729 q 568 767 633 767 q 407 727 476 767 q 299 617 338 688 q 260 450 260 546 q 344 231 260 311 q 574 151 428 151 q 682 160 632 151 l 682 351 l 565 351 l 565 514 l 867 514 l 867 33 q 560 -21 724 -21 m 547 1018 q 395 1072 467 1018 q 292 1231 324 1125 l 388 1263 q 459 1178 417 1207 q 547 1150 501 1150 q 635 1178 592 1150 q 707 1263 678 1207 l 803 1231 q 699 1072 771 1125 q 547 1018 628 1018 z "},"Ģ":{"ha":956,"x_min":63,"x_max":868,"o":"m 560 -21 q 293 34 404 -21 q 122 191 182 89 q 63 436 63 293 q 126 700 63 588 q 303 875 189 813 q 568 938 417 938 q 731 918 654 938 q 868 863 808 899 l 819 696 q 699 748 765 729 q 568 767 633 767 q 407 727 476 767 q 299 617 338 688 q 260 450 260 546 q 344 231 260 311 q 574 151 428 151 q 682 160 632 151 l 682 351 l 565 351 l 565 514 l 867 514 l 867 33 q 560 -21 724 -21 m 475 -453 l 451 -368 q 487 -317 471 -343 q 511 -269 503 -292 l 454 -185 q 481 -121 454 -151 q 553 -90 508 -90 q 624 -119 594 -90 q 654 -196 654 -149 q 615 -312 654 -243 q 475 -453 575 -382 z "},"Ġ":{"ha":956,"x_min":63,"x_max":868,"o":"m 560 -21 q 293 34 404 -21 q 122 191 182 89 q 63 436 63 293 q 126 700 63 588 q 303 875 189 813 q 568 938 417 938 q 731 918 654 938 q 868 863 808 899 l 819 696 q 699 748 765 729 q 568 767 633 767 q 407 727 476 767 q 299 617 338 688 q 260 450 260 546 q 344 231 260 311 q 574 151 428 151 q 682 160 632 151 l 682 351 l 565 351 l 565 514 l 867 514 l 867 33 q 560 -21 724 -21 m 546 1029 q 472 1060 503 1029 q 440 1135 440 1092 q 473 1210 440 1179 q 549 1240 506 1240 q 623 1210 592 1240 q 654 1135 654 1179 q 622 1060 654 1092 q 546 1029 589 1029 z "},"H":{"ha":994,"x_min":97,"x_max":897,"o":"m 97 0 l 97 925 l 300 925 l 300 567 l 693 567 l 693 925 l 897 925 l 897 0 l 693 0 l 693 394 l 300 394 l 300 0 l 97 0 z "},"Ħ":{"ha":994,"x_min":97,"x_max":897,"o":"m 97 0 l 97 925 l 300 925 l 300 803 l 693 803 l 693 925 l 897 925 l 897 0 l 693 0 l 693 394 l 300 394 l 300 0 l 97 0 m 300 567 l 693 567 l 693 685 l 300 685 l 300 567 z "},"I":{"ha":418,"x_min":108,"x_max":310,"o":"m 108 0 l 108 925 l 310 925 l 310 0 l 108 0 z "},"Ĳ":{"ha":888,"x_min":108,"x_max":790,"o":"m 108 0 l 108 925 l 310 925 l 310 0 l 108 0 m 547 -21 q 474 -14 513 -21 q 400 8 436 -7 l 453 176 q 489 160 471 167 q 526 154 507 154 q 577 174 558 154 q 596 240 596 194 l 596 925 l 790 925 l 790 224 q 724 45 790 111 q 547 -21 658 -21 z "},"Í":{"ha":418,"x_min":108,"x_max":414,"o":"m 108 0 l 108 925 l 310 925 l 310 0 l 108 0 m 192 1015 l 167 1069 q 251 1161 221 1113 l 215 1235 q 242 1301 215 1271 q 313 1331 269 1331 q 384 1301 354 1331 q 414 1225 414 1272 q 382 1133 414 1175 q 299 1061 350 1092 q 192 1015 249 1031 z "},"Î":{"ha":418,"x_min":-24,"x_max":443,"o":"m 108 0 l 108 925 l 310 925 l 310 0 l 108 0 m 38 1015 l -24 1111 l 210 1294 l 443 1111 l 382 1015 l 210 1108 l 38 1015 z "},"Ï":{"ha":418,"x_min":-61,"x_max":481,"o":"m 108 0 l 108 925 l 310 925 l 310 0 l 108 0 m 368 1024 q 292 1056 325 1024 q 260 1133 260 1088 q 294 1211 260 1179 q 372 1243 329 1243 q 449 1211 417 1243 q 481 1133 481 1179 q 449 1056 481 1088 q 368 1024 417 1024 m 47 1024 q -29 1056 3 1024 q -61 1133 -61 1088 q -27 1211 -61 1179 q 51 1243 7 1243 q 128 1211 96 1243 q 160 1133 160 1179 q 126 1056 160 1088 q 47 1024 92 1024 z "},"İ":{"ha":418,"x_min":103,"x_max":317,"o":"m 108 0 l 108 925 l 310 925 l 310 0 l 108 0 m 208 1029 q 134 1060 165 1029 q 103 1135 103 1092 q 135 1210 103 1179 q 211 1240 168 1240 q 285 1210 254 1240 q 317 1135 317 1179 q 284 1060 317 1092 q 208 1029 251 1029 z "},"Ì":{"ha":418,"x_min":108,"x_max":360,"o":"m 108 0 l 108 925 l 310 925 l 310 0 l 108 0 m 214 1015 q 142 1044 172 1015 q 113 1121 113 1074 q 144 1213 113 1171 q 227 1285 176 1254 q 335 1331 278 1315 l 360 1276 q 275 1185 306 1233 l 311 1111 q 284 1045 311 1075 q 214 1015 257 1015 z "},"Ī":{"ha":418,"x_min":-24,"x_max":440,"o":"m 108 0 l 108 925 l 310 925 l 310 0 l 108 0 m -24 1040 l -24 1164 l 440 1164 l 440 1040 l -24 1040 z "},"Į":{"ha":418,"x_min":32,"x_max":314,"o":"m 190 -306 q 74 -268 115 -306 q 32 -169 32 -231 q 53 -87 32 -124 q 108 -28 75 -51 l 108 925 l 310 925 l 310 0 q 201 -53 244 -19 q 158 -129 158 -86 q 181 -175 158 -160 q 233 -190 203 -190 q 314 -167 275 -190 l 307 -274 q 255 -297 286 -289 q 190 -306 224 -306 z "},"J":{"ha":469,"x_min":-18,"x_max":372,"o":"m 129 -21 q 56 -14 94 -21 q -18 8 18 -7 l 35 176 q 71 160 53 167 q 108 154 89 154 q 159 174 140 154 q 178 240 178 194 l 178 925 l 372 925 l 372 224 q 306 45 372 111 q 129 -21 240 -21 z "},"K":{"ha":854,"x_min":97,"x_max":840,"o":"m 97 0 l 97 925 l 299 925 l 299 567 l 600 925 l 840 925 l 460 486 l 821 0 l 576 0 l 299 374 l 299 0 l 97 0 z "},"Ķ":{"ha":854,"x_min":97,"x_max":840,"o":"m 97 0 l 97 925 l 299 925 l 299 567 l 600 925 l 840 925 l 460 486 l 821 0 l 576 0 l 299 374 l 299 0 l 97 0 m 349 -453 l 325 -368 q 360 -317 344 -343 q 385 -269 376 -292 l 328 -185 q 355 -121 328 -151 q 426 -90 382 -90 q 498 -119 468 -90 q 528 -196 528 -149 q 488 -312 528 -243 q 349 -453 449 -382 z "},"L":{"ha":674,"x_min":97,"x_max":632,"o":"m 97 0 l 97 925 l 299 925 l 299 175 l 632 175 l 632 0 l 97 0 z "},"Ĺ":{"ha":674,"x_min":97,"x_max":632,"o":"m 97 0 l 97 925 l 299 925 l 299 175 l 632 175 l 632 0 l 97 0 m 181 1015 l 156 1069 q 240 1161 210 1113 l 204 1235 q 231 1301 204 1271 q 301 1331 258 1331 q 373 1301 343 1331 q 403 1225 403 1272 q 371 1133 403 1175 q 288 1061 339 1092 q 181 1015 238 1031 z "},"Ľ":{"ha":674,"x_min":97,"x_max":663,"o":"m 97 0 l 97 925 l 299 925 l 299 175 l 632 175 l 632 0 l 97 0 m 486 624 l 450 672 q 514 779 493 724 l 461 846 q 483 925 457 892 q 561 960 514 960 q 632 929 601 960 q 663 846 663 899 q 638 760 663 803 q 574 683 614 718 q 486 624 533 649 z "},"Ļ":{"ha":674,"x_min":97,"x_max":632,"o":"m 97 0 l 97 925 l 299 925 l 299 175 l 632 175 l 632 0 l 97 0 m 283 -453 l 260 -368 q 295 -317 279 -343 q 319 -269 311 -292 l 263 -185 q 290 -121 263 -151 q 361 -90 317 -90 q 433 -119 403 -90 q 463 -196 463 -149 q 423 -312 463 -243 q 283 -453 383 -382 z "},"Ł":{"ha":674,"x_min":-4,"x_max":632,"o":"m 97 0 l 97 342 l 22 286 l -4 421 l 97 497 l 97 925 l 299 925 l 299 647 l 397 721 l 424 586 l 299 493 l 299 175 l 632 175 l 632 0 l 97 0 z "},"M":{"ha":1265,"x_min":63,"x_max":1200,"o":"m 546 -25 l 300 653 l 242 0 l 63 0 l 150 925 l 400 925 l 636 261 l 865 925 l 1115 925 l 1200 0 l 1019 0 l 956 650 l 711 -10 l 546 -25 z "},"N":{"ha":999,"x_min":97,"x_max":901,"o":"m 97 0 l 97 925 l 333 925 l 717 276 l 717 925 l 901 925 l 901 0 l 668 0 l 282 653 l 282 0 l 97 0 z "},"Ń":{"ha":999,"x_min":97,"x_max":901,"o":"m 97 0 l 97 925 l 333 925 l 717 276 l 717 925 l 901 925 l 901 0 l 668 0 l 282 653 l 282 0 l 97 0 m 482 1015 l 457 1069 q 542 1161 511 1113 l 506 1235 q 533 1301 506 1271 q 603 1331 560 1331 q 674 1301 644 1331 q 704 1225 704 1272 q 672 1133 704 1175 q 590 1061 640 1092 q 482 1015 539 1031 z "},"Ň":{"ha":999,"x_min":97,"x_max":901,"o":"m 97 0 l 97 925 l 333 925 l 717 276 l 717 925 l 901 925 l 901 0 l 668 0 l 282 653 l 282 0 l 97 0 m 500 1015 l 267 1199 l 328 1294 l 500 1201 l 672 1294 l 733 1199 l 500 1015 z "},"Ņ":{"ha":999,"x_min":97,"x_max":901,"o":"m 97 0 l 97 925 l 333 925 l 717 276 l 717 925 l 901 925 l 901 0 l 668 0 l 282 653 l 282 0 l 97 0 m 421 -453 l 397 -368 q 433 -317 417 -343 q 457 -269 449 -292 l 400 -185 q 427 -121 400 -151 q 499 -90 454 -90 q 570 -119 540 -90 q 600 -196 600 -149 q 560 -312 600 -243 q 421 -453 521 -382 z "},"Ñ":{"ha":999,"x_min":97,"x_max":901,"o":"m 97 0 l 97 925 l 333 925 l 717 276 l 717 925 l 901 925 l 901 0 l 668 0 l 282 653 l 282 0 l 97 0 m 606 1017 q 517 1038 556 1017 q 444 1082 478 1060 q 381 1104 411 1104 q 340 1085 358 1104 q 303 1019 321 1067 l 228 1076 q 297 1207 251 1167 q 400 1247 343 1247 q 489 1225 450 1247 q 561 1181 528 1203 q 625 1160 594 1160 q 666 1178 647 1160 q 703 1244 685 1197 l 778 1188 q 709 1058 756 1099 q 606 1017 663 1017 z "},"Ŋ":{"ha":999,"x_min":97,"x_max":901,"o":"m 658 -324 q 590 -317 625 -324 q 518 -297 554 -310 l 571 -133 q 635 -149 604 -149 q 707 -64 707 -149 l 707 0 l 668 0 l 282 653 l 282 0 l 97 0 l 97 925 l 333 925 l 717 276 l 717 925 l 901 925 l 901 -79 q 835 -258 901 -192 q 658 -324 769 -324 z "},"O":{"ha":1029,"x_min":56,"x_max":974,"o":"m 515 -18 q 274 42 378 -18 q 113 209 171 101 q 56 458 56 317 q 113 710 56 603 q 274 876 171 817 q 515 936 378 936 q 756 877 653 936 q 917 712 860 818 q 974 464 974 606 q 917 211 974 319 q 756 42 860 103 q 515 -18 653 -18 m 515 158 q 699 240 631 158 q 767 458 767 322 q 735 617 767 549 q 647 722 704 685 q 515 758 590 760 q 384 722 440 760 q 296 617 328 685 q 264 458 264 549 q 295 301 264 368 q 383 196 326 233 q 515 158 440 158 z "},"Ó":{"ha":1029,"x_min":56,"x_max":974,"o":"m 515 -18 q 274 42 378 -18 q 113 209 171 101 q 56 458 56 317 q 113 710 56 603 q 274 876 171 817 q 515 936 378 936 q 756 877 653 936 q 917 712 860 818 q 974 464 974 606 q 917 211 974 319 q 756 42 860 103 q 515 -18 653 -18 m 515 158 q 699 240 631 158 q 767 458 767 322 q 735 617 767 549 q 647 722 704 685 q 515 758 590 760 q 384 722 440 760 q 296 617 328 685 q 264 458 264 549 q 295 301 264 368 q 383 196 326 233 q 515 158 440 158 m 497 1015 l 472 1069 q 557 1161 526 1113 l 521 1235 q 548 1301 521 1271 q 618 1331 575 1331 q 690 1301 660 1331 q 719 1225 719 1272 q 688 1133 719 1175 q 605 1061 656 1092 q 497 1015 554 1031 z "},"Ô":{"ha":1029,"x_min":56,"x_max":974,"o":"m 515 -18 q 274 42 378 -18 q 113 209 171 101 q 56 458 56 317 q 113 710 56 603 q 274 876 171 817 q 515 936 378 936 q 756 877 653 936 q 917 712 860 818 q 974 464 974 606 q 917 211 974 319 q 756 42 860 103 q 515 -18 653 -18 m 515 158 q 699 240 631 158 q 767 458 767 322 q 735 617 767 549 q 647 722 704 685 q 515 758 590 760 q 384 722 440 760 q 296 617 328 685 q 264 458 264 549 q 295 301 264 368 q 383 196 326 233 q 515 158 440 158 m 343 1015 l 282 1111 l 515 1294 l 749 1111 l 688 1015 l 515 1108 l 343 1015 z "},"Ö":{"ha":1029,"x_min":56,"x_max":974,"o":"m 515 -18 q 274 42 378 -18 q 113 209 171 101 q 56 458 56 317 q 113 710 56 603 q 274 876 171 817 q 515 936 378 936 q 756 877 653 936 q 917 712 860 818 q 974 464 974 606 q 917 211 974 319 q 756 42 860 103 q 515 -18 653 -18 m 515 158 q 699 240 631 158 q 767 458 767 322 q 735 617 767 549 q 647 722 704 685 q 515 758 590 760 q 384 722 440 760 q 296 617 328 685 q 264 458 264 549 q 295 301 264 368 q 383 196 326 233 q 515 158 440 158 m 674 1024 q 598 1056 631 1024 q 565 1133 565 1088 q 600 1211 565 1179 q 678 1243 635 1243 q 754 1211 722 1243 q 786 1133 786 1179 q 754 1056 786 1088 q 674 1024 722 1024 m 353 1024 q 276 1056 308 1024 q 244 1133 244 1088 q 278 1211 244 1179 q 357 1243 313 1243 q 433 1211 401 1243 q 465 1133 465 1179 q 431 1056 465 1088 q 353 1024 397 1024 z "},"Ò":{"ha":1029,"x_min":56,"x_max":974,"o":"m 515 -18 q 274 42 378 -18 q 113 209 171 101 q 56 458 56 317 q 113 710 56 603 q 274 876 171 817 q 515 936 378 936 q 756 877 653 936 q 917 712 860 818 q 974 464 974 606 q 917 211 974 319 q 756 42 860 103 q 515 -18 653 -18 m 515 158 q 699 240 631 158 q 767 458 767 322 q 735 617 767 549 q 647 722 704 685 q 515 758 590 760 q 384 722 440 760 q 296 617 328 685 q 264 458 264 549 q 295 301 264 368 q 383 196 326 233 q 515 158 440 158 m 519 1015 q 448 1044 478 1015 q 418 1121 418 1074 q 450 1213 418 1171 q 533 1285 482 1254 q 640 1331 583 1315 l 665 1276 q 581 1185 611 1233 l 617 1111 q 590 1045 617 1075 q 519 1015 563 1015 z "},"Ő":{"ha":1029,"x_min":56,"x_max":974,"o":"m 515 -18 q 274 42 378 -18 q 113 209 171 101 q 56 458 56 317 q 113 710 56 603 q 274 876 171 817 q 515 936 378 936 q 756 877 653 936 q 917 712 860 818 q 974 464 974 606 q 917 211 974 319 q 756 42 860 103 q 515 -18 653 -18 m 515 158 q 699 240 631 158 q 767 458 767 322 q 735 617 767 549 q 647 722 704 685 q 515 758 590 760 q 384 722 440 760 q 296 617 328 685 q 264 458 264 549 q 295 301 264 368 q 383 196 326 233 q 515 158 440 158 m 574 1015 l 549 1069 q 633 1161 603 1113 l 597 1235 q 624 1301 597 1271 q 694 1331 651 1331 q 766 1301 736 1331 q 796 1225 796 1272 q 764 1133 796 1175 q 681 1061 732 1092 q 574 1015 631 1031 m 310 1015 l 285 1069 q 369 1161 339 1113 l 333 1235 q 360 1301 333 1271 q 431 1331 388 1331 q 502 1301 472 1331 q 532 1225 532 1272 q 500 1133 532 1175 q 417 1061 468 1092 q 310 1015 367 1031 z "},"Ō":{"ha":1029,"x_min":56,"x_max":974,"o":"m 515 -18 q 274 42 378 -18 q 113 209 171 101 q 56 458 56 317 q 113 710 56 603 q 274 876 171 817 q 515 936 378 936 q 756 877 653 936 q 917 712 860 818 q 974 464 974 606 q 917 211 974 319 q 756 42 860 103 q 515 -18 653 -18 m 515 158 q 699 240 631 158 q 767 458 767 322 q 735 617 767 549 q 647 722 704 685 q 515 758 590 760 q 384 722 440 760 q 296 617 328 685 q 264 458 264 549 q 295 301 264 368 q 383 196 326 233 q 515 158 440 158 m 282 1040 l 282 1164 l 746 1164 l 746 1040 l 282 1040 z "},"Ø":{"ha":1029,"x_min":56,"x_max":974,"o":"m 97 -50 l 57 124 l 125 189 q 74 313 92 244 q 56 458 56 381 q 113 710 56 603 q 274 876 171 817 q 515 936 378 936 q 673 913 600 936 q 803 846 746 889 l 933 972 l 974 799 l 904 732 q 956 609 938 676 q 974 464 974 542 q 917 211 974 319 q 756 42 860 103 q 515 -18 653 -18 q 356 6 429 -18 q 225 75 283 31 l 97 -50 m 264 458 q 281 340 264 394 l 663 710 q 515 758 600 760 q 384 722 440 760 q 296 617 328 685 q 264 458 264 549 m 515 158 q 699 240 631 158 q 767 458 767 322 q 749 581 767 525 l 365 210 q 515 158 428 158 z "},"Õ":{"ha":1029,"x_min":56,"x_max":974,"o":"m 515 -18 q 274 42 378 -18 q 113 209 171 101 q 56 458 56 317 q 113 710 56 603 q 274 876 171 817 q 515 936 378 936 q 756 877 653 936 q 917 712 860 818 q 974 464 974 606 q 917 211 974 319 q 756 42 860 103 q 515 -18 653 -18 m 515 158 q 699 240 631 158 q 767 458 767 322 q 735 617 767 549 q 647 722 704 685 q 515 758 590 760 q 384 722 440 760 q 296 617 328 685 q 264 458 264 549 q 295 301 264 368 q 383 196 326 233 q 515 158 440 158 m 621 1017 q 532 1038 571 1017 q 460 1082 493 1060 q 396 1104 426 1104 q 355 1085 374 1104 q 318 1019 336 1067 l 243 1076 q 313 1207 267 1167 q 415 1247 358 1247 q 504 1225 465 1247 q 576 1181 543 1203 q 640 1160 610 1160 q 681 1178 663 1160 q 718 1244 700 1197 l 793 1188 q 724 1058 771 1099 q 621 1017 678 1017 z "},"Œ":{"ha":1264,"x_min":56,"x_max":1188,"o":"m 515 -18 q 274 42 378 -18 q 113 209 171 101 q 56 458 56 317 q 113 710 56 603 q 274 876 171 817 q 515 936 378 936 q 572 933 544 936 q 625 925 599 931 l 1188 925 l 1188 750 l 824 750 l 824 565 l 1125 565 l 1125 396 l 824 396 l 824 175 l 1188 175 l 1188 0 l 653 0 q 587 -14 622 -10 q 515 -18 551 -18 m 515 158 q 625 182 575 158 l 625 735 q 513 758 574 758 q 383 721 439 758 q 295 616 326 683 q 264 458 264 549 q 295 301 264 368 q 383 196 326 233 q 515 158 440 158 z "},"P":{"ha":760,"x_min":97,"x_max":711,"o":"m 97 0 l 97 925 q 167 926 128 926 q 250 926 207 926 q 333 926 293 926 q 404 925 374 926 q 628 849 546 922 q 711 644 711 776 q 669 479 711 550 q 552 369 626 408 q 381 331 478 331 l 290 331 l 290 0 l 97 0 m 290 494 l 372 494 q 478 533 440 494 q 517 639 517 572 q 382 761 517 761 l 290 761 l 290 494 z "},"Þ":{"ha":774,"x_min":97,"x_max":711,"o":"m 97 0 l 97 925 l 290 925 l 290 753 l 397 753 q 628 679 546 753 q 711 474 711 606 q 669 309 711 379 q 550 201 626 239 q 372 158 474 163 l 290 156 l 290 0 l 97 0 m 290 322 l 351 322 q 472 361 428 322 q 517 467 517 400 q 371 590 517 590 l 290 590 l 290 322 z "},"Q":{"ha":1036,"x_min":56,"x_max":978,"o":"m 957 -143 l 665 1 q 515 -19 597 -19 q 274 40 378 -19 q 113 208 171 100 q 56 457 56 315 q 113 708 56 601 q 274 875 171 815 q 515 935 378 935 q 756 876 653 935 q 917 711 860 817 q 974 463 974 606 q 941 267 974 356 q 849 114 908 178 l 978 47 l 957 -143 m 513 157 l 525 283 l 668 208 q 741 311 715 247 q 767 457 767 375 q 735 617 767 549 q 647 722 704 685 q 515 758 590 760 q 384 722 440 760 q 296 615 328 683 q 264 457 264 547 q 294 301 264 368 q 381 196 325 233 q 513 157 438 158 z "},"R":{"ha":778,"x_min":92,"x_max":781,"o":"m 92 0 l 92 925 q 164 926 124 926 q 247 926 204 926 q 332 926 290 926 q 404 925 374 926 q 643 845 568 919 q 718 656 718 771 q 666 483 718 554 q 521 388 614 411 q 583 320 553 363 q 665 196 614 278 q 709 125 692 156 q 743 66 726 94 q 781 0 760 38 l 547 0 l 390 292 q 343 351 364 340 q 285 361 322 361 l 285 0 l 92 0 m 285 515 l 371 515 q 483 551 443 515 q 524 649 524 588 q 382 763 524 763 l 285 763 l 285 515 z "},"Ŕ":{"ha":778,"x_min":92,"x_max":781,"o":"m 92 0 l 92 925 q 164 926 124 926 q 247 926 204 926 q 332 926 290 926 q 404 925 374 926 q 643 845 568 919 q 718 656 718 771 q 666 483 718 554 q 521 388 614 411 q 583 320 553 363 q 665 196 614 278 q 709 125 692 156 q 743 66 726 94 q 781 0 760 38 l 547 0 l 390 292 q 343 351 364 340 q 285 361 322 361 l 285 0 l 92 0 m 285 515 l 371 515 q 483 551 443 515 q 524 649 524 588 q 382 763 524 763 l 285 763 l 285 515 m 357 1015 l 332 1069 q 417 1161 386 1113 l 381 1235 q 408 1301 381 1271 q 478 1331 435 1331 q 549 1301 519 1331 q 579 1225 579 1272 q 547 1133 579 1175 q 465 1061 515 1092 q 357 1015 414 1031 z "},"Ř":{"ha":778,"x_min":92,"x_max":781,"o":"m 92 0 l 92 925 q 164 926 124 926 q 247 926 204 926 q 332 926 290 926 q 404 925 374 926 q 643 845 568 919 q 718 656 718 771 q 666 483 718 554 q 521 388 614 411 q 583 320 553 363 q 665 196 614 278 q 709 125 692 156 q 743 66 726 94 q 781 0 760 38 l 547 0 l 390 292 q 343 351 364 340 q 285 361 322 361 l 285 0 l 92 0 m 285 515 l 371 515 q 483 551 443 515 q 524 649 524 588 q 382 763 524 763 l 285 763 l 285 515 m 375 1015 l 142 1199 l 203 1294 l 375 1201 l 547 1294 l 608 1199 l 375 1015 z "},"Ŗ":{"ha":778,"x_min":92,"x_max":781,"o":"m 92 0 l 92 925 q 164 926 124 926 q 247 926 204 926 q 332 926 290 926 q 404 925 374 926 q 643 845 568 919 q 718 656 718 771 q 666 483 718 554 q 521 388 614 411 q 583 320 553 363 q 665 196 614 278 q 709 125 692 156 q 743 66 726 94 q 781 0 760 38 l 547 0 l 390 292 q 343 351 364 340 q 285 361 322 361 l 285 0 l 92 0 m 285 515 l 371 515 q 483 551 443 515 q 524 649 524 588 q 382 763 524 763 l 285 763 l 285 515 m 333 -453 l 310 -368 q 345 -317 329 -343 q 369 -269 361 -292 l 313 -185 q 340 -121 313 -151 q 411 -90 367 -90 q 483 -119 453 -90 q 513 -196 513 -149 q 473 -312 513 -243 q 333 -453 433 -382 z "},"S":{"ha":751,"x_min":63,"x_max":689,"o":"m 342 -18 q 187 0 260 -18 q 63 49 114 18 l 79 235 q 210 174 142 196 q 338 153 279 153 q 446 181 404 153 q 488 254 488 208 q 467 306 488 288 q 413 339 446 325 q 339 369 379 353 q 245 410 293 389 q 156 460 197 431 q 90 538 115 490 q 64 657 64 585 q 154 866 64 789 q 406 943 244 943 q 656 893 529 943 l 625 710 q 515 756 574 739 q 403 772 456 772 q 301 747 338 772 q 265 678 265 721 q 295 616 265 638 q 371 575 325 594 q 472 535 417 556 q 576 484 526 515 q 657 401 625 453 q 689 267 689 349 q 598 57 689 132 q 342 -18 507 -18 z "},"Ś":{"ha":751,"x_min":63,"x_max":689,"o":"m 342 -18 q 187 0 260 -18 q 63 49 114 18 l 79 235 q 210 174 142 196 q 338 153 279 153 q 446 181 404 153 q 488 254 488 208 q 467 306 488 288 q 413 339 446 325 q 339 369 379 353 q 245 410 293 389 q 156 460 197 431 q 90 538 115 490 q 64 657 64 585 q 154 866 64 789 q 406 943 244 943 q 656 893 529 943 l 625 710 q 515 756 574 739 q 403 772 456 772 q 301 747 338 772 q 265 678 265 721 q 295 616 265 638 q 371 575 325 594 q 472 535 417 556 q 576 484 526 515 q 657 401 625 453 q 689 267 689 349 q 598 57 689 132 q 342 -18 507 -18 m 358 1015 l 333 1069 q 418 1161 388 1113 l 382 1235 q 409 1301 382 1271 q 479 1331 436 1331 q 551 1301 521 1331 q 581 1225 581 1272 q 549 1133 581 1175 q 466 1061 517 1092 q 358 1015 415 1031 z "},"Š":{"ha":751,"x_min":63,"x_max":689,"o":"m 342 -18 q 187 0 260 -18 q 63 49 114 18 l 79 235 q 210 174 142 196 q 338 153 279 153 q 446 181 404 153 q 488 254 488 208 q 467 306 488 288 q 413 339 446 325 q 339 369 379 353 q 245 410 293 389 q 156 460 197 431 q 90 538 115 490 q 64 657 64 585 q 154 866 64 789 q 406 943 244 943 q 656 893 529 943 l 625 710 q 515 756 574 739 q 403 772 456 772 q 301 747 338 772 q 265 678 265 721 q 295 616 265 638 q 371 575 325 594 q 472 535 417 556 q 576 484 526 515 q 657 401 625 453 q 689 267 689 349 q 598 57 689 132 q 342 -18 507 -18 m 376 1015 l 143 1199 l 204 1294 l 376 1201 l 549 1294 l 610 1199 l 376 1015 z "},"Ş":{"ha":751,"x_min":63,"x_max":689,"o":"m 342 -18 q 187 0 260 -18 q 63 49 114 18 l 79 235 q 210 174 142 196 q 338 153 279 153 q 446 181 404 153 q 488 254 488 208 q 467 306 488 288 q 413 339 446 325 q 339 369 379 353 q 245 410 293 389 q 156 460 197 431 q 90 538 115 490 q 64 657 64 585 q 154 866 64 789 q 406 943 244 943 q 656 893 529 943 l 625 710 q 515 756 574 739 q 403 772 456 772 q 301 747 338 772 q 265 678 265 721 q 295 616 265 638 q 371 575 325 594 q 472 535 417 556 q 576 484 526 515 q 657 401 625 453 q 689 267 689 349 q 598 57 689 132 q 342 -18 507 -18 m 378 -337 q 279 -320 328 -337 q 199 -275 231 -303 l 240 -215 q 301 -247 269 -235 q 360 -260 333 -260 q 396 -249 382 -260 q 410 -217 410 -239 q 376 -181 410 -189 q 306 -175 342 -174 l 276 -156 l 340 31 l 440 24 l 396 -78 q 502 -122 461 -87 q 543 -210 543 -156 q 493 -302 543 -267 q 378 -337 443 -337 z "},"Ș":{"ha":751,"x_min":63,"x_max":689,"o":"m 342 -18 q 187 0 260 -18 q 63 49 114 18 l 79 235 q 210 174 142 196 q 338 153 279 153 q 446 181 404 153 q 488 254 488 208 q 467 306 488 288 q 413 339 446 325 q 339 369 379 353 q 245 410 293 389 q 156 460 197 431 q 90 538 115 490 q 64 657 64 585 q 154 866 64 789 q 406 943 244 943 q 656 893 529 943 l 625 710 q 515 756 574 739 q 403 772 456 772 q 301 747 338 772 q 265 678 265 721 q 295 616 265 638 q 371 575 325 594 q 472 535 417 556 q 576 484 526 515 q 657 401 625 453 q 689 267 689 349 q 598 57 689 132 q 342 -18 507 -18 m 297 -453 l 274 -368 q 309 -317 293 -343 q 333 -269 325 -292 l 276 -185 q 303 -121 276 -151 q 375 -90 331 -90 q 447 -119 417 -90 q 476 -196 476 -149 q 437 -312 476 -243 q 297 -453 397 -382 z "},"ẞ":{"ha":919,"x_min":111,"x_max":808,"o":"m 111 -139 l 111 1064 l 808 1064 l 808 -139 l 111 -139 m 304 36 l 615 36 l 615 889 l 304 889 l 304 36 z "},"T":{"ha":789,"x_min":42,"x_max":747,"o":"m 294 0 l 294 750 l 42 750 l 42 925 l 747 925 l 747 750 l 497 750 l 497 0 l 294 0 z "},"Ŧ":{"ha":789,"x_min":42,"x_max":747,"o":"m 294 0 l 294 404 l 138 404 l 151 522 l 294 522 l 294 750 l 42 750 l 42 925 l 747 925 l 747 750 l 497 750 l 497 522 l 649 522 l 635 404 l 497 404 l 497 0 l 294 0 z "},"Ť":{"ha":789,"x_min":42,"x_max":747,"o":"m 294 0 l 294 750 l 42 750 l 42 925 l 747 925 l 747 750 l 497 750 l 497 0 l 294 0 m 394 1015 l 161 1199 l 222 1294 l 394 1201 l 567 1294 l 628 1199 l 394 1015 z "},"Ţ":{"ha":789,"x_min":42,"x_max":747,"o":"m 294 0 l 294 750 l 42 750 l 42 925 l 747 925 l 747 750 l 497 750 l 497 0 l 294 0 m 396 -337 q 297 -320 346 -337 q 217 -275 249 -303 l 258 -215 q 319 -247 288 -235 q 378 -260 351 -260 q 414 -249 400 -260 q 428 -217 428 -239 q 394 -181 428 -189 q 324 -175 360 -174 l 294 -156 l 358 31 l 458 24 l 414 -78 q 520 -122 479 -87 q 561 -210 561 -156 q 511 -302 561 -267 q 396 -337 461 -337 z "},"Ț":{"ha":789,"x_min":42,"x_max":747,"o":"m 294 0 l 294 750 l 42 750 l 42 925 l 747 925 l 747 750 l 497 750 l 497 0 l 294 0 m 315 -453 l 292 -368 q 327 -317 311 -343 q 351 -269 343 -292 l 294 -185 q 322 -121 294 -151 q 393 -90 349 -90 q 465 -119 435 -90 q 494 -196 494 -149 q 455 -312 494 -243 q 315 -453 415 -382 z "},"U":{"ha":967,"x_min":97,"x_max":869,"o":"m 483 -18 q 281 31 368 -18 q 145 167 193 79 q 97 371 97 254 l 97 925 l 300 925 l 300 386 q 349 223 300 283 q 483 163 399 163 q 618 224 568 163 q 668 386 668 285 l 668 925 l 869 925 l 869 371 q 822 167 869 254 q 687 31 774 79 q 483 -18 600 -18 z "},"Ú":{"ha":967,"x_min":97,"x_max":869,"o":"m 483 -18 q 281 31 368 -18 q 145 167 193 79 q 97 371 97 254 l 97 925 l 300 925 l 300 386 q 349 223 300 283 q 483 163 399 163 q 618 224 568 163 q 668 386 668 285 l 668 925 l 869 925 l 869 371 q 822 167 869 254 q 687 31 774 79 q 483 -18 600 -18 m 465 1015 l 440 1069 q 525 1161 494 1113 l 489 1235 q 516 1301 489 1271 q 586 1331 543 1331 q 658 1301 628 1331 q 688 1225 688 1272 q 656 1133 688 1175 q 573 1061 624 1092 q 465 1015 522 1031 z "},"Ŭ":{"ha":967,"x_min":97,"x_max":869,"o":"m 483 -18 q 281 31 368 -18 q 145 167 193 79 q 97 371 97 254 l 97 925 l 300 925 l 300 386 q 349 223 300 283 q 483 163 399 163 q 618 224 568 163 q 668 386 668 285 l 668 925 l 869 925 l 869 371 q 822 167 869 254 q 687 31 774 79 q 483 -18 600 -18 m 483 1018 q 331 1072 403 1018 q 228 1231 260 1125 l 324 1263 q 395 1178 353 1207 q 483 1150 438 1150 q 571 1178 528 1150 q 643 1263 614 1207 l 739 1231 q 635 1072 707 1125 q 483 1018 564 1018 z "},"Û":{"ha":967,"x_min":97,"x_max":869,"o":"m 483 -18 q 281 31 368 -18 q 145 167 193 79 q 97 371 97 254 l 97 925 l 300 925 l 300 386 q 349 223 300 283 q 483 163 399 163 q 618 224 568 163 q 668 386 668 285 l 668 925 l 869 925 l 869 371 q 822 167 869 254 q 687 31 774 79 q 483 -18 600 -18 m 311 1015 l 250 1111 l 483 1294 l 717 1111 l 656 1015 l 483 1108 l 311 1015 z "},"Ü":{"ha":967,"x_min":97,"x_max":869,"o":"m 483 -18 q 281 31 368 -18 q 145 167 193 79 q 97 371 97 254 l 97 925 l 300 925 l 300 386 q 349 223 300 283 q 483 163 399 163 q 618 224 568 163 q 668 386 668 285 l 668 925 l 869 925 l 869 371 q 822 167 869 254 q 687 31 774 79 q 483 -18 600 -18 m 642 1024 q 566 1056 599 1024 q 533 1133 533 1088 q 568 1211 533 1179 q 646 1243 603 1243 q 722 1211 690 1243 q 754 1133 754 1179 q 722 1056 754 1088 q 642 1024 690 1024 m 321 1024 q 244 1056 276 1024 q 213 1133 213 1088 q 247 1211 213 1179 q 325 1243 281 1243 q 401 1211 369 1243 q 433 1133 433 1179 q 399 1056 433 1088 q 321 1024 365 1024 z "},"Ù":{"ha":967,"x_min":97,"x_max":869,"o":"m 483 -18 q 281 31 368 -18 q 145 167 193 79 q 97 371 97 254 l 97 925 l 300 925 l 300 386 q 349 223 300 283 q 483 163 399 163 q 618 224 568 163 q 668 386 668 285 l 668 925 l 869 925 l 869 371 q 822 167 869 254 q 687 31 774 79 q 483 -18 600 -18 m 488 1015 q 416 1044 446 1015 q 386 1121 386 1074 q 418 1213 386 1171 q 501 1285 450 1254 q 608 1331 551 1315 l 633 1276 q 549 1185 579 1233 l 585 1111 q 558 1045 585 1075 q 488 1015 531 1015 z "},"Ű":{"ha":967,"x_min":97,"x_max":869,"o":"m 483 -18 q 281 31 368 -18 q 145 167 193 79 q 97 371 97 254 l 97 925 l 300 925 l 300 386 q 349 223 300 283 q 483 163 399 163 q 618 224 568 163 q 668 386 668 285 l 668 925 l 869 925 l 869 371 q 822 167 869 254 q 687 31 774 79 q 483 -18 600 -18 m 542 1015 l 517 1069 q 601 1161 571 1113 l 565 1235 q 592 1301 565 1271 q 663 1331 619 1331 q 734 1301 704 1331 q 764 1225 764 1272 q 732 1133 764 1175 q 649 1061 700 1092 q 542 1015 599 1031 m 278 1015 l 253 1069 q 338 1161 307 1113 l 301 1235 q 328 1301 301 1271 q 399 1331 356 1331 q 470 1301 440 1331 q 500 1225 500 1272 q 468 1133 500 1175 q 385 1061 436 1092 q 278 1015 335 1031 z "},"Ū":{"ha":967,"x_min":97,"x_max":869,"o":"m 483 -18 q 281 31 368 -18 q 145 167 193 79 q 97 371 97 254 l 97 925 l 300 925 l 300 386 q 349 223 300 283 q 483 163 399 163 q 618 224 568 163 q 668 386 668 285 l 668 925 l 869 925 l 869 371 q 822 167 869 254 q 687 31 774 79 q 483 -18 600 -18 m 250 1040 l 250 1164 l 714 1164 l 714 1040 l 250 1040 z "},"Ų":{"ha":967,"x_min":97,"x_max":869,"o":"m 483 -18 q 281 31 368 -18 q 145 167 193 79 q 97 371 97 254 l 97 925 l 300 925 l 300 386 q 349 223 300 283 q 483 163 399 163 q 618 224 568 163 q 668 386 668 285 l 668 925 l 869 925 l 869 371 q 822 167 869 254 q 687 31 774 79 q 483 -18 600 -18 m 493 -306 q 376 -268 418 -306 q 335 -169 335 -231 q 381 -54 335 -100 q 486 10 428 -8 l 613 0 q 504 -53 547 -19 q 461 -129 461 -86 q 483 -175 461 -160 q 536 -190 506 -190 q 617 -167 578 -190 l 610 -274 q 558 -297 589 -289 q 493 -306 526 -306 z "},"Ů":{"ha":967,"x_min":97,"x_max":869,"o":"m 483 -18 q 281 31 368 -18 q 145 167 193 79 q 97 371 97 254 l 97 925 l 300 925 l 300 386 q 349 223 300 283 q 483 163 399 163 q 618 224 568 163 q 668 386 668 285 l 668 925 l 869 925 l 869 371 q 822 167 869 254 q 687 31 774 79 q 483 -18 600 -18 m 483 1007 q 393 1030 433 1007 q 328 1092 353 1053 q 304 1181 304 1132 q 328 1269 304 1231 q 393 1331 353 1308 q 483 1354 433 1354 q 574 1331 533 1354 q 638 1269 614 1308 q 663 1181 663 1231 q 638 1092 663 1132 q 574 1030 614 1053 q 483 1007 533 1007 m 483 1106 q 534 1128 515 1106 q 553 1181 553 1151 q 534 1233 553 1210 q 483 1256 515 1256 q 433 1233 453 1256 q 414 1181 414 1210 q 433 1128 414 1151 q 483 1106 453 1106 z "},"V":{"ha":894,"x_min":14,"x_max":881,"o":"m 326 0 l 14 925 l 236 925 l 456 219 l 674 925 l 881 925 l 569 0 l 326 0 z "},"W":{"ha":1419,"x_min":42,"x_max":1378,"o":"m 279 0 l 42 925 l 256 925 l 417 260 l 582 919 l 842 939 l 1017 240 l 1179 925 l 1378 925 l 1128 0 l 885 0 l 706 732 l 519 0 l 279 0 z "},"Ẃ":{"ha":1419,"x_min":42,"x_max":1378,"o":"m 279 0 l 42 925 l 256 925 l 417 260 l 582 919 l 842 939 l 1017 240 l 1179 925 l 1378 925 l 1128 0 l 885 0 l 706 732 l 519 0 l 279 0 m 692 1015 l 667 1069 q 751 1161 721 1113 l 715 1235 q 742 1301 715 1271 q 813 1331 769 1331 q 884 1301 854 1331 q 914 1225 914 1272 q 882 1133 914 1175 q 799 1061 850 1092 q 692 1015 749 1031 z "},"Ŵ":{"ha":1419,"x_min":42,"x_max":1378,"o":"m 279 0 l 42 925 l 256 925 l 417 260 l 582 919 l 842 939 l 1017 240 l 1179 925 l 1378 925 l 1128 0 l 885 0 l 706 732 l 519 0 l 279 0 m 538 1015 l 476 1111 l 710 1294 l 943 1111 l 882 1015 l 710 1108 l 538 1015 z "},"Ẅ":{"ha":1419,"x_min":42,"x_max":1378,"o":"m 279 0 l 42 925 l 256 925 l 417 260 l 582 919 l 842 939 l 1017 240 l 1179 925 l 1378 925 l 1128 0 l 885 0 l 706 732 l 519 0 l 279 0 m 868 1024 q 792 1056 825 1024 q 760 1133 760 1088 q 794 1211 760 1179 q 872 1243 829 1243 q 949 1211 917 1243 q 981 1133 981 1179 q 949 1056 981 1088 q 868 1024 917 1024 m 547 1024 q 471 1056 503 1024 q 439 1133 439 1088 q 473 1211 439 1179 q 551 1243 507 1243 q 628 1211 596 1243 q 660 1133 660 1179 q 626 1056 660 1088 q 547 1024 592 1024 z "},"Ẁ":{"ha":1419,"x_min":42,"x_max":1378,"o":"m 279 0 l 42 925 l 256 925 l 417 260 l 582 919 l 842 939 l 1017 240 l 1179 925 l 1378 925 l 1128 0 l 885 0 l 706 732 l 519 0 l 279 0 m 714 1015 q 642 1044 672 1015 q 613 1121 613 1074 q 644 1213 613 1171 q 727 1285 676 1254 q 835 1331 778 1315 l 860 1276 q 775 1185 806 1233 l 811 1111 q 784 1045 811 1075 q 714 1015 757 1015 z "},"X":{"ha":935,"x_min":8,"x_max":926,"o":"m 8 0 l 338 475 l 32 925 l 271 925 l 472 628 l 674 925 l 896 925 l 592 486 l 926 0 l 681 0 l 457 326 l 240 0 l 8 0 z "},"Y":{"ha":843,"x_min":7,"x_max":829,"o":"m 317 0 l 317 385 l 7 925 l 233 925 l 421 560 l 607 925 l 829 925 l 518 385 l 518 0 l 317 0 z "},"Ý":{"ha":843,"x_min":7,"x_max":829,"o":"m 317 0 l 317 385 l 7 925 l 233 925 l 421 560 l 607 925 l 829 925 l 518 385 l 518 0 l 317 0 m 400 1015 l 375 1069 q 460 1161 429 1113 l 424 1235 q 451 1301 424 1271 q 521 1331 478 1331 q 592 1301 563 1331 q 622 1225 622 1272 q 590 1133 622 1175 q 508 1061 558 1092 q 400 1015 457 1031 z "},"Ŷ":{"ha":843,"x_min":7,"x_max":829,"o":"m 317 0 l 317 385 l 7 925 l 233 925 l 421 560 l 607 925 l 829 925 l 518 385 l 518 0 l 317 0 m 246 1015 l 185 1111 l 418 1294 l 651 1111 l 590 1015 l 418 1108 l 246 1015 z "},"Ÿ":{"ha":843,"x_min":7,"x_max":829,"o":"m 317 0 l 317 385 l 7 925 l 233 925 l 421 560 l 607 925 l 829 925 l 518 385 l 518 0 l 317 0 m 576 1024 q 501 1056 533 1024 q 468 1133 468 1088 q 503 1211 468 1179 q 581 1243 538 1243 q 657 1211 625 1243 q 689 1133 689 1179 q 657 1056 689 1088 q 576 1024 625 1024 m 256 1024 q 179 1056 211 1024 q 147 1133 147 1088 q 181 1211 147 1179 q 260 1243 215 1243 q 336 1211 304 1243 q 368 1133 368 1179 q 334 1056 368 1088 q 256 1024 300 1024 z "},"Ỳ":{"ha":843,"x_min":7,"x_max":829,"o":"m 317 0 l 317 385 l 7 925 l 233 925 l 421 560 l 607 925 l 829 925 l 518 385 l 518 0 l 317 0 m 422 1015 q 351 1044 381 1015 q 321 1121 321 1074 q 353 1213 321 1171 q 435 1285 385 1254 q 543 1331 486 1315 l 568 1276 q 483 1185 514 1233 l 519 1111 q 492 1045 519 1075 q 422 1015 465 1015 z "},"Z":{"ha":819,"x_min":63,"x_max":750,"o":"m 63 0 l 63 151 l 504 750 l 75 750 l 75 925 l 750 925 l 750 767 l 311 175 l 750 175 l 750 0 l 63 0 z "},"Ź":{"ha":819,"x_min":63,"x_max":750,"o":"m 63 0 l 63 151 l 504 750 l 75 750 l 75 925 l 750 925 l 750 767 l 311 175 l 750 175 l 750 0 l 63 0 m 392 1015 l 367 1069 q 451 1161 421 1113 l 415 1235 q 442 1301 415 1271 q 513 1331 469 1331 q 584 1301 554 1331 q 614 1225 614 1272 q 582 1133 614 1175 q 499 1061 550 1092 q 392 1015 449 1031 z "},"Ž":{"ha":819,"x_min":63,"x_max":750,"o":"m 63 0 l 63 151 l 504 750 l 75 750 l 75 925 l 750 925 l 750 767 l 311 175 l 750 175 l 750 0 l 63 0 m 410 1015 l 176 1199 l 238 1294 l 410 1201 l 582 1294 l 643 1199 l 410 1015 z "},"Ż":{"ha":819,"x_min":63,"x_max":750,"o":"m 63 0 l 63 151 l 504 750 l 75 750 l 75 925 l 750 925 l 750 767 l 311 175 l 750 175 l 750 0 l 63 0 m 408 1029 q 334 1060 365 1029 q 303 1135 303 1092 q 335 1210 303 1179 q 411 1240 368 1240 q 485 1210 454 1240 q 517 1135 517 1179 q 484 1060 517 1092 q 408 1029 451 1029 z "},"a":{"ha":774,"x_min":56,"x_max":690,"o":"m 297 -21 q 122 73 188 -21 q 56 331 56 167 q 156 631 56 528 q 443 735 256 735 q 690 701 549 735 l 690 0 l 504 0 l 508 114 l 503 114 q 297 -21 431 -21 m 339 150 q 426 199 385 150 q 501 318 468 247 l 501 551 q 456 561 479 558 q 413 564 432 564 q 244 339 244 564 q 269 201 244 251 q 339 150 294 150 z "},"á":{"ha":774,"x_min":56,"x_max":690,"o":"m 297 -21 q 122 73 188 -21 q 56 331 56 167 q 156 631 56 528 q 443 735 256 735 q 690 701 549 735 l 690 0 l 504 0 l 508 114 l 503 114 q 297 -21 431 -21 m 339 150 q 426 199 385 150 q 501 318 468 247 l 501 551 q 456 561 479 558 q 413 564 432 564 q 244 339 244 564 q 269 201 244 251 q 339 150 294 150 m 406 806 l 381 860 q 465 951 435 903 l 429 1025 q 456 1091 429 1061 q 526 1121 483 1121 q 598 1092 568 1121 q 628 1015 628 1063 q 596 924 628 965 q 513 851 564 882 q 406 806 463 821 z "},"ă":{"ha":774,"x_min":56,"x_max":690,"o":"m 297 -21 q 122 73 188 -21 q 56 331 56 167 q 156 631 56 528 q 443 735 256 735 q 690 701 549 735 l 690 0 l 504 0 l 508 114 l 503 114 q 297 -21 431 -21 m 339 150 q 426 199 385 150 q 501 318 468 247 l 501 551 q 456 561 479 558 q 413 564 432 564 q 244 339 244 564 q 269 201 244 251 q 339 150 294 150 m 424 808 q 272 862 343 808 q 168 1021 200 915 l 264 1053 q 335 969 293 997 q 424 940 378 940 q 511 969 468 940 q 583 1053 554 997 l 679 1021 q 576 862 647 915 q 424 808 504 808 z "},"â":{"ha":774,"x_min":56,"x_max":690,"o":"m 297 -21 q 122 73 188 -21 q 56 331 56 167 q 156 631 56 528 q 443 735 256 735 q 690 701 549 735 l 690 0 l 504 0 l 508 114 l 503 114 q 297 -21 431 -21 m 339 150 q 426 199 385 150 q 501 318 468 247 l 501 551 q 456 561 479 558 q 413 564 432 564 q 244 339 244 564 q 269 201 244 251 q 339 150 294 150 m 251 806 l 190 901 l 424 1085 l 657 901 l 596 806 l 424 899 l 251 806 z "},"ä":{"ha":774,"x_min":56,"x_max":694,"o":"m 297 -21 q 122 73 188 -21 q 56 331 56 167 q 156 631 56 528 q 443 735 256 735 q 690 701 549 735 l 690 0 l 504 0 l 508 114 l 503 114 q 297 -21 431 -21 m 339 150 q 426 199 385 150 q 501 318 468 247 l 501 551 q 456 561 479 558 q 413 564 432 564 q 244 339 244 564 q 269 201 244 251 q 339 150 294 150 m 582 814 q 506 846 539 814 q 474 924 474 878 q 508 1001 474 969 q 586 1033 543 1033 q 663 1001 631 1033 q 694 924 694 969 q 663 846 694 878 q 582 814 631 814 m 261 814 q 185 846 217 814 q 153 924 153 878 q 187 1001 153 969 q 265 1033 221 1033 q 342 1001 310 1033 q 374 924 374 969 q 340 846 374 878 q 261 814 306 814 z "},"à":{"ha":774,"x_min":56,"x_max":690,"o":"m 297 -21 q 122 73 188 -21 q 56 331 56 167 q 156 631 56 528 q 443 735 256 735 q 690 701 549 735 l 690 0 l 504 0 l 508 114 l 503 114 q 297 -21 431 -21 m 339 150 q 426 199 385 150 q 501 318 468 247 l 501 551 q 456 561 479 558 q 413 564 432 564 q 244 339 244 564 q 269 201 244 251 q 339 150 294 150 m 428 806 q 356 835 386 806 q 326 911 326 864 q 358 1003 326 961 q 441 1075 390 1044 q 549 1121 492 1106 l 574 1067 q 489 975 519 1024 l 525 901 q 498 835 525 865 q 428 806 471 806 z "},"ā":{"ha":774,"x_min":56,"x_max":690,"o":"m 297 -21 q 122 73 188 -21 q 56 331 56 167 q 156 631 56 528 q 443 735 256 735 q 690 701 549 735 l 690 0 l 504 0 l 508 114 l 503 114 q 297 -21 431 -21 m 339 150 q 426 199 385 150 q 501 318 468 247 l 501 551 q 456 561 479 558 q 413 564 432 564 q 244 339 244 564 q 269 201 244 251 q 339 150 294 150 m 190 831 l 190 954 l 654 954 l 654 831 l 190 831 z "},"ą":{"ha":774,"x_min":56,"x_max":694,"o":"m 571 -306 q 454 -268 496 -306 q 413 -169 413 -231 q 440 -80 413 -118 q 506 -17 467 -42 l 508 114 l 503 114 q 297 -21 431 -21 q 122 73 188 -21 q 56 331 56 167 q 156 631 56 528 q 443 735 256 735 q 690 701 549 735 l 690 0 q 582 -53 625 -19 q 539 -129 539 -86 q 561 -175 539 -160 q 614 -190 583 -190 q 694 -167 656 -190 l 688 -274 q 635 -297 667 -289 q 571 -306 604 -306 m 339 150 q 426 199 385 150 q 501 318 468 247 l 501 551 q 456 561 479 558 q 413 564 432 564 q 244 339 244 564 q 269 201 244 251 q 339 150 294 150 z "},"å":{"ha":774,"x_min":56,"x_max":690,"o":"m 297 -21 q 122 73 188 -21 q 56 331 56 167 q 156 631 56 528 q 443 735 256 735 q 690 701 549 735 l 690 0 l 504 0 l 508 114 l 503 114 q 297 -21 431 -21 m 339 150 q 426 199 385 150 q 501 318 468 247 l 501 551 q 456 561 479 558 q 413 564 432 564 q 244 339 244 564 q 269 201 244 251 q 339 150 294 150 m 424 797 q 333 820 374 797 q 269 883 293 843 q 244 971 244 922 q 269 1060 244 1021 q 333 1122 293 1099 q 424 1144 374 1144 q 514 1122 474 1144 q 578 1060 554 1099 q 603 971 603 1021 q 578 883 603 922 q 514 820 554 843 q 424 797 474 797 m 424 896 q 474 919 456 896 q 493 971 493 942 q 474 1023 493 1000 q 424 1046 456 1046 q 374 1023 393 1046 q 354 971 354 1000 q 374 919 354 942 q 424 896 393 896 z "},"ã":{"ha":774,"x_min":56,"x_max":701,"o":"m 297 -21 q 122 73 188 -21 q 56 331 56 167 q 156 631 56 528 q 443 735 256 735 q 690 701 549 735 l 690 0 l 504 0 l 508 114 l 503 114 q 297 -21 431 -21 m 339 150 q 426 199 385 150 q 501 318 468 247 l 501 551 q 456 561 479 558 q 413 564 432 564 q 244 339 244 564 q 269 201 244 251 q 339 150 294 150 m 529 807 q 440 828 479 807 q 368 872 401 850 q 304 894 335 894 q 263 876 282 894 q 226 810 244 857 l 151 867 q 221 997 175 957 q 324 1038 267 1038 q 413 1015 374 1038 q 485 972 451 993 q 549 950 518 950 q 590 969 571 950 q 626 1035 608 988 l 701 978 q 633 848 679 889 q 529 807 586 807 z "},"æ":{"ha":1190,"x_min":56,"x_max":1135,"o":"m 301 -21 q 121 72 186 -21 q 56 328 56 165 q 153 630 56 525 q 435 735 251 735 q 541 728 483 735 q 665 707 599 721 q 813 735 732 735 q 1051 635 968 735 q 1135 346 1135 535 q 1135 322 1135 333 q 1133 299 1135 310 l 661 299 q 860 149 689 149 q 967 162 913 149 q 1064 197 1022 175 l 1096 40 q 836 -21 981 -21 q 529 121 626 -21 l 524 121 q 433 16 493 53 q 301 -21 372 -21 m 660 446 l 947 446 q 906 541 943 506 q 806 576 868 576 q 708 542 746 576 q 660 446 669 507 m 353 150 q 478 236 421 150 q 464 357 464 288 q 474 461 464 413 q 503 551 485 510 q 457 561 482 558 q 413 564 432 564 q 287 507 329 564 q 244 342 244 450 q 273 201 244 253 q 353 150 301 150 z "},"b":{"ha":801,"x_min":90,"x_max":746,"o":"m 353 -21 q 229 -12 297 -21 q 90 13 161 -3 l 90 1014 l 283 1014 l 283 646 q 485 735 365 735 q 677 642 608 735 q 746 385 746 550 q 644 83 746 188 q 353 -21 543 -21 m 374 150 q 550 374 550 150 q 521 514 550 464 q 436 564 492 564 q 283 442 346 564 l 283 163 q 329 153 306 157 q 374 150 353 150 z "},"c":{"ha":667,"x_min":50,"x_max":618,"o":"m 424 -21 q 148 74 246 -21 q 50 340 50 168 q 96 547 50 458 q 225 685 142 636 q 418 735 308 735 q 526 723 471 735 q 613 696 582 711 l 575 531 q 504 555 543 546 q 433 564 465 564 q 296 506 349 564 q 243 351 243 447 q 297 201 243 254 q 449 149 351 149 q 589 174 514 149 l 618 15 q 523 -12 571 -3 q 424 -21 475 -21 z "},"ć":{"ha":667,"x_min":50,"x_max":618,"o":"m 424 -21 q 148 74 246 -21 q 50 340 50 168 q 96 547 50 458 q 225 685 142 636 q 418 735 308 735 q 526 723 471 735 q 613 696 582 711 l 575 531 q 504 555 543 546 q 433 564 465 564 q 296 506 349 564 q 243 351 243 447 q 297 201 243 254 q 449 149 351 149 q 589 174 514 149 l 618 15 q 523 -12 571 -3 q 424 -21 475 -21 m 367 806 l 342 860 q 426 951 396 903 l 390 1025 q 417 1091 390 1061 q 488 1121 444 1121 q 559 1092 529 1121 q 589 1015 589 1063 q 557 924 589 965 q 474 851 525 882 q 367 806 424 821 z "},"č":{"ha":667,"x_min":50,"x_max":618,"o":"m 424 -21 q 148 74 246 -21 q 50 340 50 168 q 96 547 50 458 q 225 685 142 636 q 418 735 308 735 q 526 723 471 735 q 613 696 582 711 l 575 531 q 504 555 543 546 q 433 564 465 564 q 296 506 349 564 q 243 351 243 447 q 297 201 243 254 q 449 149 351 149 q 589 174 514 149 l 618 15 q 523 -12 571 -3 q 424 -21 475 -21 m 385 806 l 151 989 l 213 1085 l 385 992 l 557 1085 l 618 989 l 385 806 z "},"ç":{"ha":667,"x_min":50,"x_max":618,"o":"m 424 -21 q 148 74 246 -21 q 50 340 50 168 q 96 547 50 458 q 225 685 142 636 q 418 735 308 735 q 526 723 471 735 q 613 696 582 711 l 575 531 q 504 555 543 546 q 433 564 465 564 q 296 506 349 564 q 243 351 243 447 q 297 201 243 254 q 449 149 351 149 q 589 174 514 149 l 618 15 q 523 -12 571 -3 q 424 -21 475 -21 m 417 -337 q 318 -320 367 -337 q 238 -275 269 -303 l 279 -215 q 340 -247 308 -235 q 399 -260 372 -260 q 435 -249 421 -260 q 449 -217 449 -239 q 415 -181 449 -189 q 344 -175 381 -174 l 315 -156 l 379 31 l 479 24 l 435 -78 q 541 -122 500 -87 q 582 -210 582 -156 q 532 -302 582 -267 q 417 -337 482 -337 z "},"ċ":{"ha":667,"x_min":50,"x_max":618,"o":"m 424 -21 q 148 74 246 -21 q 50 340 50 168 q 96 547 50 458 q 225 685 142 636 q 418 735 308 735 q 526 723 471 735 q 613 696 582 711 l 575 531 q 504 555 543 546 q 433 564 465 564 q 296 506 349 564 q 243 351 243 447 q 297 201 243 254 q 449 149 351 149 q 589 174 514 149 l 618 15 q 523 -12 571 -3 q 424 -21 475 -21 m 383 819 q 309 851 340 819 q 278 925 278 882 q 310 1000 278 969 q 386 1031 343 1031 q 460 1000 429 1031 q 492 925 492 969 q 459 851 492 882 q 383 819 426 819 z "},"d":{"ha":801,"x_min":56,"x_max":713,"o":"m 314 -21 q 125 72 194 -21 q 56 329 56 164 q 158 631 56 526 q 449 735 260 735 q 485 734 468 735 q 519 732 501 733 l 519 1014 l 713 1014 l 713 0 l 522 0 l 526 93 l 521 93 q 314 -21 447 -21 m 358 150 q 444 188 403 150 q 519 297 486 226 l 519 551 q 429 564 472 564 q 297 507 342 564 q 251 340 251 450 q 280 201 251 251 q 358 150 308 150 z "},"ď":{"ha":801,"x_min":56,"x_max":1007,"o":"m 314 -21 q 125 72 194 -21 q 56 329 56 164 q 158 631 56 526 q 449 735 260 735 q 485 734 468 735 q 519 732 501 733 l 519 1014 l 713 1014 l 713 0 l 522 0 l 526 93 l 521 93 q 314 -21 447 -21 m 358 150 q 444 188 403 150 q 519 297 486 226 l 519 551 q 429 564 472 564 q 297 507 342 564 q 251 340 251 450 q 280 201 251 251 q 358 150 308 150 m 831 785 l 794 833 q 858 940 838 885 l 806 1007 q 828 1086 801 1053 q 906 1121 858 1121 q 976 1090 946 1121 q 1007 1007 1007 1060 q 983 922 1007 964 q 918 844 958 879 q 831 785 878 810 z "},"đ":{"ha":801,"x_min":56,"x_max":819,"o":"m 314 -21 q 125 72 194 -21 q 56 329 56 164 q 158 631 56 526 q 449 735 260 735 q 485 734 468 735 q 519 732 501 733 l 519 807 l 308 807 l 322 925 l 519 925 l 519 1014 l 713 1014 l 713 925 l 819 925 l 806 807 l 713 807 l 713 0 l 522 0 l 526 93 l 521 93 q 314 -21 447 -21 m 358 150 q 444 188 403 150 q 519 297 486 226 l 519 551 q 429 564 472 564 q 297 507 342 564 q 251 340 251 450 q 280 201 251 251 q 358 150 308 150 z "},"ð":{"ha":814,"x_min":63,"x_max":751,"o":"m 408 -21 q 226 26 304 -21 q 106 158 149 74 q 63 357 63 243 q 106 556 63 471 q 226 688 149 640 q 404 735 303 735 q 524 711 471 735 q 475 768 501 740 q 418 825 449 796 l 254 768 l 236 868 l 332 901 q 280 944 307 922 q 224 989 253 965 l 428 1043 q 515 965 475 1006 l 678 1021 l 696 921 l 588 883 q 708 668 665 785 q 751 414 751 551 q 714 190 751 289 q 600 35 676 92 q 408 -21 524 -21 m 406 147 q 517 205 475 147 q 558 358 558 263 q 517 510 558 453 q 406 567 475 567 q 294 510 336 567 q 253 358 253 453 q 294 205 253 263 q 406 147 336 147 z "},"e":{"ha":782,"x_min":56,"x_max":726,"o":"m 428 -21 q 156 79 256 -21 q 56 357 56 179 q 99 558 56 474 q 220 689 142 643 q 404 735 299 735 q 643 635 560 735 q 726 346 726 535 q 726 322 726 333 q 725 299 726 310 l 253 299 q 451 149 281 149 q 559 162 504 149 q 656 197 614 175 l 688 40 q 428 -21 572 -21 m 251 446 l 539 446 q 497 541 535 506 q 397 576 460 576 q 299 542 338 576 q 251 446 261 507 z "},"é":{"ha":782,"x_min":56,"x_max":726,"o":"m 428 -21 q 156 79 256 -21 q 56 357 56 179 q 99 558 56 474 q 220 689 142 643 q 404 735 299 735 q 643 635 560 735 q 726 346 726 535 q 726 322 726 333 q 725 299 726 310 l 253 299 q 451 149 281 149 q 559 162 504 149 q 656 197 614 175 l 688 40 q 428 -21 572 -21 m 251 446 l 539 446 q 497 541 535 506 q 397 576 460 576 q 299 542 338 576 q 251 446 261 507 m 386 806 l 361 860 q 446 951 415 903 l 410 1025 q 437 1091 410 1061 q 507 1121 464 1121 q 578 1092 549 1121 q 608 1015 608 1063 q 576 924 608 965 q 494 851 544 882 q 386 806 443 821 z "},"ě":{"ha":782,"x_min":56,"x_max":726,"o":"m 428 -21 q 156 79 256 -21 q 56 357 56 179 q 99 558 56 474 q 220 689 142 643 q 404 735 299 735 q 643 635 560 735 q 726 346 726 535 q 726 322 726 333 q 725 299 726 310 l 253 299 q 451 149 281 149 q 559 162 504 149 q 656 197 614 175 l 688 40 q 428 -21 572 -21 m 251 446 l 539 446 q 497 541 535 506 q 397 576 460 576 q 299 542 338 576 q 251 446 261 507 m 404 806 l 171 989 l 232 1085 l 404 992 l 576 1085 l 638 989 l 404 806 z "},"ê":{"ha":782,"x_min":56,"x_max":726,"o":"m 428 -21 q 156 79 256 -21 q 56 357 56 179 q 99 558 56 474 q 220 689 142 643 q 404 735 299 735 q 643 635 560 735 q 726 346 726 535 q 726 322 726 333 q 725 299 726 310 l 253 299 q 451 149 281 149 q 559 162 504 149 q 656 197 614 175 l 688 40 q 428 -21 572 -21 m 251 446 l 539 446 q 497 541 535 506 q 397 576 460 576 q 299 542 338 576 q 251 446 261 507 m 232 806 l 171 901 l 404 1085 l 638 901 l 576 806 l 404 899 l 232 806 z "},"ë":{"ha":782,"x_min":56,"x_max":726,"o":"m 428 -21 q 156 79 256 -21 q 56 357 56 179 q 99 558 56 474 q 220 689 142 643 q 404 735 299 735 q 643 635 560 735 q 726 346 726 535 q 726 322 726 333 q 725 299 726 310 l 253 299 q 451 149 281 149 q 559 162 504 149 q 656 197 614 175 l 688 40 q 428 -21 572 -21 m 251 446 l 539 446 q 497 541 535 506 q 397 576 460 576 q 299 542 338 576 q 251 446 261 507 m 563 814 q 487 846 519 814 q 454 924 454 878 q 489 1001 454 969 q 567 1033 524 1033 q 643 1001 611 1033 q 675 924 675 969 q 643 846 675 878 q 563 814 611 814 m 242 814 q 165 846 197 814 q 133 924 133 878 q 167 1001 133 969 q 246 1033 201 1033 q 322 1001 290 1033 q 354 924 354 969 q 320 846 354 878 q 242 814 286 814 z "},"ė":{"ha":782,"x_min":56,"x_max":726,"o":"m 428 -21 q 156 79 256 -21 q 56 357 56 179 q 99 558 56 474 q 220 689 142 643 q 404 735 299 735 q 643 635 560 735 q 726 346 726 535 q 726 322 726 333 q 725 299 726 310 l 253 299 q 451 149 281 149 q 559 162 504 149 q 656 197 614 175 l 688 40 q 428 -21 572 -21 m 251 446 l 539 446 q 497 541 535 506 q 397 576 460 576 q 299 542 338 576 q 251 446 261 507 m 403 819 q 328 851 360 819 q 297 925 297 882 q 330 1000 297 969 q 406 1031 363 1031 q 480 1000 449 1031 q 511 925 511 969 q 478 851 511 882 q 403 819 446 819 z "},"è":{"ha":782,"x_min":56,"x_max":726,"o":"m 428 -21 q 156 79 256 -21 q 56 357 56 179 q 99 558 56 474 q 220 689 142 643 q 404 735 299 735 q 643 635 560 735 q 726 346 726 535 q 726 322 726 333 q 725 299 726 310 l 253 299 q 451 149 281 149 q 559 162 504 149 q 656 197 614 175 l 688 40 q 428 -21 572 -21 m 251 446 l 539 446 q 497 541 535 506 q 397 576 460 576 q 299 542 338 576 q 251 446 261 507 m 408 806 q 337 835 367 806 q 307 911 307 864 q 339 1003 307 961 q 422 1075 371 1044 q 529 1121 472 1106 l 554 1067 q 469 975 500 1024 l 506 901 q 478 835 506 865 q 408 806 451 806 z "},"ē":{"ha":782,"x_min":56,"x_max":726,"o":"m 428 -21 q 156 79 256 -21 q 56 357 56 179 q 99 558 56 474 q 220 689 142 643 q 404 735 299 735 q 643 635 560 735 q 726 346 726 535 q 726 322 726 333 q 725 299 726 310 l 253 299 q 451 149 281 149 q 559 162 504 149 q 656 197 614 175 l 688 40 q 428 -21 572 -21 m 251 446 l 539 446 q 497 541 535 506 q 397 576 460 576 q 299 542 338 576 q 251 446 261 507 m 171 831 l 171 954 l 635 954 l 635 831 l 171 831 z "},"ę":{"ha":782,"x_min":56,"x_max":726,"o":"m 428 -21 q 156 79 256 -21 q 56 357 56 179 q 99 558 56 474 q 220 689 142 643 q 404 735 299 735 q 643 635 560 735 q 726 346 726 535 q 726 322 726 333 q 725 299 726 310 l 253 299 q 451 149 281 149 q 559 162 504 149 q 656 197 614 175 l 688 40 q 428 -21 572 -21 m 251 446 l 539 446 q 497 541 535 506 q 397 576 460 576 q 299 542 338 576 q 251 446 261 507 m 464 -306 q 347 -268 389 -306 q 306 -169 306 -231 q 352 -54 306 -100 q 457 10 399 -8 l 583 0 q 475 -53 518 -19 q 432 -129 432 -86 q 454 -175 432 -160 q 507 -190 476 -190 q 588 -167 549 -190 l 581 -274 q 528 -297 560 -289 q 464 -306 497 -306 z "},"f":{"ha":628,"x_min":64,"x_max":607,"o":"m 64 0 l 64 168 l 190 168 l 190 547 l 64 547 l 64 715 l 190 715 l 190 803 q 258 970 190 907 q 435 1033 325 1033 q 607 994 513 1033 l 539 840 q 454 864 492 864 q 386 793 386 864 l 386 715 l 553 715 l 553 547 l 386 547 l 386 168 l 553 168 l 553 0 l 64 0 z "},"g":{"ha":801,"x_min":56,"x_max":714,"o":"m 322 -315 q 209 -308 272 -315 q 81 -283 146 -301 l 118 -111 q 231 -139 175 -128 q 340 -150 286 -150 q 451 -127 413 -150 q 504 -56 489 -104 q 522 71 519 -7 l 518 71 q 315 -21 439 -21 q 124 72 193 -21 q 56 328 56 164 q 158 631 56 526 q 450 735 261 735 q 574 726 507 735 q 711 701 640 717 q 713 486 713 594 q 714 271 714 378 q 714 174 714 222 q 713 76 714 125 q 614 -218 710 -121 q 322 -315 518 -315 m 367 150 q 449 183 411 150 q 518 272 488 215 l 518 551 q 429 564 472 564 q 296 507 340 564 q 251 342 251 450 q 281 201 251 251 q 367 150 311 150 z "},"ğ":{"ha":801,"x_min":56,"x_max":714,"o":"m 322 -315 q 209 -308 272 -315 q 81 -283 146 -301 l 118 -111 q 231 -139 175 -128 q 340 -150 286 -150 q 451 -127 413 -150 q 504 -56 489 -104 q 522 71 519 -7 l 518 71 q 315 -21 439 -21 q 124 72 193 -21 q 56 328 56 164 q 158 631 56 526 q 450 735 261 735 q 574 726 507 735 q 711 701 640 717 q 713 486 713 594 q 714 271 714 378 q 714 174 714 222 q 713 76 714 125 q 614 -218 710 -121 q 322 -315 518 -315 m 367 150 q 449 183 411 150 q 518 272 488 215 l 518 551 q 429 564 472 564 q 296 507 340 564 q 251 342 251 450 q 281 201 251 251 q 367 150 311 150 m 429 808 q 277 862 349 808 q 174 1021 206 915 l 269 1053 q 341 969 299 997 q 429 940 383 940 q 517 969 474 940 q 589 1053 560 997 l 685 1021 q 581 862 653 915 q 429 808 510 808 z "},"ģ":{"ha":801,"x_min":56,"x_max":714,"o":"m 322 -315 q 209 -308 272 -315 q 81 -283 146 -301 l 118 -111 q 231 -139 175 -128 q 340 -150 286 -150 q 451 -127 413 -150 q 504 -56 489 -104 q 522 71 519 -7 l 518 71 q 315 -21 439 -21 q 124 72 193 -21 q 56 328 56 164 q 158 631 56 526 q 450 735 261 735 q 574 726 507 735 q 711 701 640 717 q 713 486 713 594 q 714 271 714 378 q 714 174 714 222 q 713 76 714 125 q 614 -218 710 -121 q 322 -315 518 -315 m 367 150 q 449 183 411 150 q 518 272 488 215 l 518 551 q 429 564 472 564 q 296 507 340 564 q 251 342 251 450 q 281 201 251 251 q 367 150 311 150 m 429 806 q 358 835 388 806 q 328 911 328 864 q 360 1003 328 961 q 442 1075 392 1044 q 550 1121 493 1106 l 575 1067 q 490 975 521 1024 l 526 901 q 499 835 526 865 q 429 806 472 806 z "},"ġ":{"ha":801,"x_min":56,"x_max":714,"o":"m 322 -315 q 209 -308 272 -315 q 81 -283 146 -301 l 118 -111 q 231 -139 175 -128 q 340 -150 286 -150 q 451 -127 413 -150 q 504 -56 489 -104 q 522 71 519 -7 l 518 71 q 315 -21 439 -21 q 124 72 193 -21 q 56 328 56 164 q 158 631 56 526 q 450 735 261 735 q 574 726 507 735 q 711 701 640 717 q 713 486 713 594 q 714 271 714 378 q 714 174 714 222 q 713 76 714 125 q 614 -218 710 -121 q 322 -315 518 -315 m 367 150 q 449 183 411 150 q 518 272 488 215 l 518 551 q 429 564 472 564 q 296 507 340 564 q 251 342 251 450 q 281 201 251 251 q 367 150 311 150 m 428 819 q 353 851 385 819 q 322 925 322 882 q 355 1000 322 969 q 431 1031 388 1031 q 505 1000 474 1031 q 536 925 536 969 q 503 851 536 882 q 428 819 471 819 z "},"h":{"ha":842,"x_min":90,"x_max":758,"o":"m 90 0 l 90 1014 l 286 1014 l 286 611 q 386 706 331 676 q 513 735 442 735 q 693 666 628 735 q 758 475 758 597 l 758 0 l 563 0 l 563 444 q 535 532 563 501 q 460 563 507 563 q 360 526 407 563 q 286 433 314 490 l 286 0 l 90 0 z "},"ħ":{"ha":842,"x_min":-24,"x_max":758,"o":"m 90 0 l 90 807 l -24 807 l -10 925 l 90 925 l 90 1014 l 286 1014 l 286 925 l 488 925 l 474 807 l 286 807 l 286 611 q 386 706 331 676 q 513 735 442 735 q 693 666 628 735 q 758 475 758 597 l 758 0 l 563 0 l 563 444 q 535 532 563 501 q 460 563 507 563 q 360 526 407 563 q 286 433 314 490 l 286 0 l 90 0 z "},"i":{"ha":553,"x_min":65,"x_max":514,"o":"m 174 833 l 174 1014 l 397 1014 l 397 833 l 174 833 m 65 0 l 65 168 l 199 168 l 199 547 l 65 547 l 65 715 l 394 715 l 394 168 l 514 168 l 514 0 l 65 0 z "},"ı":{"ha":553,"x_min":65,"x_max":514,"o":"m 65 0 l 65 168 l 199 168 l 199 547 l 65 547 l 65 715 l 394 715 l 394 168 l 514 168 l 514 0 l 65 0 z "},"í":{"ha":553,"x_min":65,"x_max":514,"o":"m 65 0 l 65 168 l 199 168 l 199 547 l 65 547 l 65 715 l 394 715 l 394 168 l 514 168 l 514 0 l 65 0 m 258 806 l 233 860 q 318 951 288 903 l 282 1025 q 309 1091 282 1061 q 379 1121 336 1121 q 451 1092 421 1121 q 481 1015 481 1063 q 449 924 481 965 q 366 851 417 882 q 258 806 315 821 z "},"î":{"ha":553,"x_min":43,"x_max":514,"o":"m 65 0 l 65 168 l 199 168 l 199 547 l 65 547 l 65 715 l 394 715 l 394 168 l 514 168 l 514 0 l 65 0 m 104 806 l 43 901 l 276 1085 l 510 901 l 449 806 l 276 899 l 104 806 z "},"ï":{"ha":553,"x_min":6,"x_max":547,"o":"m 65 0 l 65 168 l 199 168 l 199 547 l 65 547 l 65 715 l 394 715 l 394 168 l 514 168 l 514 0 l 65 0 m 435 814 q 359 846 392 814 q 326 924 326 878 q 361 1001 326 969 q 439 1033 396 1033 q 515 1001 483 1033 q 547 924 547 969 q 515 846 547 878 q 435 814 483 814 m 114 814 q 38 846 69 814 q 6 924 6 878 q 40 1001 6 969 q 118 1033 74 1033 q 194 1001 163 1033 q 226 924 226 969 q 192 846 226 878 q 114 814 158 814 z "},"ì":{"ha":553,"x_min":65,"x_max":514,"o":"m 65 0 l 65 168 l 199 168 l 199 547 l 65 547 l 65 715 l 394 715 l 394 168 l 514 168 l 514 0 l 65 0 m 281 806 q 209 835 239 806 q 179 911 179 864 q 211 1003 179 961 q 294 1075 243 1044 q 401 1121 344 1106 l 426 1067 q 342 975 372 1024 l 378 901 q 351 835 378 865 q 281 806 324 806 z "},"ī":{"ha":553,"x_min":43,"x_max":514,"o":"m 65 0 l 65 168 l 199 168 l 199 547 l 65 547 l 65 715 l 394 715 l 394 168 l 514 168 l 514 0 l 65 0 m 43 831 l 43 954 l 507 954 l 507 831 l 43 831 z "},"į":{"ha":553,"x_min":65,"x_max":518,"o":"m 65 0 l 65 168 l 199 168 l 199 547 l 65 547 l 65 715 l 394 715 l 394 168 l 514 168 l 514 0 l 65 0 m 275 819 q 201 851 232 819 q 169 925 169 882 q 202 1000 169 969 q 278 1031 235 1031 q 352 1000 321 1031 q 383 925 383 969 q 351 851 383 882 q 275 819 318 819 m 394 -306 q 278 -268 319 -306 q 236 -169 236 -231 q 283 -54 236 -100 q 388 10 329 -8 l 514 0 q 406 -53 449 -19 q 363 -129 363 -86 q 385 -175 363 -160 q 438 -190 407 -190 q 518 -167 479 -190 l 511 -274 q 459 -297 490 -289 q 394 -306 428 -306 z "},"ĳ":{"ha":974,"x_min":65,"x_max":889,"o":"m 174 833 l 174 1014 l 397 1014 l 397 833 l 174 833 m 65 0 l 65 168 l 199 168 l 199 547 l 65 547 l 65 715 l 394 715 l 394 168 l 514 168 l 514 0 l 65 0 m 665 833 l 665 1014 l 889 1014 l 889 833 l 665 833 m 632 -324 q 493 -296 561 -324 l 544 -133 q 608 -149 578 -149 q 679 -62 679 -149 l 679 715 l 875 715 l 875 -78 q 809 -258 875 -192 q 632 -324 743 -324 z "},"j":{"ha":421,"x_min":-60,"x_max":336,"o":"m 113 833 l 113 1014 l 336 1014 l 336 833 l 113 833 m 79 -324 q -60 -296 8 -324 l -8 -133 q 56 -149 25 -149 q 126 -62 126 -149 l 126 715 l 322 715 l 322 -78 q 256 -258 322 -192 q 79 -324 190 -324 z "},"ȷ":{"ha":407,"x_min":-60,"x_max":322,"o":"m 79 -324 q -60 -296 8 -324 l -8 -133 q 56 -149 25 -149 q 126 -62 126 -149 l 126 715 l 322 715 l 322 -78 q 256 -258 322 -192 q 79 -324 190 -324 z "},"k":{"ha":757,"x_min":90,"x_max":757,"o":"m 544 -21 l 286 311 l 286 0 l 90 0 l 90 1015 l 286 1015 l 286 454 l 510 715 l 742 715 l 456 394 l 757 8 l 544 -21 z "},"ķ":{"ha":757,"x_min":90,"x_max":757,"o":"m 544 -21 l 286 311 l 286 0 l 90 0 l 90 1015 l 286 1015 l 286 454 l 510 715 l 742 715 l 456 394 l 757 8 l 544 -21 m 307 -453 l 283 -368 q 319 -317 303 -343 q 343 -269 335 -292 l 286 -185 q 313 -121 286 -151 q 385 -90 340 -90 q 456 -119 426 -90 q 486 -196 486 -149 q 447 -312 486 -243 q 307 -453 407 -382 z "},"l":{"ha":546,"x_min":58,"x_max":507,"o":"m 58 0 l 58 168 l 185 168 l 185 847 l 65 847 l 65 1014 l 381 1014 l 381 168 l 507 168 l 507 0 l 58 0 z "},"ĺ":{"ha":546,"x_min":58,"x_max":507,"o":"m 242 1104 l 217 1158 q 301 1250 271 1201 l 265 1324 q 292 1390 265 1360 q 363 1419 319 1419 q 434 1390 404 1419 q 464 1314 464 1361 q 432 1222 464 1264 q 349 1150 400 1181 q 242 1104 299 1119 m 58 0 l 58 168 l 185 168 l 185 847 l 65 847 l 65 1014 l 381 1014 l 381 168 l 507 168 l 507 0 l 58 0 z "},"ľ":{"ha":546,"x_min":58,"x_max":682,"o":"m 58 0 l 58 168 l 185 168 l 185 847 l 65 847 l 65 1014 l 381 1014 l 381 168 l 507 168 l 507 0 l 58 0 m 506 786 l 469 835 q 533 942 513 886 l 481 1008 q 503 1088 476 1054 q 581 1122 533 1122 q 651 1092 621 1122 q 682 1008 682 1061 q 658 923 682 965 q 593 846 633 881 q 506 786 553 811 z "},"ļ":{"ha":546,"x_min":58,"x_max":507,"o":"m 58 0 l 58 168 l 185 168 l 185 847 l 65 847 l 65 1014 l 381 1014 l 381 168 l 507 168 l 507 0 l 58 0 m 194 -453 l 171 -368 q 206 -317 190 -343 q 231 -269 222 -292 l 174 -185 q 201 -121 174 -151 q 272 -90 228 -90 q 344 -119 314 -90 q 374 -196 374 -149 q 334 -312 374 -243 q 194 -453 294 -382 z "},"ł":{"ha":546,"x_min":58,"x_max":507,"o":"m 58 0 l 58 168 l 185 168 l 185 382 l 86 308 l 60 443 l 185 536 l 185 847 l 65 847 l 65 1014 l 381 1014 l 381 683 l 461 743 l 488 608 l 381 528 l 381 168 l 507 168 l 507 0 l 58 0 z "},"m":{"ha":1310,"x_min":90,"x_max":1226,"o":"m 90 0 l 90 715 l 282 715 l 282 604 q 511 735 367 735 q 651 696 593 735 q 735 588 708 657 q 844 699 783 664 q 982 735 904 735 q 1162 666 1097 735 q 1226 475 1226 597 l 1226 0 l 1031 0 l 1031 444 q 1003 532 1031 501 q 931 563 976 563 q 824 515 872 563 q 753 394 776 468 l 753 0 l 557 0 l 557 444 q 529 531 557 500 q 456 563 501 563 q 360 524 406 563 q 286 417 314 486 l 286 0 l 90 0 z "},"n":{"ha":850,"x_min":90,"x_max":767,"o":"m 90 0 l 90 715 l 282 715 l 282 592 q 385 701 326 667 q 521 735 444 735 q 701 666 636 735 q 767 475 767 597 l 767 0 l 571 0 l 571 444 q 543 532 571 501 q 468 563 515 563 q 362 520 411 563 q 286 415 313 478 l 286 0 l 90 0 z "},"ń":{"ha":850,"x_min":90,"x_max":767,"o":"m 90 0 l 90 715 l 282 715 l 282 592 q 385 701 326 667 q 521 735 444 735 q 701 666 636 735 q 767 475 767 597 l 767 0 l 571 0 l 571 444 q 543 532 571 501 q 468 563 515 563 q 362 520 411 563 q 286 415 313 478 l 286 0 l 90 0 m 407 806 l 382 860 q 467 951 436 903 l 431 1025 q 458 1091 431 1061 q 528 1121 485 1121 q 599 1092 569 1121 q 629 1015 629 1063 q 597 924 629 965 q 515 851 565 882 q 407 806 464 821 z "},"ň":{"ha":850,"x_min":90,"x_max":767,"o":"m 90 0 l 90 715 l 282 715 l 282 592 q 385 701 326 667 q 521 735 444 735 q 701 666 636 735 q 767 475 767 597 l 767 0 l 571 0 l 571 444 q 543 532 571 501 q 468 563 515 563 q 362 520 411 563 q 286 415 313 478 l 286 0 l 90 0 m 425 806 l 192 989 l 253 1085 l 425 992 l 597 1085 l 658 989 l 425 806 z "},"ņ":{"ha":850,"x_min":90,"x_max":767,"o":"m 90 0 l 90 715 l 282 715 l 282 592 q 385 701 326 667 q 521 735 444 735 q 701 666 636 735 q 767 475 767 597 l 767 0 l 571 0 l 571 444 q 543 532 571 501 q 468 563 515 563 q 362 520 411 563 q 286 415 313 478 l 286 0 l 90 0 m 346 -453 l 322 -368 q 358 -317 342 -343 q 382 -269 374 -292 l 325 -185 q 352 -121 325 -151 q 424 -90 379 -90 q 495 -119 465 -90 q 525 -196 525 -149 q 485 -312 525 -243 q 346 -453 446 -382 z "},"ñ":{"ha":850,"x_min":90,"x_max":767,"o":"m 90 0 l 90 715 l 282 715 l 282 592 q 385 701 326 667 q 521 735 444 735 q 701 666 636 735 q 767 475 767 597 l 767 0 l 571 0 l 571 444 q 543 532 571 501 q 468 563 515 563 q 362 520 411 563 q 286 415 313 478 l 286 0 l 90 0 m 531 807 q 442 828 481 807 q 369 872 403 850 q 306 894 336 894 q 265 876 283 894 q 228 810 246 857 l 153 867 q 222 997 176 957 q 325 1038 268 1038 q 414 1015 375 1038 q 486 972 453 993 q 550 950 519 950 q 591 969 572 950 q 628 1035 610 988 l 703 978 q 634 848 681 889 q 531 807 588 807 z "},"ŋ":{"ha":851,"x_min":90,"x_max":767,"o":"m 524 -324 q 385 -296 453 -324 l 436 -133 q 500 -149 469 -149 q 571 -62 571 -149 l 571 444 q 543 532 571 501 q 468 563 515 563 q 362 520 411 563 q 286 415 313 478 l 286 0 l 90 0 l 90 715 l 282 715 l 282 592 q 385 701 326 667 q 521 735 444 735 q 701 666 636 735 q 767 475 767 597 l 767 -78 q 701 -258 767 -192 q 524 -324 635 -324 z "},"o":{"ha":839,"x_min":56,"x_max":783,"o":"m 421 -21 q 229 26 311 -21 q 101 158 147 74 q 56 357 56 243 q 101 556 56 471 q 229 688 147 640 q 419 735 311 735 q 610 688 529 735 q 738 558 692 642 q 783 361 783 474 q 738 161 783 247 q 611 27 693 75 q 421 -21 529 -21 m 419 149 q 540 206 494 149 q 585 358 585 264 q 540 509 585 453 q 419 565 494 565 q 299 509 344 565 q 254 358 254 453 q 299 206 254 264 q 419 149 344 149 z "},"ó":{"ha":839,"x_min":56,"x_max":783,"o":"m 421 -21 q 229 26 311 -21 q 101 158 147 74 q 56 357 56 243 q 101 556 56 471 q 229 688 147 640 q 419 735 311 735 q 610 688 529 735 q 738 558 692 642 q 783 361 783 474 q 738 161 783 247 q 611 27 693 75 q 421 -21 529 -21 m 419 149 q 540 206 494 149 q 585 358 585 264 q 540 509 585 453 q 419 565 494 565 q 299 509 344 565 q 254 358 254 453 q 299 206 254 264 q 419 149 344 149 m 401 806 l 376 860 q 461 951 431 903 l 425 1025 q 452 1091 425 1061 q 522 1121 479 1121 q 594 1092 564 1121 q 624 1015 624 1063 q 592 924 624 965 q 509 851 560 882 q 401 806 458 821 z "},"ô":{"ha":839,"x_min":56,"x_max":783,"o":"m 421 -21 q 229 26 311 -21 q 101 158 147 74 q 56 357 56 243 q 101 556 56 471 q 229 688 147 640 q 419 735 311 735 q 610 688 529 735 q 738 558 692 642 q 783 361 783 474 q 738 161 783 247 q 611 27 693 75 q 421 -21 529 -21 m 419 149 q 540 206 494 149 q 585 358 585 264 q 540 509 585 453 q 419 565 494 565 q 299 509 344 565 q 254 358 254 453 q 299 206 254 264 q 419 149 344 149 m 247 806 l 186 901 l 419 1085 l 653 901 l 592 806 l 419 899 l 247 806 z "},"ö":{"ha":839,"x_min":56,"x_max":783,"o":"m 421 -21 q 229 26 311 -21 q 101 158 147 74 q 56 357 56 243 q 101 556 56 471 q 229 688 147 640 q 419 735 311 735 q 610 688 529 735 q 738 558 692 642 q 783 361 783 474 q 738 161 783 247 q 611 27 693 75 q 421 -21 529 -21 m 419 149 q 540 206 494 149 q 585 358 585 264 q 540 509 585 453 q 419 565 494 565 q 299 509 344 565 q 254 358 254 453 q 299 206 254 264 q 419 149 344 149 m 578 814 q 502 846 535 814 q 469 924 469 878 q 504 1001 469 969 q 582 1033 539 1033 q 658 1001 626 1033 q 690 924 690 969 q 658 846 690 878 q 578 814 626 814 m 257 814 q 181 846 213 814 q 149 924 149 878 q 183 1001 149 969 q 261 1033 217 1033 q 338 1001 306 1033 q 369 924 369 969 q 335 846 369 878 q 257 814 301 814 z "},"ò":{"ha":839,"x_min":56,"x_max":783,"o":"m 421 -21 q 229 26 311 -21 q 101 158 147 74 q 56 357 56 243 q 101 556 56 471 q 229 688 147 640 q 419 735 311 735 q 610 688 529 735 q 738 558 692 642 q 783 361 783 474 q 738 161 783 247 q 611 27 693 75 q 421 -21 529 -21 m 419 149 q 540 206 494 149 q 585 358 585 264 q 540 509 585 453 q 419 565 494 565 q 299 509 344 565 q 254 358 254 453 q 299 206 254 264 q 419 149 344 149 m 424 806 q 352 835 382 806 q 322 911 322 864 q 354 1003 322 961 q 437 1075 386 1044 q 544 1121 488 1106 l 569 1067 q 485 975 515 1024 l 521 901 q 494 835 521 865 q 424 806 467 806 z "},"ő":{"ha":839,"x_min":56,"x_max":783,"o":"m 421 -21 q 229 26 311 -21 q 101 158 147 74 q 56 357 56 243 q 101 556 56 471 q 229 688 147 640 q 419 735 311 735 q 610 688 529 735 q 738 558 692 642 q 783 361 783 474 q 738 161 783 247 q 611 27 693 75 q 421 -21 529 -21 m 419 149 q 540 206 494 149 q 585 358 585 264 q 540 509 585 453 q 419 565 494 565 q 299 509 344 565 q 254 358 254 453 q 299 206 254 264 q 419 149 344 149 m 478 806 l 453 860 q 538 951 507 903 l 501 1025 q 528 1091 501 1061 q 599 1121 556 1121 q 670 1092 640 1121 q 700 1015 700 1063 q 668 924 700 965 q 585 851 636 882 q 478 806 535 821 m 214 806 l 189 860 q 274 951 243 903 l 238 1025 q 265 1091 238 1061 q 335 1121 292 1121 q 406 1092 376 1121 q 436 1015 436 1063 q 404 924 436 965 q 322 851 372 882 q 214 806 271 821 z "},"ō":{"ha":839,"x_min":56,"x_max":783,"o":"m 421 -21 q 229 26 311 -21 q 101 158 147 74 q 56 357 56 243 q 101 556 56 471 q 229 688 147 640 q 419 735 311 735 q 610 688 529 735 q 738 558 692 642 q 783 361 783 474 q 738 161 783 247 q 611 27 693 75 q 421 -21 529 -21 m 419 149 q 540 206 494 149 q 585 358 585 264 q 540 509 585 453 q 419 565 494 565 q 299 509 344 565 q 254 358 254 453 q 299 206 254 264 q 419 149 344 149 m 186 831 l 186 954 l 650 954 l 650 831 l 186 831 z "},"ø":{"ha":843,"x_min":56,"x_max":783,"o":"m 103 -57 l 69 93 l 114 138 q 56 357 56 231 q 101 556 56 471 q 229 688 147 640 q 419 735 311 735 q 639 669 547 735 l 742 774 l 775 624 l 728 575 q 783 361 783 485 q 738 161 783 247 q 611 27 693 75 q 421 -21 529 -21 q 201 43 293 -21 l 103 -57 m 254 358 q 263 288 254 321 l 508 538 q 419 565 471 565 q 299 509 344 565 q 254 358 254 453 m 419 149 q 540 206 494 149 q 585 358 585 264 q 578 424 585 393 l 332 175 q 419 149 369 149 z "},"õ":{"ha":839,"x_min":56,"x_max":783,"o":"m 421 -21 q 229 26 311 -21 q 101 158 147 74 q 56 357 56 243 q 101 556 56 471 q 229 688 147 640 q 419 735 311 735 q 610 688 529 735 q 738 558 692 642 q 783 361 783 474 q 738 161 783 247 q 611 27 693 75 q 421 -21 529 -21 m 419 149 q 540 206 494 149 q 585 358 585 264 q 540 509 585 453 q 419 565 494 565 q 299 509 344 565 q 254 358 254 453 q 299 206 254 264 q 419 149 344 149 m 525 807 q 436 828 475 807 q 364 872 397 850 q 300 894 331 894 q 259 876 278 894 q 222 810 240 857 l 147 867 q 217 997 171 957 q 319 1038 263 1038 q 408 1015 369 1038 q 481 972 447 993 q 544 950 514 950 q 585 969 567 950 q 622 1035 604 988 l 697 978 q 628 848 675 889 q 525 807 582 807 z "},"œ":{"ha":1254,"x_min":56,"x_max":1199,"o":"m 421 -21 q 229 26 311 -21 q 101 158 147 74 q 56 357 56 243 q 101 556 56 471 q 229 688 147 640 q 419 735 311 735 q 547 716 489 735 q 651 661 606 697 q 752 716 696 697 q 876 735 808 735 q 1115 635 1032 735 q 1199 346 1199 535 q 1199 322 1199 333 q 1197 299 1199 310 l 725 299 q 924 149 753 149 q 1031 162 976 149 q 1128 197 1086 175 l 1160 40 q 900 -21 1044 -21 q 761 -1 824 -21 q 651 57 699 19 q 421 -21 558 -21 m 724 446 l 1011 446 q 969 541 1007 506 q 869 576 932 576 q 772 542 810 576 q 724 446 733 507 m 419 149 q 547 217 501 149 q 528 357 528 282 q 547 499 528 432 q 492 548 525 531 q 419 565 460 565 q 299 509 344 565 q 254 358 254 453 q 299 206 254 264 q 419 149 344 149 z "},"p":{"ha":801,"x_min":90,"x_max":747,"o":"m 90 -303 l 90 715 l 281 715 l 276 622 l 282 622 q 489 736 356 736 q 678 644 608 736 q 747 386 747 551 q 645 85 747 189 q 354 -19 543 -19 q 319 -19 336 -19 q 283 -17 301 -18 l 283 -303 l 90 -303 m 374 151 q 506 208 461 151 q 551 375 551 265 q 523 515 551 465 q 444 565 494 565 q 359 527 401 565 q 283 418 317 489 l 283 164 q 374 151 332 151 z "},"þ":{"ha":803,"x_min":90,"x_max":747,"o":"m 90 -303 l 90 1014 l 279 1014 l 279 622 l 282 622 q 489 736 356 736 q 678 644 608 736 q 747 386 747 551 q 645 85 747 189 q 354 -19 543 -19 q 319 -19 336 -19 q 283 -17 301 -18 l 283 -303 l 90 -303 m 374 151 q 506 208 461 151 q 551 375 551 265 q 523 515 551 465 q 444 565 494 565 q 359 527 401 565 q 283 418 317 489 l 283 164 q 374 151 332 151 z "},"q":{"ha":801,"x_min":56,"x_max":711,"o":"m 518 -303 l 518 71 q 315 -21 439 -21 q 124 72 193 -21 q 56 328 56 164 q 158 631 56 526 q 450 735 260 735 q 571 726 503 735 q 711 703 639 718 l 711 -303 l 518 -303 m 367 150 q 449 183 411 150 q 518 272 488 215 l 518 551 q 429 564 472 564 q 296 507 340 564 q 251 342 251 450 q 281 201 251 251 q 367 150 311 150 z "},"r":{"ha":554,"x_min":94,"x_max":522,"o":"m 94 0 l 94 715 l 290 715 l 290 599 l 301 599 q 377 699 338 663 q 481 736 417 736 q 522 731 506 736 l 501 519 q 472 526 486 524 q 443 529 458 529 q 361 499 392 529 q 290 419 331 469 l 290 0 l 94 0 z "},"ŕ":{"ha":554,"x_min":94,"x_max":522,"o":"m 94 0 l 94 715 l 290 715 l 290 599 l 301 599 q 377 699 338 663 q 481 736 417 736 q 522 731 506 736 l 501 519 q 472 526 486 524 q 443 529 458 529 q 361 499 392 529 q 290 419 331 469 l 290 0 l 94 0 m 260 806 l 235 860 q 319 951 289 903 l 283 1025 q 310 1091 283 1061 q 381 1121 338 1121 q 452 1092 422 1121 q 482 1015 482 1063 q 450 924 482 965 q 367 851 418 882 q 260 806 317 821 z "},"ř":{"ha":554,"x_min":44,"x_max":522,"o":"m 94 0 l 94 715 l 290 715 l 290 599 l 301 599 q 377 699 338 663 q 481 736 417 736 q 522 731 506 736 l 501 519 q 472 526 486 524 q 443 529 458 529 q 361 499 392 529 q 290 419 331 469 l 290 0 l 94 0 m 278 806 l 44 989 l 106 1085 l 278 992 l 450 1085 l 511 989 l 278 806 z "},"ŗ":{"ha":554,"x_min":86,"x_max":522,"o":"m 94 0 l 94 715 l 290 715 l 290 599 l 301 599 q 377 699 338 663 q 481 736 417 736 q 522 731 506 736 l 501 519 q 472 526 486 524 q 443 529 458 529 q 361 499 392 529 q 290 419 331 469 l 290 0 l 94 0 m 110 -453 l 86 -368 q 122 -317 106 -343 q 146 -269 138 -292 l 89 -185 q 116 -121 89 -151 q 188 -90 143 -90 q 259 -119 229 -90 q 289 -196 289 -149 q 249 -312 289 -243 q 110 -453 210 -382 z "},"s":{"ha":651,"x_min":58,"x_max":596,"o":"m 297 -21 q 166 -7 229 -21 q 58 31 103 7 l 76 197 q 181 150 124 168 q 288 132 238 132 q 365 149 332 132 q 399 200 399 165 q 363 249 399 233 q 254 292 328 264 q 192 317 226 303 q 128 353 158 331 q 78 413 97 376 q 58 506 58 450 q 97 631 58 581 q 201 708 135 682 q 351 735 268 735 q 463 724 408 735 q 568 694 518 713 l 542 529 q 451 567 501 553 q 356 582 400 582 q 284 567 313 582 q 256 522 256 553 q 275 483 256 497 q 328 458 294 468 q 401 431 361 447 q 487 392 442 415 q 564 325 532 368 q 596 207 596 282 q 556 77 596 128 q 449 3 517 26 q 297 -21 382 -21 z "},"ś":{"ha":651,"x_min":58,"x_max":596,"o":"m 297 -21 q 166 -7 229 -21 q 58 31 103 7 l 76 197 q 181 150 124 168 q 288 132 238 132 q 365 149 332 132 q 399 200 399 165 q 363 249 399 233 q 254 292 328 264 q 192 317 226 303 q 128 353 158 331 q 78 413 97 376 q 58 506 58 450 q 97 631 58 581 q 201 708 135 682 q 351 735 268 735 q 463 724 408 735 q 568 694 518 713 l 542 529 q 451 567 501 553 q 356 582 400 582 q 284 567 313 582 q 256 522 256 553 q 275 483 256 497 q 328 458 294 468 q 401 431 361 447 q 487 392 442 415 q 564 325 532 368 q 596 207 596 282 q 556 77 596 128 q 449 3 517 26 q 297 -21 382 -21 m 306 806 l 281 860 q 365 951 335 903 l 329 1025 q 356 1091 329 1061 q 426 1121 383 1121 q 498 1092 468 1121 q 528 1015 528 1063 q 496 924 528 965 q 413 851 464 882 q 306 806 363 821 z "},"š":{"ha":651,"x_min":58,"x_max":596,"o":"m 297 -21 q 166 -7 229 -21 q 58 31 103 7 l 76 197 q 181 150 124 168 q 288 132 238 132 q 365 149 332 132 q 399 200 399 165 q 363 249 399 233 q 254 292 328 264 q 192 317 226 303 q 128 353 158 331 q 78 413 97 376 q 58 506 58 450 q 97 631 58 581 q 201 708 135 682 q 351 735 268 735 q 463 724 408 735 q 568 694 518 713 l 542 529 q 451 567 501 553 q 356 582 400 582 q 284 567 313 582 q 256 522 256 553 q 275 483 256 497 q 328 458 294 468 q 401 431 361 447 q 487 392 442 415 q 564 325 532 368 q 596 207 596 282 q 556 77 596 128 q 449 3 517 26 q 297 -21 382 -21 m 324 806 l 90 989 l 151 1085 l 324 992 l 496 1085 l 557 989 l 324 806 z "},"ş":{"ha":651,"x_min":58,"x_max":596,"o":"m 297 -21 q 166 -7 229 -21 q 58 31 103 7 l 76 197 q 181 150 124 168 q 288 132 238 132 q 365 149 332 132 q 399 200 399 165 q 363 249 399 233 q 254 292 328 264 q 192 317 226 303 q 128 353 158 331 q 78 413 97 376 q 58 506 58 450 q 97 631 58 581 q 201 708 135 682 q 351 735 268 735 q 463 724 408 735 q 568 694 518 713 l 542 529 q 451 567 501 553 q 356 582 400 582 q 284 567 313 582 q 256 522 256 553 q 275 483 256 497 q 328 458 294 468 q 401 431 361 447 q 487 392 442 415 q 564 325 532 368 q 596 207 596 282 q 556 77 596 128 q 449 3 517 26 q 297 -21 382 -21 m 325 -337 q 226 -320 275 -337 q 146 -275 178 -303 l 188 -215 q 249 -247 217 -235 q 307 -260 281 -260 q 343 -249 329 -260 q 357 -217 357 -239 q 323 -181 357 -189 q 253 -175 289 -174 l 224 -156 l 288 31 l 388 24 l 343 -78 q 449 -122 408 -87 q 490 -210 490 -156 q 440 -302 490 -267 q 325 -337 390 -337 z "},"ș":{"ha":651,"x_min":58,"x_max":596,"o":"m 297 -21 q 166 -7 229 -21 q 58 31 103 7 l 76 197 q 181 150 124 168 q 288 132 238 132 q 365 149 332 132 q 399 200 399 165 q 363 249 399 233 q 254 292 328 264 q 192 317 226 303 q 128 353 158 331 q 78 413 97 376 q 58 506 58 450 q 97 631 58 581 q 201 708 135 682 q 351 735 268 735 q 463 724 408 735 q 568 694 518 713 l 542 529 q 451 567 501 553 q 356 582 400 582 q 284 567 313 582 q 256 522 256 553 q 275 483 256 497 q 328 458 294 468 q 401 431 361 447 q 487 392 442 415 q 564 325 532 368 q 596 207 596 282 q 556 77 596 128 q 449 3 517 26 q 297 -21 382 -21 m 244 -453 l 221 -368 q 256 -317 240 -343 q 281 -269 272 -292 l 224 -185 q 251 -121 224 -151 q 322 -90 278 -90 q 394 -119 364 -90 q 424 -196 424 -149 q 384 -312 424 -243 q 244 -453 344 -382 z "},"ß":{"ha":806,"x_min":90,"x_max":771,"o":"m 90 -303 l 90 694 q 130 876 90 799 q 242 994 169 953 q 415 1036 315 1036 q 558 1009 494 1036 q 658 931 621 982 q 694 807 694 879 q 672 704 694 747 q 620 631 650 661 q 568 577 590 600 q 546 535 546 554 q 569 496 546 515 q 625 453 592 476 q 692 397 658 429 q 748 319 725 364 q 771 211 771 274 q 703 44 771 107 q 529 -18 636 -18 q 445 -8 489 -18 q 356 19 401 1 l 424 171 q 508 147 468 147 q 557 163 540 147 q 574 204 574 178 q 554 256 574 233 q 506 301 535 279 q 449 348 478 322 q 400 408 419 374 q 381 490 381 442 q 398 577 381 536 q 439 655 415 618 q 480 725 463 692 q 497 792 497 758 q 476 848 497 825 q 410 871 454 871 q 320 831 354 871 q 286 725 286 792 l 286 -303 l 90 -303 z "},"t":{"ha":585,"x_min":32,"x_max":536,"o":"m 353 -21 q 198 30 253 -21 q 143 174 143 81 l 143 547 l 32 547 l 32 715 l 143 715 l 143 868 q 338 893 243 885 l 338 715 l 518 715 l 518 547 l 338 547 l 338 210 q 404 150 338 150 q 493 168 443 150 l 536 21 q 353 -21 447 -21 z "},"ŧ":{"ha":585,"x_min":14,"x_max":536,"o":"m 14 310 l 28 428 l 143 428 l 143 547 l 32 547 l 32 715 l 143 715 l 143 868 q 338 893 243 885 l 338 715 l 518 715 l 518 547 l 338 547 l 338 428 l 525 428 l 511 310 l 338 310 l 338 210 q 404 150 338 150 q 493 168 443 150 l 536 21 q 353 -21 447 -21 q 198 30 253 -21 q 143 174 143 81 l 143 310 l 14 310 z "},"ť":{"ha":585,"x_min":32,"x_max":704,"o":"m 353 -21 q 198 30 253 -21 q 143 174 143 81 l 143 547 l 32 547 l 32 715 l 143 715 l 143 868 q 338 893 243 885 l 338 715 l 518 715 l 518 547 l 338 547 l 338 210 q 404 150 338 150 q 493 168 443 150 l 536 21 q 353 -21 447 -21 m 528 785 l 492 833 q 556 940 535 885 l 503 1007 q 525 1086 499 1053 q 603 1121 556 1121 q 674 1090 643 1121 q 704 1007 704 1060 q 680 922 704 964 q 615 844 656 879 q 528 785 575 810 z "},"ţ":{"ha":585,"x_min":32,"x_max":536,"o":"m 353 -21 q 198 30 253 -21 q 143 174 143 81 l 143 547 l 32 547 l 32 715 l 143 715 l 143 868 q 338 893 243 885 l 338 715 l 518 715 l 518 547 l 338 547 l 338 210 q 404 150 338 150 q 493 168 443 150 l 536 21 q 353 -21 447 -21 m 336 -337 q 238 -320 286 -337 q 157 -275 189 -303 l 199 -215 q 260 -247 228 -235 q 318 -260 292 -260 q 354 -249 340 -260 q 368 -217 368 -239 q 334 -181 368 -189 q 264 -175 300 -174 l 235 -156 l 299 31 l 399 24 l 354 -78 q 460 -122 419 -87 q 501 -210 501 -156 q 451 -302 501 -267 q 336 -337 401 -337 z "},"ț":{"ha":585,"x_min":32,"x_max":536,"o":"m 353 -21 q 198 30 253 -21 q 143 174 143 81 l 143 547 l 32 547 l 32 715 l 143 715 l 143 868 q 338 893 243 885 l 338 715 l 518 715 l 518 547 l 338 547 l 338 210 q 404 150 338 150 q 493 168 443 150 l 536 21 q 353 -21 447 -21 m 256 -453 l 232 -368 q 267 -317 251 -343 q 292 -269 283 -292 l 235 -185 q 262 -121 235 -151 q 333 -90 289 -90 q 405 -119 375 -90 q 435 -196 435 -149 q 395 -312 435 -243 q 256 -453 356 -382 z "},"u":{"ha":832,"x_min":83,"x_max":742,"o":"m 328 -19 q 149 51 214 -19 q 83 240 83 121 l 83 715 l 279 715 l 279 272 q 307 184 279 215 q 382 153 335 153 q 474 183 431 153 q 546 265 517 214 l 546 715 l 742 715 l 742 0 l 546 0 l 546 94 q 458 13 510 46 q 328 -19 407 -19 z "},"ú":{"ha":832,"x_min":83,"x_max":742,"o":"m 328 -19 q 149 51 214 -19 q 83 240 83 121 l 83 715 l 279 715 l 279 272 q 307 184 279 215 q 382 153 335 153 q 474 183 431 153 q 546 265 517 214 l 546 715 l 742 715 l 742 0 l 546 0 l 546 94 q 458 13 510 46 q 328 -19 407 -19 m 399 806 l 374 860 q 458 951 428 903 l 422 1025 q 449 1091 422 1061 q 519 1121 476 1121 q 591 1092 561 1121 q 621 1015 621 1063 q 589 924 621 965 q 506 851 557 882 q 399 806 456 821 z "},"ŭ":{"ha":832,"x_min":83,"x_max":742,"o":"m 328 -19 q 149 51 214 -19 q 83 240 83 121 l 83 715 l 279 715 l 279 272 q 307 184 279 215 q 382 153 335 153 q 474 183 431 153 q 546 265 517 214 l 546 715 l 742 715 l 742 0 l 546 0 l 546 94 q 458 13 510 46 q 328 -19 407 -19 m 417 808 q 265 862 336 808 q 161 1021 193 915 l 257 1053 q 328 969 286 997 q 417 940 371 940 q 504 969 461 940 q 576 1053 547 997 l 672 1021 q 569 862 640 915 q 417 808 497 808 z "},"û":{"ha":832,"x_min":83,"x_max":742,"o":"m 328 -19 q 149 51 214 -19 q 83 240 83 121 l 83 715 l 279 715 l 279 272 q 307 184 279 215 q 382 153 335 153 q 474 183 431 153 q 546 265 517 214 l 546 715 l 742 715 l 742 0 l 546 0 l 546 94 q 458 13 510 46 q 328 -19 407 -19 m 244 806 l 183 901 l 417 1085 l 650 901 l 589 806 l 417 899 l 244 806 z "},"ü":{"ha":832,"x_min":83,"x_max":742,"o":"m 328 -19 q 149 51 214 -19 q 83 240 83 121 l 83 715 l 279 715 l 279 272 q 307 184 279 215 q 382 153 335 153 q 474 183 431 153 q 546 265 517 214 l 546 715 l 742 715 l 742 0 l 546 0 l 546 94 q 458 13 510 46 q 328 -19 407 -19 m 575 814 q 499 846 532 814 q 467 924 467 878 q 501 1001 467 969 q 579 1033 536 1033 q 656 1001 624 1033 q 688 924 688 969 q 656 846 688 878 q 575 814 624 814 m 254 814 q 178 846 210 814 q 146 924 146 878 q 180 1001 146 969 q 258 1033 214 1033 q 335 1001 303 1033 q 367 924 367 969 q 333 846 367 878 q 254 814 299 814 z "},"ù":{"ha":832,"x_min":83,"x_max":742,"o":"m 328 -19 q 149 51 214 -19 q 83 240 83 121 l 83 715 l 279 715 l 279 272 q 307 184 279 215 q 382 153 335 153 q 474 183 431 153 q 546 265 517 214 l 546 715 l 742 715 l 742 0 l 546 0 l 546 94 q 458 13 510 46 q 328 -19 407 -19 m 421 806 q 349 835 379 806 q 319 911 319 864 q 351 1003 319 961 q 434 1075 383 1044 q 542 1121 485 1106 l 567 1067 q 482 975 513 1024 l 518 901 q 491 835 518 865 q 421 806 464 806 z "},"ű":{"ha":832,"x_min":83,"x_max":742,"o":"m 328 -19 q 149 51 214 -19 q 83 240 83 121 l 83 715 l 279 715 l 279 272 q 307 184 279 215 q 382 153 335 153 q 474 183 431 153 q 546 265 517 214 l 546 715 l 742 715 l 742 0 l 546 0 l 546 94 q 458 13 510 46 q 328 -19 407 -19 m 475 806 l 450 860 q 535 951 504 903 l 499 1025 q 526 1091 499 1061 q 596 1121 553 1121 q 667 1092 638 1121 q 697 1015 697 1063 q 665 924 697 965 q 583 851 633 882 q 475 806 532 821 m 211 806 l 186 860 q 271 951 240 903 l 235 1025 q 262 1091 235 1061 q 332 1121 289 1121 q 403 1092 374 1121 q 433 1015 433 1063 q 401 924 433 965 q 319 851 369 882 q 211 806 268 821 z "},"ū":{"ha":832,"x_min":83,"x_max":742,"o":"m 328 -19 q 149 51 214 -19 q 83 240 83 121 l 83 715 l 279 715 l 279 272 q 307 184 279 215 q 382 153 335 153 q 474 183 431 153 q 546 265 517 214 l 546 715 l 742 715 l 742 0 l 546 0 l 546 94 q 458 13 510 46 q 328 -19 407 -19 m 183 831 l 183 954 l 647 954 l 647 831 l 183 831 z "},"ų":{"ha":832,"x_min":83,"x_max":746,"o":"m 622 -306 q 506 -268 547 -306 q 464 -169 464 -231 q 488 -84 464 -121 q 547 -24 511 -47 q 549 25 549 0 q 549 75 549 50 l 549 99 q 461 14 513 47 q 328 -19 410 -19 q 149 51 214 -19 q 83 240 83 121 l 83 715 l 279 715 l 279 272 q 307 184 279 215 q 382 153 335 153 q 474 183 431 153 q 546 265 517 214 l 546 715 l 742 715 l 742 0 q 633 -53 676 -19 q 590 -129 590 -86 q 613 -175 590 -160 q 665 -190 635 -190 q 746 -167 707 -190 l 739 -274 q 687 -297 718 -289 q 622 -306 656 -306 z "},"ů":{"ha":832,"x_min":83,"x_max":742,"o":"m 328 -19 q 149 51 214 -19 q 83 240 83 121 l 83 715 l 279 715 l 279 272 q 307 184 279 215 q 382 153 335 153 q 474 183 431 153 q 546 265 517 214 l 546 715 l 742 715 l 742 0 l 546 0 l 546 94 q 458 13 510 46 q 328 -19 407 -19 m 417 797 q 326 820 367 797 q 262 883 286 843 q 238 971 238 922 q 262 1060 238 1021 q 326 1122 286 1099 q 417 1144 367 1144 q 507 1122 467 1144 q 572 1060 547 1099 q 596 971 596 1021 q 572 883 596 922 q 507 820 547 843 q 417 797 467 797 m 417 896 q 467 919 449 896 q 486 971 486 942 q 467 1023 486 1000 q 417 1046 449 1046 q 367 1023 386 1046 q 347 971 347 1000 q 367 919 347 942 q 417 896 386 896 z "},"v":{"ha":760,"x_min":7,"x_max":740,"o":"m 260 0 l 7 713 l 221 732 l 379 217 l 531 715 l 740 715 l 489 0 l 260 0 z "},"w":{"ha":1181,"x_min":10,"x_max":1161,"o":"m 218 0 l 10 715 l 210 715 l 338 242 l 475 711 l 696 729 l 844 228 l 975 715 l 1161 715 l 943 0 l 729 0 l 582 519 l 428 0 l 218 0 z "},"ẃ":{"ha":1181,"x_min":10,"x_max":1161,"o":"m 218 0 l 10 715 l 210 715 l 338 242 l 475 711 l 696 729 l 844 228 l 975 715 l 1161 715 l 943 0 l 729 0 l 582 519 l 428 0 l 218 0 m 572 806 l 547 860 q 632 951 601 903 l 596 1025 q 623 1091 596 1061 q 693 1121 650 1121 q 765 1092 735 1121 q 794 1015 794 1063 q 763 924 794 965 q 680 851 731 882 q 572 806 629 821 z "},"ŵ":{"ha":1181,"x_min":10,"x_max":1161,"o":"m 218 0 l 10 715 l 210 715 l 338 242 l 475 711 l 696 729 l 844 228 l 975 715 l 1161 715 l 943 0 l 729 0 l 582 519 l 428 0 l 218 0 m 418 806 l 357 901 l 590 1085 l 824 901 l 763 806 l 590 899 l 418 806 z "},"ẅ":{"ha":1181,"x_min":10,"x_max":1161,"o":"m 218 0 l 10 715 l 210 715 l 338 242 l 475 711 l 696 729 l 844 228 l 975 715 l 1161 715 l 943 0 l 729 0 l 582 519 l 428 0 l 218 0 m 749 814 q 673 846 706 814 q 640 924 640 878 q 675 1001 640 969 q 753 1033 710 1033 q 829 1001 797 1033 q 861 924 861 969 q 829 846 861 878 q 749 814 797 814 m 428 814 q 351 846 383 814 q 319 924 319 878 q 353 1001 319 969 q 432 1033 388 1033 q 508 1001 476 1033 q 540 924 540 969 q 506 846 540 878 q 428 814 472 814 z "},"ẁ":{"ha":1181,"x_min":10,"x_max":1161,"o":"m 218 0 l 10 715 l 210 715 l 338 242 l 475 711 l 696 729 l 844 228 l 975 715 l 1161 715 l 943 0 l 729 0 l 582 519 l 428 0 l 218 0 m 594 806 q 523 835 553 806 q 493 911 493 864 q 525 1003 493 961 q 608 1075 557 1044 q 715 1121 658 1106 l 740 1067 q 656 975 686 1024 l 692 901 q 665 835 692 865 q 594 806 638 806 z "},"x":{"ha":757,"x_min":11,"x_max":747,"o":"m 531 -11 l 376 219 l 233 0 l 11 0 l 275 369 l 36 715 l 253 726 l 388 524 l 513 715 l 726 715 l 490 379 l 747 0 l 531 -11 z "},"y":{"ha":753,"x_min":8,"x_max":733,"o":"m 192 -311 q 124 -303 157 -311 q 58 -281 92 -294 l 88 -119 q 176 -146 140 -146 q 244 -114 222 -146 q 288 -21 265 -82 l 8 713 l 211 729 l 382 217 l 540 715 l 733 715 q 667 518 703 622 q 592 309 631 414 q 518 110 554 204 q 450 -57 482 17 q 394 -174 418 -131 q 310 -276 357 -240 q 192 -311 263 -311 z "},"ý":{"ha":753,"x_min":8,"x_max":733,"o":"m 192 -311 q 124 -303 157 -311 q 58 -281 92 -294 l 88 -119 q 176 -146 140 -146 q 244 -114 222 -146 q 288 -21 265 -82 l 8 713 l 211 729 l 382 217 l 540 715 l 733 715 q 667 518 703 622 q 592 309 631 414 q 518 110 554 204 q 450 -57 482 17 q 394 -174 418 -131 q 310 -276 357 -240 q 192 -311 263 -311 m 358 806 l 333 860 q 418 951 388 903 l 382 1025 q 409 1091 382 1061 q 479 1121 436 1121 q 551 1092 521 1121 q 581 1015 581 1063 q 549 924 581 965 q 466 851 517 882 q 358 806 415 821 z "},"ŷ":{"ha":753,"x_min":8,"x_max":733,"o":"m 192 -311 q 124 -303 157 -311 q 58 -281 92 -294 l 88 -119 q 176 -146 140 -146 q 244 -114 222 -146 q 288 -21 265 -82 l 8 713 l 211 729 l 382 217 l 540 715 l 733 715 q 667 518 703 622 q 592 309 631 414 q 518 110 554 204 q 450 -57 482 17 q 394 -174 418 -131 q 310 -276 357 -240 q 192 -311 263 -311 m 204 806 l 143 901 l 376 1085 l 610 901 l 549 806 l 376 899 l 204 806 z "},"ÿ":{"ha":753,"x_min":8,"x_max":733,"o":"m 192 -311 q 124 -303 157 -311 q 58 -281 92 -294 l 88 -119 q 176 -146 140 -146 q 244 -114 222 -146 q 288 -21 265 -82 l 8 713 l 211 729 l 382 217 l 540 715 l 733 715 q 667 518 703 622 q 592 309 631 414 q 518 110 554 204 q 450 -57 482 17 q 394 -174 418 -131 q 310 -276 357 -240 q 192 -311 263 -311 m 535 814 q 459 846 492 814 q 426 924 426 878 q 461 1001 426 969 q 539 1033 496 1033 q 615 1001 583 1033 q 647 924 647 969 q 615 846 647 878 q 535 814 583 814 m 214 814 q 138 846 169 814 q 106 924 106 878 q 140 1001 106 969 q 218 1033 174 1033 q 294 1001 263 1033 q 326 924 326 969 q 292 846 326 878 q 214 814 258 814 z "},"ỳ":{"ha":753,"x_min":8,"x_max":733,"o":"m 192 -311 q 124 -303 157 -311 q 58 -281 92 -294 l 88 -119 q 176 -146 140 -146 q 244 -114 222 -146 q 288 -21 265 -82 l 8 713 l 211 729 l 382 217 l 540 715 l 733 715 q 667 518 703 622 q 592 309 631 414 q 518 110 554 204 q 450 -57 482 17 q 394 -174 418 -131 q 310 -276 357 -240 q 192 -311 263 -311 m 381 806 q 309 835 339 806 q 279 911 279 864 q 311 1003 279 961 q 394 1075 343 1044 q 501 1121 444 1106 l 526 1067 q 442 975 472 1024 l 478 901 q 451 835 478 865 q 381 806 424 806 z "},"z":{"ha":699,"x_min":53,"x_max":635,"o":"m 53 1 l 53 129 l 396 547 l 76 547 l 76 715 l 635 715 l 635 588 l 293 168 l 635 168 l 635 1 l 53 1 z "},"ź":{"ha":699,"x_min":53,"x_max":635,"o":"m 53 1 l 53 129 l 396 547 l 76 547 l 76 715 l 635 715 l 635 588 l 293 168 l 635 168 l 635 1 l 53 1 m 332 806 l 307 860 q 392 951 361 903 l 356 1025 q 383 1091 356 1061 q 453 1121 410 1121 q 524 1092 494 1121 q 554 1015 554 1063 q 522 924 554 965 q 440 851 490 882 q 332 806 389 821 z "},"ž":{"ha":699,"x_min":53,"x_max":635,"o":"m 53 1 l 53 129 l 396 547 l 76 547 l 76 715 l 635 715 l 635 588 l 293 168 l 635 168 l 635 1 l 53 1 m 350 806 l 117 989 l 178 1085 l 350 992 l 522 1085 l 583 989 l 350 806 z "},"ż":{"ha":699,"x_min":53,"x_max":635,"o":"m 53 1 l 53 129 l 396 547 l 76 547 l 76 715 l 635 715 l 635 588 l 293 168 l 635 168 l 635 1 l 53 1 m 349 819 q 274 851 306 819 q 243 925 243 882 q 276 1000 243 969 q 351 1031 308 1031 q 426 1000 394 1031 q 457 925 457 969 q 424 851 457 882 q 349 819 392 819 z "},"ﬁ":{"ha":1171,"x_min":64,"x_max":1132,"o":"m 64 0 l 64 168 l 190 168 l 190 547 l 64 547 l 64 715 l 190 715 l 190 803 q 258 970 190 907 q 435 1033 325 1033 q 607 994 513 1033 l 539 840 q 454 864 492 864 q 386 793 386 864 l 386 715 l 1013 715 l 1013 168 l 1132 168 l 1132 0 l 683 0 l 683 168 l 817 168 l 817 547 l 386 547 l 386 168 l 553 168 l 553 0 l 64 0 m 792 833 l 792 1014 l 1015 1014 l 1015 833 l 792 833 z "},"ﬂ":{"ha":1163,"x_min":64,"x_max":1124,"o":"m 64 0 l 64 168 l 190 168 l 190 547 l 64 547 l 64 715 l 190 715 l 190 803 q 258 970 190 907 q 435 1033 325 1033 q 607 994 513 1033 l 539 840 q 454 864 492 864 q 386 793 386 864 l 386 715 l 553 715 l 553 547 l 386 547 l 386 168 l 801 168 l 801 847 l 682 847 l 682 1014 l 997 1014 l 997 168 l 1124 168 l 1124 0 l 64 0 z "},"ª":{"ha":626,"x_min":90,"x_max":536,"o":"m 249 529 q 140 585 179 529 q 100 739 100 642 q 159 920 100 857 q 328 983 218 983 q 399 978 361 983 q 482 964 438 974 l 482 542 l 369 542 l 372 590 l 369 590 q 317 545 349 561 q 249 529 285 529 m 279 632 q 368 708 331 632 l 368 874 q 315 881 338 881 q 214 747 214 881 q 231 663 214 693 q 279 632 249 632 m 90 378 l 90 446 l 536 446 l 536 378 l 90 378 z "},"º":{"ha":626,"x_min":90,"x_max":536,"o":"m 313 529 q 153 592 214 529 q 93 757 93 654 q 153 921 93 858 q 311 983 214 983 q 469 922 410 983 q 529 758 529 861 q 469 593 529 657 q 313 529 410 529 m 311 631 q 383 665 356 631 q 411 757 411 700 q 383 848 411 814 q 311 882 356 882 q 239 848 267 882 q 211 757 211 814 q 239 665 211 700 q 311 631 267 631 m 90 378 l 90 446 l 536 446 l 536 378 l 90 378 z "},"π":{"ha":1210,"x_min":150,"x_max":1119,"o":"m 875 -21 q 736 22 783 -21 q 689 138 689 64 q 698 228 689 168 q 724 411 707 289 l 746 575 l 482 575 l 404 0 l 204 0 l 282 575 l 150 575 l 174 744 l 1119 744 l 1096 575 l 946 575 l 913 333 q 905 283 910 311 q 897 231 900 254 q 894 196 894 207 q 954 150 894 150 q 1044 168 993 150 l 1065 21 q 875 -21 968 -21 z "},"א":{"ha":810,"x_min":61,"x_max":754,"o":"m 575 -26 l 347 342 q 296 295 313 324 q 274 215 279 267 q 267 124 271 186 q 261 -3 264 61 q 114 -7 189 -7 l 65 -7 q 69 117 67 63 q 74 197 72 171 q 112 343 81 283 q 214 442 143 403 q 133 561 171 501 q 61 681 94 621 q 147 730 103 707 q 238 775 190 753 q 335 617 285 697 q 443 457 386 536 q 508 488 488 468 q 533 547 528 507 q 540 605 538 569 q 547 679 543 640 q 551 747 550 718 q 615 751 583 750 q 674 751 647 751 q 716 751 700 751 q 753 750 732 750 l 740 583 q 691 435 733 488 q 567 351 649 382 l 754 56 q 663 10 707 31 q 575 -26 618 -11 z "},"אַ":{"ha":810,"x_min":61,"x_max":754,"o":"m 575 -26 l 347 342 q 296 295 313 324 q 274 215 279 267 q 267 124 271 186 q 261 -3 264 61 q 114 -7 189 -7 l 65 -7 q 69 117 67 63 q 74 197 72 171 q 112 343 81 283 q 214 442 143 403 q 133 561 171 501 q 61 681 94 621 q 147 730 103 707 q 238 775 190 753 q 335 617 285 697 q 443 457 386 536 q 508 488 488 468 q 533 547 528 507 q 540 605 538 569 q 547 679 543 640 q 551 747 550 718 q 615 751 583 750 q 674 751 647 751 q 716 751 700 751 q 753 750 732 750 l 740 583 q 691 435 733 488 q 567 351 649 382 l 754 56 q 663 10 707 31 q 575 -26 618 -11 m 214 -235 l 222 -140 l 588 -140 l 579 -235 l 214 -235 z "},"אָ":{"ha":810,"x_min":61,"x_max":754,"o":"m 575 -26 l 347 342 q 296 295 313 324 q 274 215 279 267 q 267 124 271 186 q 261 -3 264 61 q 114 -7 189 -7 l 65 -7 q 69 117 67 63 q 74 197 72 171 q 112 343 81 283 q 214 442 143 403 q 133 561 171 501 q 61 681 94 621 q 147 730 103 707 q 238 775 190 753 q 335 617 285 697 q 443 457 386 536 q 508 488 488 468 q 533 547 528 507 q 540 605 538 569 q 547 679 543 640 q 551 747 550 718 q 615 751 583 750 q 674 751 647 751 q 716 751 700 751 q 753 750 732 750 l 740 583 q 691 435 733 488 q 567 351 649 382 l 754 56 q 663 10 707 31 q 575 -26 618 -11 m 340 -418 l 351 -235 l 214 -235 l 222 -140 l 588 -140 l 579 -235 l 451 -235 l 463 -418 l 340 -418 z "},"אּ":{"ha":810,"x_min":61,"x_max":754,"o":"m 575 -26 l 347 342 q 296 295 313 324 q 274 215 279 267 q 267 124 271 186 q 261 -3 264 61 q 114 -7 189 -7 l 65 -7 q 69 117 67 63 q 74 197 72 171 q 112 343 81 283 q 214 442 143 403 q 133 561 171 501 q 61 681 94 621 q 147 730 103 707 q 238 775 190 753 q 335 617 285 697 q 443 457 386 536 q 508 488 488 468 q 533 547 528 507 q 540 605 538 569 q 547 679 543 640 q 551 747 550 718 q 615 751 583 750 q 674 751 647 751 q 716 751 700 751 q 753 750 732 750 l 740 583 q 691 435 733 488 q 567 351 649 382 l 754 56 q 663 10 707 31 q 575 -26 618 -11 m 436 581 q 384 601 406 581 q 363 651 363 622 q 384 704 363 683 q 436 725 406 725 q 488 704 467 725 q 508 651 508 683 q 488 601 508 622 q 436 581 467 581 z "},"ב":{"ha":744,"x_min":46,"x_max":724,"o":"m 46 0 l 46 174 l 422 174 l 422 485 q 401 548 422 525 q 342 571 379 571 l 79 571 l 79 744 l 379 744 q 551 682 490 744 q 613 508 613 619 l 613 174 l 724 174 l 704 0 l 46 0 z "},"בּ":{"ha":744,"x_min":46,"x_max":724,"o":"m 46 0 l 46 174 l 422 174 l 422 485 q 401 548 422 525 q 342 571 379 571 l 79 571 l 79 744 l 379 744 q 551 682 490 744 q 613 508 613 619 l 613 174 l 724 174 l 704 0 l 46 0 m 236 300 q 184 321 206 300 q 163 371 163 342 q 184 424 163 403 q 236 444 206 444 q 288 424 267 444 q 308 371 308 403 q 288 321 308 342 q 236 300 267 300 z "},"ג":{"ha":565,"x_min":29,"x_max":511,"o":"m 29 -29 q 38 154 32 65 q 169 213 103 182 q 301 279 236 243 l 271 571 l 100 571 l 100 744 l 438 744 l 511 31 q 426 -1 468 13 q 344 -22 383 -14 l 329 110 q 187 37 258 71 q 44 -29 115 3 l 29 -29 z "},"גּ":{"ha":565,"x_min":29,"x_max":511,"o":"m 29 -29 q 38 154 32 65 q 169 213 103 182 q 301 279 236 243 l 271 571 l 100 571 l 100 744 l 438 744 l 511 31 q 426 -1 468 13 q 344 -22 383 -14 l 329 110 q 187 37 258 71 q 44 -29 115 3 l 29 -29 m 150 315 q 98 336 119 315 q 76 386 76 357 q 98 439 76 418 q 150 460 119 460 q 201 439 181 460 q 222 386 222 418 q 201 336 222 357 q 150 315 181 315 z "},"ד":{"ha":731,"x_min":28,"x_max":689,"o":"m 364 -7 l 364 571 l 28 571 l 28 744 l 689 744 l 669 571 l 554 571 l 554 6 l 364 -7 z "},"דּ":{"ha":731,"x_min":28,"x_max":689,"o":"m 364 -7 l 364 571 l 28 571 l 28 744 l 689 744 l 669 571 l 554 571 l 554 6 l 364 -7 m 199 286 q 147 307 168 286 q 125 357 125 328 q 147 410 125 389 q 199 431 168 431 q 250 410 229 431 q 271 357 271 389 q 250 307 271 328 q 199 286 229 286 z "},"ה":{"ha":814,"x_min":81,"x_max":733,"o":"m 543 -7 l 543 485 q 522 548 543 525 q 463 571 500 571 l 81 571 l 81 744 l 500 744 q 672 682 611 744 q 733 508 733 619 l 733 6 l 543 -7 m 88 -7 l 88 374 q 185 381 136 378 q 281 386 233 385 l 281 6 l 88 -7 z "},"הּ":{"ha":814,"x_min":81,"x_max":733,"o":"m 543 -7 l 543 485 q 522 548 543 525 q 463 571 500 571 l 81 571 l 81 744 l 500 744 q 672 682 611 744 q 733 508 733 619 l 733 6 l 543 -7 m 88 -7 l 88 374 q 185 381 136 378 q 281 386 233 385 l 281 6 l 88 -7 m 407 356 q 355 376 376 356 q 333 426 333 397 q 355 479 333 458 q 407 500 376 500 q 458 479 438 500 q 479 426 479 458 q 458 376 479 397 q 407 356 438 356 z "},"ו":{"ha":463,"x_min":42,"x_max":368,"o":"m 178 -7 l 178 571 l 42 571 l 42 744 l 368 744 l 368 6 l 178 -7 z "},"וּ":{"ha":463,"x_min":-28,"x_max":368,"o":"m 178 -7 l 178 571 l 42 571 l 42 744 l 368 744 l 368 6 l 178 -7 m 46 286 q -6 307 15 286 q -28 357 -28 328 q -6 410 -28 389 q 46 431 15 431 q 97 410 76 431 q 118 357 118 389 q 97 307 118 328 q 46 286 76 286 z "},"וֹ":{"ha":463,"x_min":42,"x_max":368,"o":"m 178 -7 l 178 571 l 42 571 l 42 744 l 368 744 l 368 6 l 178 -7 m 219 813 q 167 833 189 813 q 146 883 146 854 q 167 936 146 915 q 219 957 189 957 q 271 936 250 957 q 292 883 292 915 q 271 833 292 854 q 219 813 250 813 z "},"ז":{"ha":556,"x_min":25,"x_max":511,"o":"m 174 0 l 174 560 q 98 572 136 564 q 25 589 60 579 l 49 758 q 268 731 163 731 q 488 758 374 731 l 511 589 q 439 572 478 579 q 364 560 400 564 l 364 0 l 174 0 z "},"זּ":{"ha":556,"x_min":-26,"x_max":511,"o":"m 174 0 l 174 560 q 98 572 136 564 q 25 589 60 579 l 49 758 q 268 731 163 731 q 488 758 374 731 l 511 589 q 439 572 478 579 q 364 560 400 564 l 364 0 l 174 0 m 47 286 q -5 307 17 286 q -26 357 -26 328 q -5 410 -26 389 q 47 431 17 431 q 99 410 78 431 q 119 357 119 389 q 99 307 119 328 q 47 286 78 286 z "},"ח":{"ha":840,"x_min":97,"x_max":760,"o":"m 97 -7 l 97 744 l 526 744 q 699 682 638 744 q 760 508 760 619 l 760 6 l 569 -7 l 569 482 q 547 547 569 524 q 486 571 525 571 l 288 571 l 288 6 l 97 -7 z "},"ט":{"ha":821,"x_min":81,"x_max":768,"o":"m 206 -8 q 161 -8 183 -8 q 118 -6 139 -7 l 81 733 l 265 746 l 299 175 q 445 210 382 175 q 544 310 508 246 q 581 457 581 374 q 553 554 581 526 q 482 582 526 582 q 442 577 463 582 q 399 564 422 572 l 354 713 q 435 747 389 733 q 529 760 482 760 q 704 687 640 760 q 768 483 768 614 q 738 309 768 393 q 651 160 707 225 q 521 56 596 94 q 381 8 461 25 q 206 -8 300 -8 z "},"טּ":{"ha":821,"x_min":81,"x_max":768,"o":"m 206 -8 q 161 -8 183 -8 q 118 -6 139 -7 l 81 733 l 265 746 l 299 175 q 445 210 382 175 q 544 310 508 246 q 581 457 581 374 q 553 554 581 526 q 482 582 526 582 q 442 577 463 582 q 399 564 422 572 l 354 713 q 435 747 389 733 q 529 760 482 760 q 704 687 640 760 q 768 483 768 614 q 738 309 768 393 q 651 160 707 225 q 521 56 596 94 q 381 8 461 25 q 206 -8 300 -8 m 415 328 q 363 349 385 328 q 342 399 342 369 q 363 451 342 431 q 415 472 385 472 q 467 451 446 472 q 488 399 488 431 q 467 349 488 369 q 415 328 446 328 z "},"י":{"ha":453,"x_min":33,"x_max":369,"o":"m 176 267 l 176 571 l 33 571 l 33 744 l 369 744 l 369 279 l 176 267 z "},"יּ":{"ha":453,"x_min":-28,"x_max":369,"o":"m 176 267 l 176 571 l 33 571 l 33 744 l 369 744 l 369 279 l 176 267 m 46 346 q -6 367 15 346 q -28 417 -28 388 q -6 469 -28 449 q 46 490 15 490 q 97 469 76 490 q 118 417 118 449 q 97 367 118 388 q 46 346 76 346 z "},"ך":{"ha":653,"x_min":36,"x_max":572,"o":"m 382 -179 l 382 482 q 360 547 382 524 q 299 571 338 571 l 36 571 l 36 744 l 339 744 q 511 682 450 744 q 572 508 572 619 l 572 -167 l 382 -179 z "},"ךּ":{"ha":653,"x_min":36,"x_max":572,"o":"m 382 -179 l 382 482 q 360 547 382 524 q 299 571 338 571 l 36 571 l 36 744 l 339 744 q 511 682 450 744 q 572 508 572 619 l 572 -167 l 382 -179 m 193 286 q 141 307 163 286 q 119 357 119 328 q 141 410 119 389 q 193 431 163 431 q 244 410 224 431 q 265 357 265 389 q 244 307 265 328 q 193 286 224 286 z "},"כ":{"ha":700,"x_min":51,"x_max":642,"o":"m 51 0 l 64 174 l 253 174 q 403 224 357 174 q 450 388 450 275 q 304 571 450 571 l 79 571 l 79 744 l 308 744 q 560 659 479 744 q 642 394 642 574 q 543 94 642 188 q 225 0 444 0 l 51 0 z "},"כּ":{"ha":700,"x_min":51,"x_max":642,"o":"m 51 0 l 64 174 l 253 174 q 403 224 357 174 q 450 388 450 275 q 304 571 450 571 l 79 571 l 79 744 l 308 744 q 560 659 479 744 q 642 394 642 574 q 543 94 642 188 q 225 0 444 0 l 51 0 m 225 300 q 173 321 194 300 q 151 371 151 342 q 173 424 151 403 q 225 444 194 444 q 276 424 256 444 q 297 371 297 403 q 276 321 297 342 q 225 300 256 300 z "},"ל":{"ha":657,"x_min":43,"x_max":588,"o":"m 214 -42 q 157 36 183 -3 q 107 114 131 75 q 235 233 181 183 q 325 321 289 282 q 379 396 361 360 q 397 475 397 432 l 397 571 l 43 571 l 43 939 l 233 939 l 233 744 l 588 744 l 588 503 q 563 350 588 417 q 490 224 538 283 q 372 101 442 165 q 214 -42 303 38 z "},"לּ":{"ha":657,"x_min":43,"x_max":588,"o":"m 214 -42 q 157 36 183 -3 q 107 114 131 75 q 235 233 181 183 q 325 321 289 282 q 379 396 361 360 q 397 475 397 432 l 397 571 l 43 571 l 43 939 l 233 939 l 233 744 l 588 744 l 588 503 q 563 350 588 417 q 490 224 538 283 q 372 101 442 165 q 214 -42 303 38 m 225 358 q 173 379 194 358 q 151 429 151 400 q 173 482 151 461 q 225 503 194 503 q 276 482 256 503 q 297 429 297 461 q 276 379 297 400 q 225 358 256 358 z "},"ם":{"ha":846,"x_min":90,"x_max":765,"o":"m 90 0 l 90 744 l 532 744 q 704 682 643 744 q 765 508 765 619 l 765 0 l 90 0 m 281 174 l 575 174 l 575 482 q 553 547 575 524 q 492 571 531 571 l 281 571 l 281 174 z "},"מ":{"ha":879,"x_min":58,"x_max":799,"o":"m 71 -4 l 196 569 l 58 599 l 94 765 l 206 744 l 521 744 q 726 672 653 744 q 799 469 799 600 l 799 0 l 421 0 l 421 174 l 608 174 l 608 453 q 577 542 608 510 q 490 574 546 574 l 390 574 l 269 -4 l 71 -4 z "},"מּ":{"ha":879,"x_min":58,"x_max":799,"o":"m 71 -4 l 196 569 l 58 599 l 94 765 l 206 744 l 521 744 q 726 672 653 744 q 799 469 799 600 l 799 0 l 421 0 l 421 174 l 608 174 l 608 453 q 577 542 608 510 q 490 574 546 574 l 390 574 l 269 -4 l 71 -4 m 479 300 q 427 321 449 300 q 406 371 406 342 q 427 424 406 403 q 479 444 449 444 q 531 424 510 444 q 551 371 551 403 q 531 321 551 342 q 479 300 510 300 z "},"ן":{"ha":458,"x_min":33,"x_max":369,"o":"m 181 -179 l 181 571 l 33 571 l 33 744 l 369 744 l 369 -167 l 181 -179 z "},"נ":{"ha":540,"x_min":49,"x_max":450,"o":"m 49 0 l 49 174 l 260 174 l 260 571 l 100 571 l 100 744 l 450 744 l 450 0 l 49 0 z "},"נּ":{"ha":540,"x_min":44,"x_max":450,"o":"m 49 0 l 49 174 l 260 174 l 260 571 l 100 571 l 100 744 l 450 744 l 450 0 l 49 0 m 118 300 q 66 321 88 300 q 44 371 44 342 q 66 424 44 403 q 118 444 88 444 q 169 424 149 444 q 190 371 190 403 q 169 321 190 342 q 118 300 149 300 z "},"ס":{"ha":856,"x_min":35,"x_max":803,"o":"m 203 -11 q 178 -11 190 -11 q 151 -10 165 -11 l 133 571 l 35 571 l 35 744 l 550 744 q 736 680 669 744 q 803 488 803 615 q 757 283 803 378 q 628 119 711 189 q 432 19 540 50 q 203 -11 324 -11 m 331 175 q 476 222 413 183 q 574 324 539 260 q 610 468 610 388 q 583 548 610 525 q 507 571 556 571 l 315 571 l 331 175 z "},"סּ":{"ha":856,"x_min":35,"x_max":803,"o":"m 203 -11 q 178 -11 190 -11 q 151 -10 165 -11 l 133 571 l 35 571 l 35 744 l 550 744 q 736 680 669 744 q 803 488 803 615 q 757 283 803 378 q 628 119 711 189 q 432 19 540 50 q 203 -11 324 -11 m 331 175 q 476 222 413 183 q 574 324 539 260 q 610 468 610 388 q 583 548 610 525 q 507 571 556 571 l 315 571 l 331 175 m 453 328 q 401 349 422 328 q 379 399 379 369 q 401 451 379 431 q 453 472 422 472 q 504 451 483 472 q 525 399 525 431 q 504 349 525 369 q 453 328 483 328 z "},"ע":{"ha":781,"x_min":24,"x_max":714,"o":"m 46 -72 q 34 15 40 -28 q 24 101 28 58 q 145 126 89 114 q 249 150 201 138 l 106 588 l 60 681 q 147 726 103 706 q 232 761 190 746 q 277 685 261 726 q 306 601 293 643 l 421 222 q 503 338 479 267 q 526 525 526 408 q 522 620 526 569 q 510 724 518 671 q 601 742 554 735 q 700 753 647 749 q 711 656 708 707 q 714 565 714 604 q 681 303 714 410 q 572 125 647 196 q 367 8 496 54 q 46 -72 238 -39 z "},"ף":{"ha":758,"x_min":49,"x_max":678,"o":"m 488 -179 l 488 482 q 465 547 488 524 q 404 571 443 571 l 289 571 l 246 414 l 357 357 l 282 196 l 49 311 l 49 365 l 147 744 q 221 746 183 746 q 296 746 258 746 q 371 746 333 746 q 444 744 408 746 q 617 681 556 743 q 678 508 678 619 l 678 -167 l 488 -179 z "},"ףּ":{"ha":758,"x_min":49,"x_max":678,"o":"m 488 -179 l 488 482 q 465 547 488 524 q 404 571 443 571 l 289 571 l 246 414 l 357 357 l 282 196 l 49 311 l 49 365 l 147 744 q 221 746 183 746 q 296 746 258 746 q 371 746 333 746 q 444 744 408 746 q 617 681 556 743 q 678 508 678 619 l 678 -167 l 488 -179 m 379 393 q 327 414 349 393 q 306 464 306 435 q 327 517 306 496 q 379 538 349 538 q 431 517 410 538 q 451 464 451 496 q 431 414 451 435 q 379 393 410 393 z "},"פ":{"ha":783,"x_min":44,"x_max":711,"o":"m 44 0 l 44 169 l 532 169 q 527 321 531 249 q 514 481 524 393 q 414 575 503 575 l 300 575 l 274 465 l 383 408 q 353 326 369 365 q 319 250 336 286 l 79 374 l 79 415 l 156 744 q 227 746 192 746 q 299 746 263 746 q 370 746 335 746 q 440 744 406 746 q 692 517 667 740 q 701 394 697 468 q 708 234 706 319 q 711 65 711 149 l 711 0 l 44 0 z "},"פּ":{"ha":783,"x_min":44,"x_max":711,"o":"m 44 0 l 44 169 l 532 169 q 527 321 531 249 q 514 481 524 393 q 414 575 503 575 l 300 575 l 274 465 l 344 429 q 315 349 331 389 q 281 269 299 308 l 79 374 l 79 415 l 156 744 q 227 746 192 746 q 299 746 263 746 q 370 746 335 746 q 440 744 406 746 q 692 517 667 740 q 701 394 697 468 q 708 234 706 319 q 711 65 711 149 l 711 0 l 44 0 m 411 222 q 359 243 381 222 q 338 293 338 264 q 359 346 338 325 q 411 367 381 367 q 463 346 442 367 q 483 293 483 325 q 463 243 483 264 q 411 222 442 222 z "},"ץ":{"ha":707,"x_min":1,"x_max":647,"o":"m 371 -179 l 371 64 q 326 151 360 97 q 247 272 292 204 q 154 412 201 339 q 66 558 107 485 q 1 697 25 632 q 93 733 46 717 q 188 764 140 750 q 244 647 219 696 q 296 552 269 597 q 357 450 322 507 q 413 476 394 460 q 439 531 432 493 q 451 623 446 561 q 458 742 457 685 q 553 746 506 744 q 647 747 600 747 q 645 689 647 722 q 641 625 643 656 q 638 579 639 594 q 615 481 633 528 q 553 397 597 433 q 428 339 510 361 q 460 291 447 311 q 485 251 472 271 q 535 160 517 201 q 563 76 554 119 q 571 -28 571 33 q 569 -91 571 -57 q 564 -167 567 -125 l 371 -179 z "},"צ":{"ha":715,"x_min":25,"x_max":660,"o":"m 57 0 l 57 178 l 154 178 l 397 163 l 396 176 l 249 335 q 128 508 183 421 q 25 682 74 594 q 110 726 63 706 q 206 765 157 747 q 292 616 246 693 q 394 457 339 539 q 450 531 442 478 q 458 587 454 551 q 465 664 463 622 q 469 742 468 706 q 565 746 518 744 q 660 747 613 747 q 655 663 658 710 q 649 579 651 617 q 628 485 643 528 q 578 408 613 442 q 476 350 543 374 l 621 161 l 621 0 l 57 0 z "},"צּ":{"ha":715,"x_min":25,"x_max":660,"o":"m 57 0 l 57 178 l 154 178 l 397 163 l 396 176 l 249 335 q 128 508 183 421 q 25 682 74 594 q 110 726 63 706 q 206 765 157 747 q 292 616 246 693 q 394 457 339 539 q 450 531 442 478 q 458 587 454 551 q 465 664 463 622 q 469 742 468 706 q 565 746 518 744 q 660 747 613 747 q 655 663 658 710 q 649 579 651 617 q 628 485 643 528 q 578 408 613 442 q 476 350 543 374 l 621 161 l 621 0 l 57 0 m 124 226 q 72 247 93 226 q 50 297 50 268 q 72 350 50 329 q 124 371 93 371 q 175 350 154 371 q 196 297 196 329 q 175 247 196 268 q 124 226 154 226 z "},"ק":{"ha":819,"x_min":83,"x_max":747,"o":"m 494 -31 q 374 119 431 40 q 478 253 438 200 q 538 347 518 307 q 557 428 557 388 l 557 571 l 83 571 l 83 744 l 747 744 l 747 471 q 731 332 747 392 q 683 219 715 272 q 604 106 651 165 q 494 -31 557 47 m 90 -179 l 90 390 q 188 398 139 394 q 283 403 236 401 l 283 -167 l 90 -179 z "},"קּ":{"ha":819,"x_min":83,"x_max":747,"o":"m 494 -31 q 374 119 431 40 q 478 253 438 200 q 538 347 518 307 q 557 428 557 388 l 557 571 l 83 571 l 83 744 l 747 744 l 747 471 q 731 332 747 392 q 683 219 715 272 q 604 106 651 165 q 494 -31 557 47 m 90 -179 l 90 390 q 188 398 139 394 q 283 403 236 401 l 283 -167 l 90 -179 m 421 360 q 369 381 390 360 q 347 431 347 401 q 369 483 347 463 q 421 504 390 504 q 472 483 451 504 q 493 431 493 463 q 472 381 493 401 q 421 360 451 360 z "},"ר":{"ha":650,"x_min":35,"x_max":569,"o":"m 379 -7 l 379 482 q 357 547 379 522 q 296 571 335 571 l 35 571 l 35 744 l 336 744 q 508 682 447 744 q 569 508 569 619 l 569 6 l 379 -7 z "},"רּ":{"ha":650,"x_min":35,"x_max":569,"o":"m 379 -7 l 379 482 q 357 547 379 522 q 296 571 335 571 l 35 571 l 35 744 l 336 744 q 508 682 447 744 q 569 508 569 619 l 569 6 l 379 -7 m 186 286 q 134 307 156 286 q 113 357 113 328 q 134 410 113 389 q 186 431 156 431 q 238 410 217 431 q 258 357 258 389 q 238 307 258 328 q 186 286 217 286 z "},"ש":{"ha":1024,"x_min":81,"x_max":961,"o":"m 222 -21 q 176 -21 200 -21 q 128 -19 153 -21 l 81 649 l 81 733 l 264 749 l 289 425 q 364 451 335 436 q 408 494 393 467 q 428 568 422 521 q 433 690 433 615 l 433 733 l 619 749 q 594 498 622 592 q 496 358 567 404 q 299 296 425 313 l 308 156 q 504 172 421 154 q 643 238 588 190 q 729 373 699 286 q 765 594 760 460 q 767 641 767 621 q 768 679 768 661 q 767 706 768 693 q 767 733 767 719 l 958 749 q 961 694 961 721 q 961 640 961 667 q 887 257 961 403 q 650 45 813 111 q 222 -21 488 -21 z "},"שׁ":{"ha":1024,"x_min":81,"x_max":961,"o":"m 222 -21 q 176 -21 200 -21 q 128 -19 153 -21 l 81 649 l 81 733 l 264 749 l 289 425 q 364 451 335 436 q 408 494 393 467 q 428 568 422 521 q 433 690 433 615 l 433 733 l 619 749 q 594 498 622 592 q 496 358 567 404 q 299 296 425 313 l 308 156 q 504 172 421 154 q 643 238 588 190 q 729 373 699 286 q 765 594 760 460 q 767 641 767 621 q 768 679 768 661 q 767 706 768 693 q 767 733 767 719 l 958 749 q 961 694 961 721 q 961 640 961 667 q 887 257 961 403 q 650 45 813 111 q 222 -21 488 -21 m 875 813 q 823 833 844 813 q 801 883 801 854 q 823 936 801 915 q 875 957 844 957 q 926 936 906 957 q 947 883 947 915 q 926 833 947 854 q 875 813 906 813 z "},"שׂ":{"ha":1024,"x_min":81,"x_max":961,"o":"m 222 -21 q 176 -21 200 -21 q 128 -19 153 -21 l 81 649 l 81 733 l 264 749 l 289 425 q 364 451 335 436 q 408 494 393 467 q 428 568 422 521 q 433 690 433 615 l 433 733 l 619 749 q 594 498 622 592 q 496 358 567 404 q 299 296 425 313 l 308 156 q 504 172 421 154 q 643 238 588 190 q 729 373 699 286 q 765 594 760 460 q 767 641 767 621 q 768 679 768 661 q 767 706 768 693 q 767 733 767 719 l 958 749 q 961 694 961 721 q 961 640 961 667 q 887 257 961 403 q 650 45 813 111 q 222 -21 488 -21 m 160 813 q 108 833 129 813 q 86 883 86 854 q 108 936 86 915 q 160 957 129 957 q 211 936 190 957 q 232 883 232 915 q 211 833 232 854 q 160 813 190 813 z "},"שּׁ":{"ha":1024,"x_min":81,"x_max":961,"o":"m 222 -21 q 176 -21 200 -21 q 128 -19 153 -21 l 81 649 l 81 733 l 264 749 l 289 425 q 364 451 335 436 q 408 494 393 467 q 428 568 422 521 q 433 690 433 615 l 433 733 l 619 749 q 594 498 622 592 q 496 358 567 404 q 299 296 425 313 l 308 156 q 504 172 421 154 q 643 238 588 190 q 729 373 699 286 q 765 594 760 460 q 767 641 767 621 q 768 679 768 661 q 767 706 768 693 q 767 733 767 719 l 958 749 q 961 694 961 721 q 961 640 961 667 q 887 257 961 403 q 650 45 813 111 q 222 -21 488 -21 m 553 218 q 501 239 522 218 q 479 289 479 260 q 501 342 479 321 q 553 363 522 363 q 604 342 583 363 q 625 289 625 321 q 604 239 625 260 q 553 218 583 218 m 875 813 q 823 833 844 813 q 801 883 801 854 q 823 936 801 915 q 875 957 844 957 q 926 936 906 957 q 947 883 947 915 q 926 833 947 854 q 875 813 906 813 z "},"שּׂ":{"ha":1024,"x_min":81,"x_max":961,"o":"m 222 -21 q 176 -21 200 -21 q 128 -19 153 -21 l 81 649 l 81 733 l 264 749 l 289 425 q 364 451 335 436 q 408 494 393 467 q 428 568 422 521 q 433 690 433 615 l 433 733 l 619 749 q 594 498 622 592 q 496 358 567 404 q 299 296 425 313 l 308 156 q 504 172 421 154 q 643 238 588 190 q 729 373 699 286 q 765 594 760 460 q 767 641 767 621 q 768 679 768 661 q 767 706 768 693 q 767 733 767 719 l 958 749 q 961 694 961 721 q 961 640 961 667 q 887 257 961 403 q 650 45 813 111 q 222 -21 488 -21 m 553 218 q 501 239 522 218 q 479 289 479 260 q 501 342 479 321 q 553 363 522 363 q 604 342 583 363 q 625 289 625 321 q 604 239 625 260 q 553 218 583 218 m 160 813 q 108 833 129 813 q 86 883 86 854 q 108 936 86 915 q 160 957 129 957 q 211 936 190 957 q 232 883 232 915 q 211 833 232 854 q 160 813 190 813 z "},"שּ":{"ha":1024,"x_min":81,"x_max":961,"o":"m 222 -21 q 176 -21 200 -21 q 128 -19 153 -21 l 81 649 l 81 733 l 264 749 l 289 425 q 364 451 335 436 q 408 494 393 467 q 428 568 422 521 q 433 690 433 615 l 433 733 l 619 749 q 594 498 622 592 q 496 358 567 404 q 299 296 425 313 l 308 156 q 504 172 421 154 q 643 238 588 190 q 729 373 699 286 q 765 594 760 460 q 767 641 767 621 q 768 679 768 661 q 767 706 768 693 q 767 733 767 719 l 958 749 q 961 694 961 721 q 961 640 961 667 q 887 257 961 403 q 650 45 813 111 q 222 -21 488 -21 m 553 218 q 501 239 522 218 q 479 289 479 260 q 501 342 479 321 q 553 363 522 363 q 604 342 583 363 q 625 289 625 321 q 604 239 625 260 q 553 218 583 218 z "},"ת":{"ha":911,"x_min":28,"x_max":831,"o":"m 168 -15 q 101 -12 139 -15 q 28 -1 64 -8 q 47 78 35 38 q 72 161 58 118 q 103 158 88 160 q 128 157 118 157 q 206 240 206 157 l 206 571 l 51 571 l 51 744 l 597 744 q 769 682 708 744 q 831 508 831 619 l 831 6 l 640 -7 l 640 482 q 618 547 640 522 q 557 571 596 571 l 396 571 l 396 208 q 342 38 396 90 q 168 -15 288 -15 z "},"תּ":{"ha":911,"x_min":28,"x_max":831,"o":"m 168 -15 q 101 -12 139 -15 q 28 -1 64 -8 q 47 78 35 38 q 72 161 58 118 q 103 158 88 160 q 128 157 118 157 q 206 240 206 157 l 206 571 l 51 571 l 51 744 l 597 744 q 769 682 708 744 q 831 508 831 619 l 831 6 l 640 -7 l 640 482 q 618 547 640 522 q 557 571 596 571 l 396 571 l 396 208 q 342 38 396 90 q 168 -15 288 -15 m 518 286 q 466 307 488 286 q 444 357 444 328 q 466 410 444 389 q 518 431 488 431 q 569 410 549 431 q 590 357 590 389 q 569 307 590 328 q 518 286 549 286 z "},"⁄":{"ha":846,"x_min":63,"x_max":783,"o":"m 156 -14 l 63 -1 l 689 932 l 783 921 l 156 -14 z "},"½":{"ha":1269,"x_min":126,"x_max":1144,"o":"m 357 -14 l 264 -1 l 890 932 l 985 921 l 357 -14 m 126 408 l 133 503 l 215 503 l 215 783 l 139 821 l 139 858 l 263 928 l 319 928 l 319 503 l 406 503 l 399 408 l 126 408 m 822 0 l 822 81 q 944 213 897 160 q 1012 301 990 265 q 1033 365 1033 338 q 1017 406 1033 392 q 975 421 1001 421 q 885 364 929 421 l 807 424 q 890 501 843 476 q 988 525 936 525 q 1099 488 1054 525 q 1144 382 1144 450 q 1099 253 1144 318 q 965 100 1054 189 l 1144 100 l 1135 0 l 822 0 z "},"⅓":{"ha":1236,"x_min":125,"x_max":1111,"o":"m 356 -14 l 263 -1 l 889 932 l 983 921 l 356 -14 m 125 408 l 132 503 l 214 503 l 214 783 l 138 821 l 138 858 l 261 928 l 318 928 l 318 503 l 404 503 l 397 408 l 125 408 m 854 -11 q 815 -9 836 -11 q 774 -4 794 -7 l 788 92 q 828 87 808 89 q 865 85 847 85 q 964 110 928 85 q 1000 179 1000 136 q 942 238 1000 238 q 900 229 924 238 l 885 303 q 951 340 919 314 q 982 396 982 367 q 935 433 982 433 q 847 388 889 433 l 782 458 q 856 508 814 490 q 944 526 897 526 q 1049 493 1010 526 q 1088 410 1088 460 q 1076 357 1088 383 q 1038 307 1064 331 q 1092 257 1074 289 q 1111 185 1111 225 q 1079 85 1111 129 q 990 15 1047 40 q 854 -11 932 -11 z "},"¼":{"ha":1236,"x_min":128,"x_max":1111,"o":"m 358 -14 l 265 -1 l 892 932 l 986 921 l 358 -14 m 128 408 l 135 503 l 217 503 l 217 783 l 140 821 l 140 858 l 264 928 l 321 928 l 321 503 l 407 503 l 400 408 l 128 408 m 949 0 l 949 119 l 725 119 l 717 199 l 949 518 l 1050 518 l 1050 206 l 1111 206 l 1101 119 l 1050 119 l 1050 0 l 949 0 m 829 206 l 949 206 l 949 383 l 829 206 z "},"¾":{"ha":1261,"x_min":126,"x_max":1136,"o":"m 207 399 q 168 401 189 399 q 126 406 147 403 l 140 501 q 181 497 161 499 q 218 494 200 494 q 317 520 281 494 q 353 589 353 546 q 294 647 353 647 q 253 639 276 647 l 238 713 q 303 750 272 724 q 335 806 335 776 q 288 843 335 843 q 200 797 242 843 l 135 868 q 208 918 167 900 q 297 936 250 936 q 401 903 363 936 q 440 819 440 869 q 428 767 440 793 q 390 717 417 740 q 445 667 426 699 q 464 594 464 635 q 432 494 464 539 q 342 424 400 450 q 207 399 285 399 m 383 -14 l 290 -1 l 917 932 l 1011 921 l 383 -14 m 974 0 l 974 119 l 750 119 l 742 199 l 974 518 l 1075 518 l 1075 206 l 1136 206 l 1126 119 l 1075 119 l 1075 0 l 974 0 m 854 206 l 974 206 l 974 383 l 854 206 z "},"¹":{"ha":531,"x_min":126,"x_max":406,"o":"m 126 494 l 133 589 l 215 589 l 215 869 l 139 907 l 139 944 l 263 1014 l 319 1014 l 319 589 l 406 589 l 399 494 l 126 494 z "},"²":{"ha":560,"x_min":111,"x_max":449,"o":"m 126 494 l 126 575 q 248 707 201 654 q 316 796 294 760 q 338 860 338 832 q 322 901 338 886 q 279 915 306 915 q 189 858 233 915 l 111 918 q 194 995 147 971 q 292 1019 240 1019 q 403 982 358 1019 q 449 876 449 944 q 403 748 449 813 q 269 594 358 683 l 449 594 l 439 494 l 126 494 z "},"³":{"ha":538,"x_min":89,"x_max":426,"o":"m 169 482 q 131 484 151 482 q 89 489 110 486 l 103 585 q 143 580 124 582 q 181 578 163 578 q 279 603 243 578 q 315 672 315 629 q 257 731 315 731 q 215 722 239 731 l 200 796 q 266 833 235 807 q 297 889 297 860 q 250 926 297 926 q 163 881 204 926 l 97 951 q 171 1001 129 983 q 260 1019 213 1019 q 364 986 325 1019 q 403 903 403 953 q 391 850 403 876 q 353 800 379 824 q 408 750 389 782 q 426 678 426 718 q 394 578 426 622 q 305 508 363 533 q 169 482 247 482 z "}," ":{"ha":278,"x_min":0,"x_max":0,"o":""}," ":{"ha":278,"x_min":0,"x_max":0,"o":""},"׳":{"ha":425,"x_min":76,"x_max":363,"o":"m 110 443 l 76 564 q 126 634 104 599 q 161 701 149 669 l 81 822 q 98 885 81 854 q 146 935 115 915 q 219 956 176 956 q 320 914 278 956 q 363 806 363 872 q 339 702 363 761 q 260 576 315 643 q 110 443 204 510 z "},"״":{"ha":789,"x_min":76,"x_max":726,"o":"m 474 443 l 440 564 q 490 634 468 599 q 525 701 513 669 l 444 822 q 462 885 444 854 q 510 935 479 915 q 583 956 542 956 q 684 914 642 956 q 726 806 726 872 q 703 702 726 761 q 624 576 679 643 q 474 443 568 510 m 110 443 l 76 564 q 126 634 104 599 q 161 701 149 669 l 81 822 q 98 885 81 854 q 146 935 115 915 q 219 956 176 956 q 320 914 278 956 q 363 806 363 872 q 339 702 363 761 q 260 576 315 643 q 110 443 204 510 z "},"־":{"ha":625,"x_min":76,"x_max":528,"o":"m 76 571 l 76 744 l 528 744 l 528 571 l 76 571 z "},".":{"ha":467,"x_min":90,"x_max":376,"o":"m 233 -47 q 133 -5 175 -47 q 90 96 90 38 q 133 198 90 156 q 233 240 175 240 q 335 198 293 240 q 376 96 376 156 q 335 -5 376 38 q 233 -47 293 -47 z "},",":{"ha":481,"x_min":83,"x_max":369,"o":"m 117 -272 l 83 -151 q 133 -81 111 -117 q 168 -14 156 -46 l 88 107 q 105 169 88 139 q 153 220 122 200 q 226 240 185 240 q 327 199 285 240 q 369 90 369 157 q 346 -13 369 46 q 267 -139 322 -72 q 117 -272 211 -206 z "},":":{"ha":536,"x_min":125,"x_max":411,"o":"m 268 471 q 167 513 208 471 q 125 614 125 556 q 167 714 125 672 q 268 756 208 756 q 369 714 326 756 q 411 614 411 672 q 369 513 411 556 q 268 471 326 471 m 268 -33 q 167 9 208 -33 q 125 110 125 51 q 167 210 125 168 q 268 251 208 251 q 369 210 326 251 q 411 110 411 168 q 369 9 411 51 q 268 -33 326 -33 z "},";":{"ha":569,"x_min":125,"x_max":417,"o":"m 274 471 q 172 513 214 471 q 131 614 131 556 q 172 714 131 672 q 274 756 214 756 q 374 714 332 756 q 417 614 417 672 q 374 513 417 556 q 274 471 332 471 m 158 -272 l 125 -151 q 175 -81 153 -117 q 210 -14 197 -46 l 129 107 q 147 169 129 139 q 195 220 164 200 q 268 240 226 240 q 369 199 326 240 q 411 90 411 157 q 388 -13 411 46 q 308 -139 364 -72 q 158 -272 253 -206 z "},"…":{"ha":1244,"x_min":67,"x_max":1175,"o":"m 1044 -21 q 953 18 992 -21 q 914 110 914 57 q 953 203 914 164 q 1044 242 992 242 q 1137 203 1099 242 q 1175 110 1175 164 q 1137 18 1175 57 q 1044 -21 1099 -21 m 197 -21 q 106 18 144 -21 q 67 110 67 57 q 106 203 67 164 q 197 242 144 242 q 290 203 251 242 q 328 110 328 164 q 290 18 328 57 q 197 -21 251 -21 m 621 -21 q 529 18 568 -21 q 490 110 490 57 q 529 203 490 164 q 621 242 568 242 q 713 203 675 242 q 751 110 751 164 q 713 18 751 57 q 621 -21 675 -21 z "},"!":{"ha":543,"x_min":139,"x_max":406,"o":"m 189 326 l 139 994 l 404 1022 l 353 326 l 189 326 m 276 -35 q 185 3 224 -35 q 147 94 147 42 q 185 186 147 147 q 276 225 224 225 q 367 186 329 225 q 406 94 406 147 q 367 3 406 42 q 276 -35 329 -35 z "},"¡":{"ha":544,"x_min":139,"x_max":406,"o":"m 268 506 q 177 544 215 506 q 139 636 139 583 q 178 727 139 689 q 268 765 217 765 q 359 727 321 765 q 397 636 397 689 q 359 544 397 583 q 268 506 321 506 m 140 -292 l 192 404 l 356 404 l 406 -264 l 140 -292 z "},"?":{"ha":710,"x_min":35,"x_max":628,"o":"m 232 321 q 223 387 225 365 q 221 422 221 408 q 238 515 221 482 q 286 579 256 547 q 361 651 326 621 q 418 710 396 681 q 440 776 440 739 q 416 837 440 814 q 350 860 392 860 q 272 834 311 860 q 221 743 233 808 q 126 767 172 754 q 35 793 79 779 q 95 908 51 856 q 206 990 139 960 q 357 1021 272 1021 q 497 993 436 1021 q 593 913 558 965 q 628 790 628 861 q 608 692 628 736 q 556 610 588 647 q 490 538 525 574 q 421 467 446 492 q 386 425 396 442 q 375 386 376 408 l 372 333 l 232 321 m 301 -35 q 210 4 249 -35 q 171 97 171 43 q 209 189 171 150 q 301 228 247 228 q 394 189 356 228 q 432 96 432 150 q 394 4 432 43 q 301 -35 356 -35 z "},"¿":{"ha":718,"x_min":83,"x_max":676,"o":"m 410 496 q 317 535 356 496 q 279 628 279 574 q 317 719 279 681 q 410 758 356 758 q 501 719 463 758 q 540 626 540 681 q 502 535 540 574 q 410 496 464 496 m 354 -297 q 214 -269 275 -297 q 118 -189 153 -240 q 83 -67 83 -137 q 103 33 83 -11 q 155 114 124 76 q 221 186 186 151 q 291 257 267 232 q 325 299 315 282 q 336 338 335 315 l 339 390 l 479 403 q 488 338 486 360 q 490 301 490 315 q 473 209 490 242 q 425 144 456 176 q 351 73 386 103 q 293 14 315 43 q 271 -53 271 -15 q 295 -113 271 -90 q 361 -136 319 -136 q 440 -110 401 -136 q 490 -19 478 -83 q 585 -42 539 -29 q 676 -69 632 -54 q 616 -183 660 -132 q 506 -266 572 -235 q 354 -297 439 -297 z "},"·":{"ha":425,"x_min":76,"x_max":346,"o":"m 211 258 q 116 298 156 258 q 76 393 76 338 q 116 488 76 449 q 211 526 156 526 q 306 488 267 526 q 346 393 346 449 q 306 298 346 338 q 211 258 267 258 z "},"•":{"ha":643,"x_min":135,"x_max":506,"o":"m 321 201 q 227 227 269 201 q 160 295 185 253 q 135 388 135 338 q 160 481 135 439 q 228 547 186 522 q 321 572 271 572 q 413 547 371 572 q 481 480 456 522 q 506 388 506 438 q 481 295 506 338 q 414 227 456 253 q 321 201 372 201 z "},"*":{"ha":792,"x_min":86,"x_max":706,"o":"m 419 325 l 361 529 l 203 381 l 94 519 l 267 646 l 86 750 l 182 900 l 350 776 l 390 985 l 558 938 l 490 735 l 697 761 l 706 583 l 501 583 l 583 389 l 419 325 z "},"#":{"ha":963,"x_min":106,"x_max":856,"o":"m 211 -10 l 243 172 l 106 172 l 106 297 l 265 297 l 292 453 l 106 453 l 106 576 l 315 576 l 344 740 l 472 750 l 442 576 l 592 576 l 621 740 l 749 750 l 719 576 l 856 576 l 856 453 l 696 453 l 669 297 l 856 297 l 856 172 l 646 172 l 617 0 l 488 -10 l 519 172 l 369 172 l 339 0 l 211 -10 m 393 297 l 542 297 l 568 453 l 418 453 l 393 297 z "},"/":{"ha":704,"x_min":28,"x_max":676,"o":"m 185 -14 l 28 0 l 519 1014 l 676 1000 l 185 -14 z "},"\\":{"ha":678,"x_min":-3,"x_max":679,"o":"m 494 0 l -3 938 l 183 938 l 679 0 l 494 0 z "},"-":{"ha":751,"x_min":90,"x_max":660,"o":"m 90 338 l 104 497 l 660 497 l 646 338 l 90 338 z "},"–":{"ha":967,"x_min":60,"x_max":907,"o":"m 60 338 l 74 497 l 907 497 l 893 338 l 60 338 z "},"—":{"ha":1336,"x_min":106,"x_max":1231,"o":"m 106 338 l 119 497 l 1231 497 l 1217 338 l 106 338 z "},"_":{"ha":813,"x_min":15,"x_max":797,"o":"m 15 -153 l 15 0 l 797 0 l 797 -153 l 15 -153 z "},"(":{"ha":554,"x_min":104,"x_max":532,"o":"m 497 -256 q 208 19 313 -149 q 104 400 104 186 q 208 784 104 615 q 497 1057 313 953 l 531 990 q 399 817 450 904 q 323 628 347 729 q 299 401 299 528 q 323 174 299 275 q 399 -14 347 74 q 532 -189 451 -101 l 497 -256 z "},")":{"ha":556,"x_min":22,"x_max":450,"o":"m 57 -256 l 22 -189 q 156 -14 104 -101 q 231 174 207 74 q 256 401 256 275 q 231 628 256 528 q 156 817 207 729 q 24 990 104 904 l 57 1057 q 346 784 242 953 q 450 400 450 615 q 347 19 450 186 q 57 -256 243 -149 z "},"{":{"ha":525,"x_min":63,"x_max":386,"o":"m 386 -239 l 213 -225 l 213 121 q 178 270 213 228 q 63 310 144 313 l 63 493 q 178 533 144 490 q 213 682 213 575 l 213 1028 l 386 1042 l 386 729 q 382 612 386 661 q 364 526 378 563 q 319 461 350 490 q 236 401 289 432 q 319 341 289 371 q 364 275 350 311 q 382 190 378 239 q 386 74 386 142 l 386 -239 z "},"}":{"ha":525,"x_min":139,"x_max":463,"o":"m 139 -239 l 139 74 q 143 190 139 142 q 161 275 147 239 q 206 341 175 311 q 289 401 236 371 q 206 461 236 432 q 161 526 175 490 q 143 612 147 563 q 139 729 139 661 l 139 1042 l 313 1028 l 313 682 q 347 533 313 575 q 463 493 382 490 l 463 310 q 347 270 382 313 q 313 121 313 228 l 313 -225 l 139 -239 z "},"[":{"ha":450,"x_min":104,"x_max":401,"o":"m 104 -253 l 104 1028 l 401 1028 l 388 883 l 257 883 l 257 -108 l 401 -108 l 388 -253 l 104 -253 z "},"]":{"ha":450,"x_min":49,"x_max":346,"o":"m 49 -253 l 63 -108 l 193 -108 l 193 883 l 49 883 l 63 1028 l 346 1028 l 346 -253 l 49 -253 z "},"‚":{"ha":425,"x_min":63,"x_max":349,"o":"m 96 -225 l 63 -104 q 113 -34 90 -69 q 147 33 135 1 l 67 154 q 84 217 67 186 q 133 267 101 247 q 206 288 164 288 q 306 246 264 288 q 349 138 349 204 q 325 34 349 93 q 246 -92 301 -25 q 96 -225 190 -158 z "},"„":{"ha":789,"x_min":76,"x_max":726,"o":"m 474 -225 l 440 -104 q 490 -34 468 -69 q 525 33 513 1 l 444 154 q 462 217 444 186 q 510 267 479 247 q 583 288 542 288 q 684 246 642 288 q 726 138 726 204 q 703 34 726 93 q 624 -92 679 -25 q 474 -225 568 -158 m 110 -225 l 76 -104 q 126 -34 104 -69 q 161 33 149 1 l 81 154 q 98 217 81 186 q 146 267 115 247 q 219 288 176 288 q 320 246 278 288 q 363 138 363 204 q 339 34 363 93 q 260 -92 315 -25 q 110 -225 204 -158 z "},"“":{"ha":803,"x_min":76,"x_max":726,"o":"m 583 443 q 483 485 525 443 q 440 593 440 526 q 464 697 440 638 q 543 822 488 756 q 693 956 599 889 l 726 835 q 677 765 700 800 q 642 697 654 729 l 722 576 q 705 515 722 546 q 657 463 688 483 q 583 443 626 443 m 219 443 q 119 485 161 443 q 76 593 76 526 q 100 697 76 638 q 179 822 124 756 q 329 956 235 889 l 363 835 q 313 765 336 800 q 278 697 290 729 l 358 576 q 341 515 358 546 q 293 463 324 483 q 219 443 263 443 z "},"”":{"ha":803,"x_min":76,"x_max":726,"o":"m 474 443 l 440 564 q 490 634 468 599 q 525 701 513 669 l 444 822 q 462 885 444 854 q 510 935 479 915 q 583 956 542 956 q 684 914 642 956 q 726 806 726 872 q 703 702 726 761 q 624 576 679 643 q 474 443 568 510 m 110 443 l 76 564 q 126 634 104 599 q 161 701 149 669 l 81 822 q 98 885 81 854 q 146 935 115 915 q 219 956 176 956 q 320 914 278 956 q 363 806 363 872 q 339 702 363 761 q 260 576 315 643 q 110 443 204 510 z "},"‘":{"ha":439,"x_min":76,"x_max":363,"o":"m 219 443 q 119 485 161 443 q 76 593 76 526 q 100 697 76 638 q 179 822 124 756 q 329 956 235 889 l 363 835 q 313 765 336 800 q 278 697 290 729 l 358 576 q 341 515 358 546 q 293 463 324 483 q 219 443 263 443 z "},"’":{"ha":425,"x_min":63,"x_max":349,"o":"m 96 443 l 63 564 q 113 634 90 599 q 147 701 135 669 l 67 822 q 84 885 67 854 q 133 935 101 915 q 206 956 164 956 q 306 914 264 956 q 349 806 349 872 q 325 702 349 761 q 246 576 301 643 q 96 443 190 510 z "},"«":{"ha":1013,"x_min":111,"x_max":922,"o":"m 794 24 l 486 385 l 783 747 l 913 651 l 738 385 l 922 113 l 794 24 m 419 24 l 111 385 l 408 747 l 538 651 l 363 385 l 547 113 l 419 24 z "},"»":{"ha":1013,"x_min":90,"x_max":901,"o":"m 593 24 l 465 113 l 650 385 l 475 651 l 604 747 l 901 385 l 593 24 m 218 24 l 90 113 l 275 385 l 100 651 l 229 747 l 526 385 l 218 24 z "},"‹":{"ha":638,"x_min":111,"x_max":547,"o":"m 419 24 l 111 385 l 408 747 l 538 651 l 363 385 l 547 113 l 419 24 z "},"›":{"ha":638,"x_min":90,"x_max":526,"o":"m 218 24 l 90 113 l 275 385 l 100 651 l 229 747 l 526 385 l 218 24 z "},"\"":{"ha":844,"x_min":97,"x_max":747,"o":"m 494 443 l 461 564 q 511 634 489 599 q 546 701 533 669 l 465 822 q 483 885 465 854 q 531 935 500 915 q 604 956 563 956 q 705 914 663 956 q 747 806 747 872 q 724 702 747 761 q 644 576 700 643 q 494 443 589 510 m 131 443 l 97 564 q 147 634 125 599 q 182 701 169 669 l 101 822 q 119 885 101 854 q 167 935 136 915 q 240 956 199 956 q 341 914 299 956 q 383 806 383 872 q 360 702 383 761 q 281 576 336 643 q 131 443 225 510 z "},"'":{"ha":481,"x_min":97,"x_max":383,"o":"m 131 443 l 97 564 q 147 634 125 599 q 182 701 169 669 l 101 822 q 119 885 101 854 q 167 935 136 915 q 240 956 199 956 q 341 914 299 956 q 383 806 383 872 q 360 702 383 761 q 281 576 336 643 q 131 443 225 510 z "},"ƒ":{"ha":794,"x_min":0,"x_max":828,"o":"m 174 -240 q 85 -230 126 -240 q 0 -201 44 -219 l 93 -47 q 175 -71 136 -71 q 253 0 242 -71 l 325 450 l 179 450 l 206 618 l 351 618 l 381 803 q 476 981 400 928 q 654 1033 551 1033 q 744 1024 703 1033 q 828 994 785 1014 l 735 840 q 653 864 692 864 q 602 849 622 864 q 575 793 582 833 l 547 618 l 696 618 l 669 450 l 521 450 l 447 -10 q 353 -187 428 -133 q 174 -240 278 -240 z "},"@":{"ha":1143,"x_min":83,"x_max":1060,"o":"m 553 -96 q 307 -37 413 -96 q 142 125 201 21 q 83 364 83 229 q 124 573 83 476 q 235 742 164 669 q 405 855 307 814 q 617 896 503 896 q 847 843 747 896 q 1003 695 947 790 q 1060 474 1060 600 q 993 261 1060 339 q 803 174 926 183 q 769 172 788 172 q 728 171 751 171 q 678 172 704 171 q 632 174 651 172 l 640 232 l 635 232 q 569 182 608 200 q 490 164 531 164 q 407 191 439 164 q 361 261 375 218 q 347 353 347 304 q 363 456 347 406 q 408 546 378 507 q 489 613 440 588 q 608 639 538 639 q 778 610 678 639 l 738 265 q 776 265 757 264 q 814 268 796 267 q 917 323 882 276 q 951 463 951 369 q 909 644 951 568 q 790 760 867 719 q 611 800 714 800 q 394 744 489 800 q 245 592 299 688 q 192 374 192 496 q 238 178 192 263 q 369 48 283 94 q 572 1 454 1 q 678 11 624 1 q 788 43 733 21 l 775 -65 q 669 -87 732 -79 q 553 -96 607 -96 m 524 263 q 584 285 554 263 q 638 347 614 308 l 660 531 q 596 543 632 543 q 519 516 549 543 q 475 447 489 489 q 461 361 461 406 q 524 263 461 263 z "},"&":{"ha":950,"x_min":63,"x_max":915,"o":"m 765 -31 l 657 83 q 520 7 600 35 q 356 -21 440 -21 q 143 45 224 -21 q 63 224 63 111 q 90 345 63 293 q 160 437 118 397 q 246 506 203 476 q 174 619 192 571 q 156 713 156 667 q 190 841 156 789 q 281 920 224 893 q 408 947 339 947 q 569 892 511 947 q 628 747 628 838 q 585 608 628 668 q 485 497 543 547 q 553 428 515 467 q 638 342 590 390 q 664 515 658 413 l 842 538 q 769 210 843 349 l 915 56 l 765 -31 m 383 608 q 438 667 414 633 q 461 736 461 700 q 442 784 461 768 q 399 800 422 800 q 349 781 372 800 q 325 722 325 763 q 337 676 325 701 q 383 608 349 651 m 381 138 q 471 155 428 138 q 544 199 514 172 q 436 306 485 258 q 349 393 388 354 q 268 318 292 354 q 244 244 244 282 q 287 163 244 188 q 381 138 329 138 z "},"¶":{"ha":872,"x_min":63,"x_max":789,"o":"m 290 -172 l 290 519 q 175 560 226 525 q 93 648 124 594 q 63 765 63 701 q 96 890 63 833 q 186 980 129 946 q 313 1014 243 1014 l 789 1014 l 789 868 l 708 868 l 708 -172 l 558 -172 l 558 868 l 439 868 l 439 -172 l 290 -172 z "},"§":{"ha":810,"x_min":90,"x_max":719,"o":"m 367 -322 q 249 -309 307 -322 q 138 -276 190 -296 l 163 -99 q 256 -141 204 -125 q 351 -157 307 -157 q 426 -140 397 -157 q 454 -87 454 -122 q 428 -21 454 -53 q 360 44 401 11 q 272 114 318 76 q 185 197 226 151 q 117 298 143 242 q 90 425 90 354 q 117 540 90 489 q 201 639 143 592 q 157 719 171 682 q 143 800 143 757 q 183 930 143 876 q 291 1011 222 983 q 446 1039 360 1039 q 563 1026 506 1039 q 674 994 621 1014 l 649 817 q 556 858 607 843 q 460 874 504 874 q 385 856 414 874 q 357 804 357 839 q 383 739 357 771 q 451 674 410 707 q 538 604 492 642 q 626 522 585 567 q 693 420 667 476 q 719 293 719 364 q 693 177 719 229 q 608 76 667 125 q 653 -2 639 36 q 668 -85 668 -40 q 629 -212 668 -158 q 522 -294 590 -265 q 367 -322 454 -322 m 489 188 q 509 222 501 203 q 517 267 517 240 q 488 358 517 318 q 413 438 458 399 q 319 524 368 478 q 299 486 306 507 q 292 443 292 465 q 320 355 292 394 q 394 276 349 315 q 489 188 439 236 z "},"©":{"ha":1117,"x_min":63,"x_max":1054,"o":"m 558 -36 q 301 27 413 -36 q 126 202 189 90 q 63 460 63 314 q 126 718 63 607 q 301 892 189 829 q 558 956 413 956 q 817 892 706 956 q 991 718 928 829 q 1054 460 1054 607 q 991 202 1054 314 q 817 27 928 90 q 558 -36 706 -36 m 558 61 q 758 112 672 61 q 893 253 844 163 q 942 460 942 343 q 893 667 942 578 q 758 808 844 757 q 558 858 672 858 q 359 808 446 858 q 224 667 272 757 q 175 460 175 578 q 224 253 175 343 q 359 112 272 163 q 558 61 446 61 m 576 189 q 376 257 449 189 q 304 450 304 325 q 379 657 304 579 q 576 735 454 735 q 704 711 644 735 l 682 610 q 578 633 628 633 q 463 585 506 633 q 421 460 421 538 q 465 334 421 379 q 590 289 510 289 q 689 304 636 289 l 706 210 q 576 189 647 189 z "},"®":{"ha":1117,"x_min":63,"x_max":1054,"o":"m 558 -36 q 301 27 413 -36 q 126 202 189 90 q 63 460 63 314 q 126 718 63 607 q 301 892 189 829 q 558 956 413 956 q 817 892 706 956 q 991 718 928 829 q 1054 460 1054 607 q 991 202 1054 314 q 817 27 928 90 q 558 -36 706 -36 m 558 61 q 758 112 672 61 q 893 253 844 163 q 942 460 942 343 q 893 667 942 578 q 758 808 844 757 q 558 858 672 858 q 359 808 446 858 q 224 667 272 757 q 175 460 175 578 q 224 253 175 343 q 359 112 272 163 q 558 61 446 61 m 392 201 l 392 729 q 433 731 410 731 q 479 731 456 731 q 528 731 504 731 q 569 729 551 731 q 704 685 660 726 q 749 575 749 644 q 721 479 749 521 q 638 424 693 438 q 674 386 660 408 q 719 313 689 364 q 750 261 740 278 q 764 237 760 244 q 772 223 768 229 q 783 201 775 217 l 651 201 l 563 368 q 536 401 549 396 q 501 407 524 407 l 501 201 l 392 201 m 501 496 l 551 496 q 615 516 592 496 q 638 571 638 536 q 557 636 638 636 l 501 636 l 501 496 z "},"™":{"ha":939,"x_min":76,"x_max":835,"o":"m 581 346 l 485 610 l 463 354 l 392 354 l 424 715 l 522 715 l 614 456 l 703 715 l 801 715 l 835 354 l 764 354 l 739 608 l 643 350 l 581 346 m 175 354 l 175 647 l 76 647 l 76 715 l 353 715 l 353 647 l 254 647 l 254 354 l 175 354 z "},"°":{"ha":569,"x_min":111,"x_max":458,"o":"m 285 689 q 160 738 208 689 q 111 863 111 786 q 160 988 111 940 q 285 1036 208 1036 q 410 988 363 1036 q 458 863 458 940 q 410 738 458 786 q 285 689 363 689 m 285 776 q 344 800 321 776 q 368 863 368 824 q 344 926 368 901 q 285 950 321 950 q 225 926 249 950 q 201 863 201 901 q 225 800 201 824 q 285 776 249 776 z "},"|":{"ha":681,"x_min":278,"x_max":403,"o":"m 278 -310 l 278 1007 l 403 1021 l 403 -296 l 278 -310 z "},"¦":{"ha":681,"x_min":278,"x_max":403,"o":"m 278 546 l 278 1007 l 403 1021 l 403 560 l 278 546 m 278 -310 l 278 151 l 403 165 l 403 -296 l 278 -310 z "},"ℓ":{"ha":797,"x_min":54,"x_max":735,"o":"m 157 0 l 208 322 q 133 294 172 307 q 54 268 94 281 l 88 479 q 242 529 169 500 l 272 690 q 386 953 307 872 q 567 1035 465 1035 q 690 990 646 1035 q 735 864 735 946 q 691 697 735 781 q 574 541 647 614 q 411 414 500 468 l 371 168 l 535 168 l 508 0 l 157 0 m 440 628 q 508 692 479 654 q 554 766 538 729 q 571 829 571 803 q 544 865 571 865 q 517 853 532 865 q 490 817 501 840 q 464 736 476 788 q 440 628 451 685 z "},"†":{"ha":833,"x_min":76,"x_max":757,"o":"m 347 -314 l 347 603 l 76 603 l 90 715 l 347 715 l 347 1003 l 472 1017 l 472 715 l 757 715 l 743 603 l 472 603 l 472 -300 l 347 -314 z "},"‡":{"ha":847,"x_min":76,"x_max":771,"o":"m 361 -314 l 361 -12 l 76 -12 l 90 100 l 361 100 l 361 603 l 90 603 l 104 715 l 361 715 l 361 1003 l 486 1017 l 486 715 l 771 715 l 757 603 l 486 603 l 486 100 l 757 100 l 743 -12 l 486 -12 l 486 -300 l 361 -314 z "},"℮":{"ha":824,"x_min":76,"x_max":747,"o":"m 449 -21 q 176 79 276 -21 q 76 357 76 179 q 119 558 76 474 q 241 689 163 643 q 425 735 319 735 q 664 635 581 735 q 747 346 747 535 q 747 322 747 333 q 746 299 747 310 l 310 299 l 310 214 q 472 149 360 149 q 580 162 525 149 q 676 197 635 175 l 708 40 q 449 -21 593 -21 m 310 446 l 524 446 l 524 542 q 418 583 486 583 q 310 539 347 583 l 310 446 z "},"¢":{"ha":738,"x_min":50,"x_max":618,"o":"m 307 -290 l 188 -276 l 256 7 q 103 129 157 44 q 50 340 50 214 q 96 547 50 458 q 225 685 142 636 q 418 735 308 735 l 431 735 l 497 1014 l 618 1000 l 550 718 q 585 708 569 713 q 613 696 601 703 l 575 531 q 544 543 561 538 q 510 554 528 549 l 414 150 q 431 149 422 149 q 449 149 439 149 q 589 174 514 149 l 618 15 q 523 -12 571 -3 q 424 -21 475 -21 q 397 -20 410 -21 q 372 -18 385 -19 l 307 -290 m 301 197 l 388 560 q 283 489 322 544 q 243 351 243 433 q 301 197 243 251 z "},"¤":{"ha":979,"x_min":76,"x_max":903,"o":"m 485 -24 q 345 -3 410 -24 q 229 56 281 18 l 168 -6 l 78 64 l 150 136 q 96 249 115 186 q 76 385 76 313 q 99 528 76 463 q 160 644 121 593 l 88 717 l 157 807 l 242 722 q 485 793 343 793 q 733 718 631 793 l 813 796 l 903 726 l 815 639 q 873 524 853 588 q 893 385 893 460 q 822 140 893 243 l 886 76 l 818 -14 l 744 60 q 628 -1 693 21 q 485 -24 563 -24 m 485 88 q 634 126 569 88 q 735 231 699 164 q 771 385 771 297 q 735 540 771 472 q 634 644 699 607 q 485 682 569 682 q 335 644 400 682 q 235 540 271 607 q 199 385 199 472 q 235 231 199 297 q 335 126 271 164 q 485 88 400 88 z "},"$":{"ha":807,"x_min":90,"x_max":717,"o":"m 307 -137 l 203 -122 l 236 -4 q 90 49 150 13 l 107 235 q 282 163 192 182 l 342 379 q 254 417 299 396 q 173 467 210 438 q 114 543 136 497 q 92 657 92 589 q 182 866 92 789 q 433 943 272 943 q 465 942 449 943 q 497 940 482 942 l 526 1043 l 632 1028 l 601 919 q 683 893 644 908 l 653 710 q 606 733 631 722 q 556 751 581 744 l 496 538 q 601 485 550 517 q 684 402 651 454 q 717 267 717 350 q 626 57 717 132 q 369 -18 535 -18 l 340 -18 l 307 -137 m 397 576 l 451 772 l 431 772 q 329 747 365 772 q 293 678 293 721 q 322 617 293 638 q 397 576 351 596 m 388 154 q 480 185 444 158 q 515 254 515 213 q 494 306 515 286 q 440 340 474 325 l 388 154 z "},"€":{"ha":935,"x_min":28,"x_max":858,"o":"m 632 -18 q 320 69 440 -18 q 168 319 200 157 l 28 319 l 42 410 l 157 410 l 157 439 q 157 463 157 451 q 158 486 157 475 l 28 486 l 42 576 l 171 576 q 259 769 196 688 q 417 894 322 850 q 633 939 513 939 q 744 929 690 939 q 847 900 799 919 l 810 722 q 723 751 767 742 q 635 761 679 761 q 472 712 538 761 q 378 576 406 663 l 779 576 l 761 486 l 363 486 q 361 472 361 479 q 361 457 361 464 q 362 433 361 444 q 364 410 363 421 l 746 410 l 726 319 l 386 319 q 487 200 418 242 q 657 158 556 158 q 741 165 696 158 q 829 185 786 171 l 858 19 q 632 -18 758 -18 z "},"₺":{"ha":722,"x_min":63,"x_max":632,"o":"m 240 0 l 240 328 l 63 228 l 76 336 l 240 429 l 240 522 l 63 422 l 76 532 l 240 624 l 240 847 l 121 847 l 121 1014 l 436 1014 l 436 735 l 632 844 l 618 736 l 436 633 l 436 539 l 632 650 l 618 540 l 435 438 l 435 168 l 604 168 l 604 0 l 240 0 z "},"₽":{"ha":860,"x_min":42,"x_max":804,"o":"m 190 0 l 190 125 l 42 125 l 69 215 l 190 215 l 190 331 l 42 331 l 69 494 l 190 494 l 190 925 q 260 926 221 926 q 343 926 300 926 q 426 926 386 926 q 497 925 467 926 q 722 849 639 922 q 804 644 804 776 q 762 479 804 550 q 645 369 719 408 q 474 331 571 331 l 383 331 l 383 215 l 601 215 l 574 125 l 383 125 l 383 0 l 190 0 m 383 494 l 465 494 q 572 533 533 494 q 610 639 610 572 q 475 761 610 761 l 383 761 l 383 494 z "},"₪":{"ha":1515,"x_min":104,"x_max":1439,"o":"m 700 -21 q 654 -21 678 -21 q 606 -19 631 -21 l 568 497 q 544 551 567 532 q 485 571 521 571 l 294 571 l 294 0 l 104 0 l 104 743 l 517 743 q 685 690 622 743 q 757 539 749 636 l 767 425 q 842 451 813 436 q 885 492 871 465 q 906 567 900 519 q 911 689 911 614 l 911 733 l 1097 749 q 1072 498 1100 592 q 974 358 1044 404 q 776 296 903 313 l 786 156 q 986 174 903 156 q 1124 240 1069 192 q 1207 374 1178 288 q 1243 594 1236 460 q 1245 637 1244 617 q 1246 676 1246 657 q 1245 705 1246 690 q 1244 733 1244 719 l 1436 749 q 1439 694 1439 721 q 1439 640 1439 667 q 1365 257 1439 403 q 1128 45 1290 111 q 700 -21 965 -21 z "},"£":{"ha":828,"x_min":42,"x_max":717,"o":"m 164 0 l 164 439 l 42 439 l 42 599 l 164 599 l 164 757 q 201 909 164 847 q 301 1002 238 971 q 443 1033 364 1033 q 570 1016 503 1033 q 706 963 638 999 l 646 804 q 469 858 544 858 q 389 828 418 858 q 360 732 360 797 l 360 599 l 600 599 l 600 439 l 360 439 l 360 168 l 717 168 l 717 0 l 164 0 z "},"¥":{"ha":850,"x_min":14,"x_max":836,"o":"m 324 0 l 324 213 l 146 213 l 160 303 l 324 303 l 324 379 l 146 379 l 160 469 l 275 469 l 14 925 l 240 925 l 428 560 l 614 925 l 836 925 l 574 469 l 715 469 l 701 379 l 525 379 l 525 303 l 715 303 l 701 213 l 525 213 l 525 0 l 324 0 z "},"∙":{"ha":482,"x_min":131,"x_max":351,"o":"m 240 311 q 163 344 196 311 q 131 422 131 378 q 163 499 131 467 q 240 532 196 532 q 319 499 286 532 q 351 422 351 467 q 319 344 351 378 q 240 311 286 311 z "},"+":{"ha":903,"x_min":111,"x_max":792,"o":"m 401 8 l 401 296 l 111 296 l 125 400 l 401 400 l 401 675 l 506 689 l 506 400 l 792 400 l 778 296 l 506 296 l 506 22 l 401 8 z "},"−":{"ha":903,"x_min":111,"x_max":792,"o":"m 111 296 l 125 400 l 792 400 l 778 296 l 111 296 z "},"×":{"ha":903,"x_min":174,"x_max":729,"o":"m 653 71 l 451 274 l 257 79 l 174 143 l 378 347 l 182 542 l 246 625 l 451 421 l 646 615 l 729 551 l 525 347 l 717 154 l 653 71 z "},"÷":{"ha":903,"x_min":111,"x_max":792,"o":"m 449 500 q 366 535 401 500 q 331 619 331 571 q 366 703 331 668 q 449 738 401 738 q 532 703 497 738 q 567 619 567 668 q 532 535 567 571 q 449 500 497 500 m 111 296 l 125 400 l 792 400 l 778 296 l 111 296 m 449 -47 q 366 -12 401 -47 q 331 71 331 24 q 366 155 331 119 q 449 190 401 190 q 532 155 497 190 q 567 71 567 119 q 532 -12 567 24 q 449 -47 497 -47 z "},"=":{"ha":903,"x_min":111,"x_max":792,"o":"m 111 431 l 125 535 l 792 535 l 778 431 l 111 431 m 111 194 l 125 299 l 792 299 l 778 194 l 111 194 z "},"≠":{"ha":903,"x_min":111,"x_max":792,"o":"m 338 -14 l 224 -4 l 319 194 l 111 194 l 125 299 l 371 299 l 435 431 l 111 431 l 125 535 l 485 535 l 586 743 l 700 733 l 604 535 l 792 535 l 778 431 l 553 431 l 489 299 l 792 299 l 778 194 l 439 194 l 338 -14 z "},">":{"ha":903,"x_min":74,"x_max":829,"o":"m 86 -51 l 74 161 l 571 350 l 86 529 l 86 746 l 817 435 l 829 264 l 86 -51 z "},"<":{"ha":903,"x_min":74,"x_max":829,"o":"m 817 -51 l 74 264 l 86 435 l 817 746 l 817 529 l 332 350 l 829 161 l 817 -51 z "},"≥":{"ha":903,"x_min":174,"x_max":729,"o":"m 183 213 l 174 385 l 481 506 l 183 619 l 183 794 l 708 571 l 718 439 l 183 213 m 197 0 l 186 153 l 718 153 l 729 0 l 197 0 z "},"≤":{"ha":903,"x_min":174,"x_max":729,"o":"m 719 213 l 185 439 l 194 571 l 719 794 l 719 619 l 422 506 l 729 385 l 719 213 m 174 0 l 185 153 l 717 153 l 706 0 l 174 0 z "},"±":{"ha":903,"x_min":125,"x_max":778,"o":"m 401 203 l 401 421 l 125 421 l 139 525 l 401 525 l 401 731 l 506 744 l 506 525 l 778 525 l 764 421 l 506 421 l 506 217 l 401 203 m 125 0 l 139 104 l 778 104 l 764 0 l 125 0 z "},"≈":{"ha":903,"x_min":106,"x_max":797,"o":"m 106 404 l 113 514 q 213 559 168 546 q 300 572 257 572 q 409 556 354 572 q 517 525 464 540 q 617 510 569 510 q 797 569 688 510 l 790 461 q 697 417 742 431 q 610 404 653 404 q 498 420 553 404 q 391 452 443 436 q 289 468 339 468 q 206 453 246 468 q 106 404 165 438 m 106 175 l 113 285 q 213 330 168 317 q 300 343 257 343 q 409 327 354 343 q 517 296 464 311 q 617 281 569 281 q 797 340 688 281 l 790 232 q 697 188 742 201 q 610 175 653 175 q 498 191 553 175 q 391 223 443 207 q 289 239 339 239 q 206 224 246 239 q 106 175 165 208 z "},"~":{"ha":903,"x_min":106,"x_max":797,"o":"m 106 289 l 113 399 q 213 444 168 431 q 300 457 257 457 q 409 441 354 457 q 517 410 464 425 q 617 394 569 394 q 797 454 688 394 l 790 346 q 697 302 742 315 q 610 289 653 289 q 498 305 553 289 q 391 337 443 321 q 289 353 339 353 q 206 338 246 353 q 106 289 165 322 z "},"¬":{"ha":903,"x_min":111,"x_max":792,"o":"m 688 214 l 688 443 l 111 443 l 125 547 l 792 547 l 792 228 l 688 214 z "},"^":{"ha":936,"x_min":76,"x_max":860,"o":"m 76 394 l 386 946 l 565 946 l 860 394 l 650 394 l 474 804 l 282 394 l 76 394 z "},"∅":{"ha":979,"x_min":76,"x_max":903,"o":"m 485 -24 q 345 -3 410 -24 q 229 56 281 18 l 168 -6 l 78 64 l 150 136 q 96 249 115 186 q 76 385 76 313 q 128 598 76 506 q 272 742 181 690 q 485 793 364 793 q 735 718 629 793 l 813 796 l 903 726 l 815 639 q 873 524 853 588 q 893 385 893 460 q 842 172 893 264 q 698 28 790 79 q 485 -24 606 -24 m 239 224 l 650 633 q 485 682 581 682 q 335 644 400 682 q 235 540 271 607 q 199 385 199 472 q 239 224 199 293 m 485 88 q 634 126 569 88 q 735 231 699 164 q 771 385 771 297 q 728 551 771 481 l 314 139 q 392 101 349 115 q 485 88 435 88 z "},"∞":{"ha":1217,"x_min":111,"x_max":1106,"o":"m 358 76 q 228 111 283 76 q 142 206 172 146 q 111 344 111 267 q 150 503 111 435 q 253 609 189 571 q 397 647 318 647 q 535 610 479 647 q 629 518 590 572 q 725 610 671 572 q 857 647 779 647 q 1039 572 972 647 q 1106 378 1106 497 q 1067 221 1106 289 q 963 115 1028 153 q 818 76 899 76 q 678 115 733 76 q 582 210 622 154 q 488 115 542 154 q 358 76 433 76 m 389 242 q 456 268 426 242 q 511 333 485 294 q 451 438 481 394 q 379 482 422 482 q 315 449 343 482 q 288 363 288 417 q 316 276 288 310 q 389 242 344 242 m 839 242 q 902 274 875 242 q 929 363 929 307 q 901 449 929 415 q 828 482 872 482 q 760 457 790 482 q 703 393 731 432 q 765 287 735 332 q 839 242 796 242 z "},"∫":{"ha":832,"x_min":111,"x_max":721,"o":"m 275 -324 q 196 -313 235 -324 q 111 -285 157 -303 l 179 -131 q 251 -154 218 -154 q 300 -136 282 -154 q 318 -83 318 -118 l 318 804 q 349 926 318 874 q 433 1006 379 978 q 557 1035 488 1035 q 636 1025 597 1035 q 721 996 675 1015 l 653 842 q 581 865 614 865 q 532 847 550 865 q 514 794 514 829 l 514 -93 q 483 -215 514 -162 q 399 -295 453 -267 q 275 -324 344 -324 z "},"Ω":{"ha":1174,"x_min":111,"x_max":1063,"o":"m 122 0 l 122 168 l 275 168 q 153 334 196 238 q 111 547 111 431 q 172 801 111 690 q 340 974 233 911 q 586 1038 447 1038 q 833 974 725 1038 q 1001 799 940 910 q 1063 547 1063 689 q 1020 337 1063 433 q 897 168 978 240 l 1051 168 l 1051 0 l 635 0 l 635 161 q 801 318 746 218 q 856 535 856 418 q 821 703 856 631 q 725 815 786 775 q 585 856 664 856 q 445 816 506 856 q 351 705 385 776 q 317 538 317 633 q 372 319 317 419 q 539 161 428 219 l 539 0 l 122 0 z "},"∆":{"ha":1029,"x_min":40,"x_max":988,"o":"m 40 0 l 438 925 l 604 925 l 988 0 l 40 0 m 269 147 l 754 147 l 514 746 l 269 147 z "},"∏":{"ha":1211,"x_min":139,"x_max":1072,"o":"m 249 -303 l 249 756 l 139 756 l 139 925 l 1072 925 l 1072 756 l 963 756 l 963 -303 l 763 -303 l 763 756 l 449 756 l 449 -303 l 249 -303 z "},"∑":{"ha":894,"x_min":69,"x_max":825,"o":"m 69 -303 l 69 -137 l 446 347 l 69 851 l 69 1014 l 825 1014 l 811 844 l 325 844 l 697 357 l 317 -135 l 824 -135 l 810 -303 l 69 -303 z "},"√":{"ha":931,"x_min":51,"x_max":1514,"o":"m 315 -319 l 51 363 l 236 419 l 400 -46 l 817 1339 l 1514 1339 l 1476 1157 l 956 1157 l 478 -319 l 315 -319 z "},"µ":{"ha":846,"x_min":111,"x_max":769,"o":"m 307 -304 l 111 -304 l 111 715 l 307 715 l 307 272 q 335 184 307 215 q 410 153 363 153 q 501 183 458 153 q 574 265 544 214 l 574 715 l 769 715 l 769 0 l 574 0 l 574 94 q 486 13 538 46 q 356 -19 435 -19 q 307 -15 331 -19 l 307 -304 z "},"∂":{"ha":772,"x_min":56,"x_max":710,"o":"m 388 -22 q 214 16 289 -22 q 97 128 139 54 q 56 308 56 203 q 122 524 56 440 q 325 608 188 608 q 508 575 407 608 q 469 701 492 653 q 401 773 446 750 q 271 796 356 796 q 156 788 218 796 l 151 946 q 224 958 189 954 q 289 961 258 961 q 492 914 411 961 q 622 788 574 867 q 690 612 669 708 q 710 417 710 515 q 671 160 710 257 q 560 21 632 64 q 388 -22 488 -22 m 372 138 q 518 343 507 138 q 519 380 519 363 q 517 418 518 397 q 431 446 469 438 q 365 454 393 454 q 275 411 303 454 q 247 294 247 368 q 281 176 247 214 q 372 138 315 138 z "},"%":{"ha":1092,"x_min":90,"x_max":1001,"o":"m 279 -14 l 186 -1 l 813 932 l 906 921 l 279 -14 m 285 554 q 187 579 231 554 q 117 647 143 604 q 90 742 90 689 q 117 838 90 796 q 187 906 143 881 q 285 931 231 931 q 383 906 339 931 q 452 838 426 881 q 478 742 478 796 q 452 647 478 689 q 383 579 426 604 q 285 554 339 554 m 285 649 q 347 677 324 649 q 371 742 371 706 q 347 807 371 778 q 285 836 324 836 q 222 807 246 836 q 197 742 197 778 q 222 677 197 706 q 285 649 246 649 m 808 -12 q 712 13 756 -12 q 642 81 668 38 q 617 176 617 124 q 642 272 617 229 q 712 340 668 315 q 808 365 756 365 q 906 340 863 365 q 976 272 950 315 q 1001 176 1001 229 q 976 81 1001 124 q 906 13 950 38 q 808 -12 863 -12 m 807 83 q 871 112 847 83 q 894 176 894 140 q 871 242 894 213 q 807 271 847 271 q 744 242 768 271 q 721 176 721 213 q 744 112 721 140 q 807 83 768 83 z "},"‰":{"ha":1564,"x_min":90,"x_max":1474,"o":"m 279 -14 l 186 -1 l 813 932 l 906 921 l 279 -14 m 285 554 q 187 579 231 554 q 117 647 143 604 q 90 742 90 689 q 117 838 90 796 q 187 906 143 881 q 285 931 231 931 q 383 906 339 931 q 452 838 426 881 q 478 742 478 796 q 452 647 478 689 q 383 579 426 604 q 285 554 339 554 m 285 649 q 347 677 324 649 q 371 742 371 706 q 347 807 371 778 q 285 836 324 836 q 222 807 246 836 q 197 742 197 778 q 222 677 197 706 q 285 649 246 649 m 808 -12 q 712 13 756 -12 q 642 81 668 38 q 617 176 617 124 q 642 272 617 229 q 712 340 668 315 q 808 365 756 365 q 906 340 863 365 q 976 272 950 315 q 1001 176 1001 229 q 976 81 1001 124 q 906 13 950 38 q 808 -12 863 -12 m 1281 -12 q 1184 13 1228 -12 q 1115 81 1140 38 q 1089 176 1089 124 q 1115 272 1089 229 q 1184 340 1140 315 q 1281 365 1228 365 q 1378 340 1335 365 q 1448 272 1422 315 q 1474 176 1474 229 q 1448 81 1474 124 q 1378 13 1422 38 q 1281 -12 1335 -12 m 807 83 q 871 112 847 83 q 894 176 894 140 q 871 242 894 213 q 807 271 847 271 q 744 242 768 271 q 721 176 721 213 q 744 112 721 140 q 807 83 768 83 m 1279 83 q 1343 112 1319 83 q 1367 176 1367 140 q 1343 242 1367 213 q 1279 271 1319 271 q 1217 242 1240 271 q 1193 176 1193 213 q 1217 112 1193 140 q 1279 83 1240 83 z "},"◊":{"ha":935,"x_min":90,"x_max":844,"o":"m 407 0 l 90 508 l 407 1014 l 526 1014 l 844 508 l 526 0 l 407 0 m 467 168 l 618 508 l 467 832 l 317 508 l 467 168 z "},"ׁ":{"ha":0,"x_min":347,"x_max":493,"o":"m 421 839 q 369 860 390 839 q 347 910 347 881 q 369 963 347 942 q 421 983 390 983 q 472 963 451 983 q 493 910 493 942 q 472 860 493 881 q 421 839 451 839 z "},"ְ":{"ha":0,"x_min":343,"x_max":489,"o":"m 417 -260 q 365 -239 386 -260 q 343 -189 343 -218 q 365 -136 343 -157 q 417 -115 386 -115 q 468 -136 447 -115 q 489 -189 489 -157 q 468 -239 489 -218 q 417 -260 447 -260 m 417 -472 q 365 -451 386 -472 q 343 -400 343 -431 q 365 -349 343 -369 q 417 -328 386 -328 q 468 -349 447 -328 q 489 -400 489 -369 q 468 -451 489 -431 q 417 -472 447 -472 z "},"ֱ":{"ha":0,"x_min":103,"x_max":729,"o":"m 657 -260 q 605 -239 626 -260 q 583 -189 583 -218 q 605 -136 583 -157 q 657 -115 626 -115 q 708 -136 688 -115 q 729 -189 729 -157 q 708 -239 729 -218 q 657 -260 688 -260 m 176 -260 q 124 -239 146 -260 q 103 -189 103 -218 q 124 -136 103 -157 q 176 -115 146 -115 q 228 -136 207 -115 q 249 -189 249 -157 q 228 -239 249 -218 q 176 -260 207 -260 m 417 -260 q 365 -239 386 -260 q 343 -189 343 -218 q 365 -136 343 -157 q 417 -115 386 -115 q 468 -136 447 -115 q 489 -189 489 -157 q 468 -239 489 -218 q 417 -260 447 -260 m 296 -472 q 244 -451 265 -472 q 222 -400 222 -431 q 244 -349 222 -369 q 296 -328 265 -328 q 347 -349 326 -328 q 368 -400 368 -369 q 347 -451 368 -431 q 296 -472 326 -472 m 657 -472 q 605 -451 626 -472 q 583 -400 583 -431 q 605 -349 583 -369 q 657 -328 626 -328 q 708 -349 688 -328 q 729 -400 729 -369 q 708 -451 729 -431 q 657 -472 688 -472 z "},"ֲ":{"ha":0,"x_min":106,"x_max":733,"o":"m 661 -260 q 609 -239 631 -260 q 588 -189 588 -218 q 609 -136 588 -157 q 661 -115 631 -115 q 713 -136 692 -115 q 733 -189 733 -157 q 713 -239 733 -218 q 661 -260 692 -260 m 106 -235 l 114 -140 l 479 -140 l 471 -235 l 106 -235 m 661 -472 q 609 -451 631 -472 q 588 -400 588 -431 q 609 -349 588 -369 q 661 -328 631 -328 q 713 -349 692 -328 q 733 -400 733 -369 q 713 -451 733 -431 q 661 -472 692 -472 z "},"ֳ":{"ha":0,"x_min":106,"x_max":733,"o":"m 661 -260 q 609 -239 631 -260 q 588 -189 588 -218 q 609 -136 588 -157 q 661 -115 631 -115 q 713 -136 692 -115 q 733 -189 733 -157 q 713 -239 733 -218 q 661 -260 692 -260 m 232 -418 l 243 -235 l 106 -235 l 114 -140 l 479 -140 l 471 -235 l 343 -235 l 354 -418 l 232 -418 m 661 -472 q 609 -451 631 -472 q 588 -400 588 -431 q 609 -349 588 -369 q 661 -328 631 -328 q 713 -349 692 -328 q 733 -400 733 -369 q 713 -451 733 -431 q 661 -472 692 -472 z "},"ִ":{"ha":0,"x_min":343,"x_max":489,"o":"m 417 -260 q 365 -239 386 -260 q 343 -189 343 -218 q 365 -136 343 -157 q 417 -115 386 -115 q 468 -136 447 -115 q 489 -189 489 -157 q 468 -239 489 -218 q 417 -260 447 -260 z "},"ֵ":{"ha":0,"x_min":224,"x_max":610,"o":"m 538 -260 q 485 -239 507 -260 q 464 -189 464 -218 q 485 -136 464 -157 q 538 -115 507 -115 q 589 -136 568 -115 q 610 -189 610 -157 q 589 -239 610 -218 q 538 -260 568 -260 m 297 -260 q 245 -239 267 -260 q 224 -189 224 -218 q 245 -136 224 -157 q 297 -115 267 -115 q 349 -136 328 -115 q 369 -189 369 -157 q 349 -239 369 -218 q 297 -260 328 -260 z "},"ֶ":{"ha":0,"x_min":224,"x_max":610,"o":"m 538 -260 q 485 -239 507 -260 q 464 -189 464 -218 q 485 -136 464 -157 q 538 -115 507 -115 q 589 -136 568 -115 q 610 -189 610 -157 q 589 -239 610 -218 q 538 -260 568 -260 m 297 -260 q 245 -239 267 -260 q 224 -189 224 -218 q 245 -136 224 -157 q 297 -115 267 -115 q 349 -136 328 -115 q 369 -189 369 -157 q 349 -239 369 -218 q 297 -260 328 -260 m 417 -472 q 365 -451 386 -472 q 343 -400 343 -431 q 365 -349 343 -369 q 417 -328 386 -328 q 468 -349 447 -328 q 489 -400 489 -369 q 468 -451 489 -431 q 417 -472 447 -472 z "},"ַ":{"ha":0,"x_min":229,"x_max":603,"o":"m 229 -235 l 238 -140 l 603 -140 l 594 -235 l 229 -235 z "},"ָ":{"ha":0,"x_min":229,"x_max":603,"o":"m 356 -418 l 367 -235 l 229 -235 l 238 -140 l 603 -140 l 594 -235 l 467 -235 l 478 -418 l 356 -418 z "},"ֹ":{"ha":0,"x_min":347,"x_max":493,"o":"m 421 839 q 369 860 390 839 q 347 910 347 881 q 369 963 347 942 q 421 983 390 983 q 472 963 451 983 q 493 910 493 942 q 472 860 493 881 q 421 839 451 839 z "},"ֺ":{"ha":0,"x_min":347,"x_max":493,"o":"m 421 839 q 369 860 390 839 q 347 910 347 881 q 369 963 347 942 q 421 983 390 983 q 472 963 451 983 q 493 910 493 942 q 472 860 493 881 q 421 839 451 839 z "},"ֻ":{"ha":0,"x_min":344,"x_max":757,"o":"m 418 -260 q 366 -239 388 -260 q 344 -189 344 -218 q 366 -136 344 -157 q 418 -115 388 -115 q 469 -136 449 -115 q 490 -189 490 -157 q 469 -239 490 -218 q 418 -260 449 -260 m 551 -431 q 499 -410 521 -431 q 478 -360 478 -389 q 499 -307 478 -328 q 551 -286 521 -286 q 603 -307 582 -286 q 624 -360 624 -328 q 603 -410 624 -389 q 551 -431 582 -431 m 685 -601 q 633 -581 654 -601 q 611 -529 611 -560 q 633 -478 611 -499 q 685 -457 654 -457 q 736 -478 715 -457 q 757 -529 757 -499 q 736 -581 757 -560 q 685 -601 715 -601 z "},"ּ":{"ha":0,"x_min":343,"x_max":489,"o":"m 417 308 q 365 329 386 308 q 343 379 343 350 q 365 432 343 411 q 417 453 386 453 q 468 432 447 453 q 489 379 489 411 q 468 329 489 350 q 417 308 447 308 z "},"ׂ":{"ha":0,"x_min":347,"x_max":493,"o":"m 421 839 q 369 860 390 839 q 347 910 347 881 q 369 963 347 942 q 421 983 390 983 q 472 963 451 983 q 493 910 493 942 q 472 860 493 881 q 421 839 451 839 z "},"ׇ":{"ha":0,"x_min":229,"x_max":603,"o":"m 356 -418 l 367 -235 l 229 -235 l 238 -140 l 603 -140 l 594 -235 l 467 -235 l 478 -418 l 356 -418 z "},"̈":{"ha":0,"x_min":1,"x_max":543,"o":"m 431 814 q 355 846 388 814 q 322 924 322 878 q 357 1001 322 969 q 435 1033 392 1033 q 511 1001 479 1033 q 543 924 543 969 q 511 846 543 878 q 431 814 479 814 m 110 814 q 33 846 65 814 q 1 924 1 878 q 35 1001 1 969 q 114 1033 69 1033 q 190 1001 158 1033 q 222 924 222 969 q 188 846 222 878 q 110 814 154 814 z "},"̇":{"ha":0,"x_min":22,"x_max":236,"o":"m 128 819 q 53 851 85 819 q 22 925 22 882 q 55 1000 22 969 q 131 1031 88 1031 q 205 1000 174 1031 q 236 925 236 969 q 203 851 236 882 q 128 819 171 819 z "},"̀":{"ha":0,"x_min":38,"x_max":285,"o":"m 139 806 q 67 835 97 806 q 38 911 38 864 q 69 1003 38 961 q 152 1075 101 1044 q 260 1121 203 1106 l 285 1067 q 200 975 231 1024 l 236 901 q 209 835 236 865 q 139 806 182 806 z "},"́":{"ha":0,"x_min":93,"x_max":340,"o":"m 118 806 l 93 860 q 178 951 147 903 l 142 1025 q 169 1091 142 1061 q 239 1121 196 1121 q 310 1092 281 1121 q 340 1015 340 1063 q 308 924 340 965 q 226 851 276 882 q 118 806 175 821 z "},"̋":{"ha":0,"x_min":78,"x_max":589,"o":"m 367 806 l 342 860 q 426 951 396 903 l 390 1025 q 417 1091 390 1061 q 488 1121 444 1121 q 559 1092 529 1121 q 589 1015 589 1063 q 557 924 589 965 q 474 851 525 882 q 367 806 424 821 m 103 806 l 78 860 q 163 951 132 903 l 126 1025 q 153 1091 126 1061 q 224 1121 181 1121 q 295 1092 265 1121 q 325 1015 325 1063 q 293 924 325 965 q 210 851 261 882 q 103 806 160 821 z "},"̂":{"ha":0,"x_min":36,"x_max":503,"o":"m 97 806 l 36 901 l 269 1085 l 503 901 l 442 806 l 269 899 l 97 806 z "},"̌":{"ha":0,"x_min":36,"x_max":503,"o":"m 269 806 l 36 989 l 97 1085 l 269 992 l 442 1085 l 503 989 l 269 806 z "},"̆":{"ha":0,"x_min":21,"x_max":532,"o":"m 276 808 q 124 862 196 808 q 21 1021 53 915 l 117 1053 q 188 969 146 997 q 276 940 231 940 q 364 969 321 940 q 436 1053 407 997 l 532 1021 q 428 862 500 915 q 276 808 357 808 z "},"̊":{"ha":0,"x_min":35,"x_max":393,"o":"m 214 797 q 124 820 164 797 q 59 883 83 843 q 35 971 35 922 q 59 1060 35 1021 q 124 1122 83 1099 q 214 1144 164 1144 q 304 1122 264 1144 q 369 1060 344 1099 q 393 971 393 1021 q 369 883 393 922 q 304 820 344 843 q 214 797 264 797 m 214 896 q 265 919 246 896 q 283 971 283 942 q 265 1023 283 1000 q 214 1046 246 1046 q 164 1023 183 1046 q 144 971 144 1000 q 164 919 144 942 q 214 896 183 896 z "},"̃":{"ha":0,"x_min":14,"x_max":564,"o":"m 392 807 q 303 828 342 807 q 231 872 264 850 q 167 894 197 894 q 126 876 144 894 q 89 810 107 857 l 14 867 q 83 997 38 957 q 186 1038 129 1038 q 275 1015 236 1038 q 347 972 314 993 q 411 950 381 950 q 452 969 433 950 q 489 1035 471 988 l 564 978 q 495 848 542 889 q 392 807 449 807 z "},"̄":{"ha":0,"x_min":19,"x_max":483,"o":"m 19 831 l 19 954 l 483 954 l 483 831 l 19 831 z "},"̒":{"ha":0,"x_min":38,"x_max":285,"o":"m 139 806 q 67 835 97 806 q 38 911 38 864 q 69 1003 38 961 q 152 1075 101 1044 q 260 1121 203 1106 l 285 1067 q 200 975 231 1024 l 236 901 q 209 835 236 865 q 139 806 182 806 z "},"̦":{"ha":0,"x_min":15,"x_max":218,"o":"m 39 -453 l 15 -368 q 51 -317 35 -343 q 75 -269 67 -292 l 18 -185 q 45 -121 18 -151 q 117 -90 72 -90 q 188 -119 158 -90 q 218 -196 218 -149 q 178 -312 218 -243 q 39 -453 139 -382 z "},"̧":{"ha":0,"x_min":-11,"x_max":333,"o":"m 168 -337 q 69 -320 118 -337 q -11 -275 21 -303 l 31 -215 q 92 -247 60 -235 q 150 -260 124 -260 q 186 -249 172 -260 q 200 -217 200 -239 q 166 -181 200 -189 q 96 -175 132 -174 l 67 -156 l 131 31 l 231 24 l 186 -78 q 292 -122 251 -87 q 333 -210 333 -156 q 283 -302 333 -267 q 168 -337 233 -337 z "},"̨":{"ha":0,"x_min":0,"x_max":282,"o":"m 158 -306 q 42 -268 83 -306 q 0 -169 0 -231 q 47 -54 0 -100 q 151 10 93 -8 l 278 0 q 169 -53 213 -19 q 126 -129 126 -86 q 149 -175 126 -160 q 201 -190 171 -190 q 282 -167 243 -190 l 275 -274 q 223 -297 254 -289 q 158 -306 192 -306 z "},"̵":{"ha":0,"x_min":133,"x_max":644,"o":"m 133 360 l 147 478 l 644 478 l 631 360 l 133 360 z "},"̶":{"ha":0,"x_min":133,"x_max":686,"o":"m 133 360 l 147 478 l 686 478 l 672 360 l 133 360 z "},"̷":{"ha":0,"x_min":139,"x_max":567,"o":"m 165 272 l 139 407 l 540 707 l 567 572 l 165 272 z "},"̸":{"ha":0,"x_min":1,"x_max":918,"o":"m 42 -51 l 1 122 l 878 971 l 918 797 l 42 -51 z "},"¨":{"ha":833,"x_min":146,"x_max":688,"o":"m 575 814 q 499 846 532 814 q 467 924 467 878 q 501 1001 467 969 q 579 1033 536 1033 q 656 1001 624 1033 q 688 924 688 969 q 656 846 688 878 q 575 814 624 814 m 254 814 q 178 846 210 814 q 146 924 146 878 q 180 1001 146 969 q 258 1033 214 1033 q 335 1001 303 1033 q 367 924 367 969 q 333 846 367 878 q 254 814 299 814 z "},"˙":{"ha":833,"x_min":310,"x_max":524,"o":"m 415 819 q 341 851 372 819 q 310 925 310 882 q 342 1000 310 969 q 418 1031 375 1031 q 492 1000 461 1031 q 524 925 524 969 q 491 851 524 882 q 415 819 458 819 z "},"`":{"ha":833,"x_min":293,"x_max":540,"o":"m 394 806 q 323 835 353 806 q 293 911 293 864 q 325 1003 293 961 q 408 1075 357 1044 q 515 1121 458 1106 l 540 1067 q 456 975 486 1024 l 492 901 q 465 835 492 865 q 394 806 438 806 z "},"´":{"ha":833,"x_min":293,"x_max":540,"o":"m 318 806 l 293 860 q 378 951 347 903 l 342 1025 q 369 1091 342 1061 q 439 1121 396 1121 q 510 1092 481 1121 q 540 1015 540 1063 q 508 924 540 965 q 426 851 476 882 q 318 806 375 821 z "},"˝":{"ha":833,"x_min":161,"x_max":672,"o":"m 450 806 l 425 860 q 510 951 479 903 l 474 1025 q 501 1091 474 1061 q 571 1121 528 1121 q 642 1092 613 1121 q 672 1015 672 1063 q 640 924 672 965 q 558 851 608 882 q 450 806 507 821 m 186 806 l 161 860 q 246 951 215 903 l 210 1025 q 237 1091 210 1061 q 307 1121 264 1121 q 378 1092 349 1121 q 408 1015 408 1063 q 376 924 408 965 q 294 851 344 882 q 186 806 243 821 z "},"ˆ":{"ha":833,"x_min":183,"x_max":650,"o":"m 244 806 l 183 901 l 417 1085 l 650 901 l 589 806 l 417 899 l 244 806 z "},"ˇ":{"ha":833,"x_min":183,"x_max":650,"o":"m 417 806 l 183 989 l 244 1085 l 417 992 l 589 1085 l 650 989 l 417 806 z "},"˘":{"ha":833,"x_min":161,"x_max":672,"o":"m 417 808 q 265 862 336 808 q 161 1021 193 915 l 257 1053 q 328 969 286 997 q 417 940 371 940 q 504 969 461 940 q 576 1053 547 997 l 672 1021 q 569 862 640 915 q 417 808 497 808 z "},"˚":{"ha":833,"x_min":238,"x_max":596,"o":"m 417 797 q 326 820 367 797 q 262 883 286 843 q 238 971 238 922 q 262 1060 238 1021 q 326 1122 286 1099 q 417 1144 367 1144 q 507 1122 467 1144 q 572 1060 547 1099 q 596 971 596 1021 q 572 883 596 922 q 507 820 547 843 q 417 797 467 797 m 417 896 q 467 919 449 896 q 486 971 486 942 q 467 1023 486 1000 q 417 1046 449 1046 q 367 1023 386 1046 q 347 971 347 1000 q 367 919 347 942 q 417 896 386 896 z "},"˜":{"ha":833,"x_min":142,"x_max":692,"o":"m 519 807 q 431 828 469 807 q 358 872 392 850 q 294 894 325 894 q 253 876 272 894 q 217 810 235 857 l 142 867 q 211 997 165 957 q 314 1038 257 1038 q 403 1015 364 1038 q 475 972 442 993 q 539 950 508 950 q 580 969 561 950 q 617 1035 599 988 l 692 978 q 623 848 669 889 q 519 807 576 807 z "},"¯":{"ha":833,"x_min":185,"x_max":649,"o":"m 185 831 l 185 954 l 649 954 l 649 831 l 185 831 z "},"¸":{"ha":833,"x_min":244,"x_max":589,"o":"m 424 -337 q 325 -320 374 -337 q 244 -275 276 -303 l 286 -215 q 347 -247 315 -235 q 406 -260 379 -260 q 442 -249 428 -260 q 456 -217 456 -239 q 422 -181 456 -189 q 351 -175 388 -174 l 322 -156 l 386 31 l 486 24 l 442 -78 q 548 -122 507 -87 q 589 -210 589 -156 q 539 -302 589 -267 q 424 -337 489 -337 z "},"˛":{"ha":833,"x_min":276,"x_max":558,"o":"m 435 -306 q 318 -268 360 -306 q 276 -169 276 -231 q 323 -54 276 -100 q 428 10 369 -8 l 554 0 q 446 -53 489 -19 q 403 -129 403 -86 q 425 -175 403 -160 q 478 -190 447 -190 q 558 -167 519 -190 l 551 -274 q 499 -297 531 -289 q 435 -306 468 -306 z "}}}
